<svg width="20" height="17" viewBox="0 0 20 17" fill="none" xmlns="http://www.w3.org/2000/svg">
<path d="M19.0001 0.339972C18.8501 0.220808 18.6745 0.138026 18.4871 0.0981202C18.2997 0.0582146 18.1057 0.0622712 17.9201 0.109971L11.0001 1.88997V16.16L18.5601 14.22C18.8305 14.1508 19.07 13.993 19.2403 13.7719C19.4107 13.5508 19.5021 13.2791 19.5001 13V1.31997C19.497 1.1293 19.4504 0.941866 19.3637 0.772005C19.2771 0.602144 19.1527 0.454362 19.0001 0.339972ZM9.00011 1.88997L2.06011 0.109971C1.87741 0.0676657 1.6876 0.066349 1.50432 0.106116C1.32105 0.145884 1.14885 0.225748 1.00011 0.339972C0.848542 0.458473 0.726372 0.610363 0.643116 0.783813C0.55986 0.957263 0.517766 1.14759 0.520113 1.33997V13C0.520323 13.2774 0.612802 13.5468 0.782983 13.7659C0.953164 13.9849 1.19138 14.1412 1.46011 14.21L9.00011 16.16V1.88997Z" fill="black"/>
</svg>
