<svg width="11" height="18" viewBox="0 0 11 18" fill="none" xmlns="http://www.w3.org/2000/svg">
<path d="M8.96049 2.84832e-05C9.19701 -0.00133894 9.43147 0.0439936 9.65043 0.133428C9.86939 0.222863 10.0685 0.354643 10.2365 0.521206C10.4049 0.688275 10.5386 0.887041 10.6299 1.10604C10.7211 1.32504 10.7681 1.55994 10.7681 1.79719C10.7681 2.03443 10.7211 2.26933 10.6299 2.48833C10.5386 2.70733 10.4049 2.9061 10.2365 3.07317L4.28788 8.98582L10.0028 14.9344C10.3376 15.2711 10.5254 15.7266 10.5254 16.2014C10.5254 16.6762 10.3376 17.1317 10.0028 17.4684C9.83577 17.6368 9.637 17.7705 9.418 17.8618C9.199 17.953 8.9641 18 8.72686 18C8.48961 18 8.25471 17.953 8.03571 17.8618C7.81671 17.7705 7.61794 17.6368 7.45088 17.4684L0.513848 10.2798C0.18456 9.94383 0.000117216 9.49217 0.000117258 9.02176C0.000117299 8.55135 0.18456 8.09969 0.513848 7.76375L7.70248 0.575118C7.86379 0.400916 8.05801 0.260403 8.27394 0.161694C8.48986 0.0629855 8.72321 0.00803886 8.96049 2.84832e-05V2.84832e-05Z" fill="#F6F6F6"/>
</svg>
