<svg width="26" height="25" viewBox="0 0 26 25" fill="none" xmlns="http://www.w3.org/2000/svg">
<path fill-rule="evenodd" clip-rule="evenodd" d="M13 0C5.81963 0 0 5.72826 0 12.7959C0 18.4485 3.72378 23.2453 8.89042 24.9388C9.54081 25.0543 9.77542 24.6604 9.77542 24.3217C9.77542 24.0177 9.76499 23.212 9.76108 22.1459C6.14418 22.9182 5.38039 20.4293 5.38039 20.4293C4.79126 18.9514 3.93754 18.5575 3.93754 18.5575C2.75797 17.7634 4.02747 17.7814 4.02747 17.7814C5.33347 17.8712 6.01775 19.1002 6.01775 19.1002C7.17776 21.0554 9.06246 20.4909 9.80018 20.1637C9.91879 19.3363 10.2577 18.7718 10.6278 18.4523C7.74213 18.1303 4.70784 17.0321 4.70784 12.1275C4.70784 10.733 5.21486 9.58859 6.04251 8.69567C5.91087 8.37109 5.4612 7.06892 6.17155 5.30875C6.17155 5.30875 7.26248 4.96364 9.74544 6.61861C10.8059 6.33467 11.8997 6.18973 12.9987 6.18755C14.0977 6.18931 15.1916 6.33425 16.252 6.61861C18.7362 4.96236 19.8258 5.30875 19.8258 5.30875C20.5362 7.06892 20.0904 8.37109 19.9549 8.69567C20.7891 9.58859 21.2896 10.7317 21.2896 12.1275C21.2896 17.045 18.2527 18.1252 15.3565 18.4421C15.8192 18.8372 16.2363 19.6172 16.2363 20.8103C16.2363 22.5218 16.2207 23.9022 16.2207 24.3217C16.2207 24.6643 16.4527 25.062 17.1161 24.9362C22.2801 23.2402 26 18.4472 26 12.7959C26 5.72826 20.1804 0 13 0Z" fill="#F6F6F6"/>
</svg>
