<svg width="25" height="32" viewBox="0 0 25 32" fill="none" xmlns="http://www.w3.org/2000/svg">
<path d="M12.4444 14.2222C13.8509 14.2222 15.2257 13.8052 16.3952 13.0238C17.5646 12.2424 18.476 11.1318 19.0143 9.83242C19.5525 8.53303 19.6933 7.10322 19.4189 5.7238C19.1445 4.34438 18.4673 3.07731 17.4728 2.0828C16.4783 1.08829 15.2112 0.411025 13.8318 0.136641C12.4523 -0.137743 11.0225 0.00308114 9.72314 0.541304C8.42375 1.07953 7.31315 1.99098 6.53177 3.16039C5.75039 4.32981 5.33333 5.70467 5.33333 7.11111C5.33333 8.9971 6.08254 10.8058 7.41613 12.1394C8.74972 13.473 10.5585 14.2222 12.4444 14.2222ZM23.1111 32C23.5826 32 24.0348 31.8127 24.3682 31.4793C24.7016 31.1459 24.8889 30.6937 24.8889 30.2222C24.8889 26.9217 23.5778 23.7565 21.244 21.4227C18.9102 19.0889 15.7449 17.7778 12.4444 17.7778C9.14397 17.7778 5.97868 19.0889 3.64489 21.4227C1.31111 23.7565 4.91809e-08 26.9217 0 30.2222C0 30.6937 0.187301 31.1459 0.520699 31.4793C0.854097 31.8127 1.30628 32 1.77778 32H23.1111Z" fill="#1A1A1A"/>
</svg>
