<svg width="29" height="32" viewBox="0 0 29 32" fill="none" xmlns="http://www.w3.org/2000/svg">
<path d="M26.6667 0H5.33333C3.91885 0 2.56229 0.561903 1.5621 1.5621C0.561903 2.56229 0 3.91885 0 5.33333V26.6667C0 28.0812 0.561903 29.4377 1.5621 30.4379C2.56229 31.4381 3.91885 32 5.33333 32H26.6667C27.1382 32 27.5903 31.8127 27.9237 31.4793C28.2571 31.1459 28.4444 30.6937 28.4444 30.2222V1.77778C28.4444 1.30628 28.2571 0.854097 27.9237 0.520699C27.5903 0.187301 27.1382 0 26.6667 0ZM5.33333 28.4444C4.86184 28.4444 4.40965 28.2571 4.07625 27.9237C3.74286 27.5903 3.55556 27.1382 3.55556 26.6667C3.55556 26.1952 3.74286 25.743 4.07625 25.4096C4.40965 25.0762 4.86184 24.8889 5.33333 24.8889H24.8889V28.4444H5.33333Z" fill="#1A1A1A"/>
</svg>
