<svg width="300" height="274" viewBox="0 0 300 274" fill="none" xmlns="http://www.w3.org/2000/svg">
<path d="M92.1271 117.057C90.026 114.155 87.7092 111.416 85.1962 108.862C83.9654 107.591 82.608 106.45 81.1452 105.455C80.4374 104.979 79.6654 104.606 78.8523 104.348C78.6548 104.294 78.4559 104.255 78.2593 104.219L77.6387 104.167C77.1588 104.149 76.6815 104.088 76.2129 103.982C75.2314 103.793 74.3192 103.342 73.5731 102.677C72.8481 101.986 72.3079 101.125 72.002 100.172C71.4901 98.3428 71.4057 96.4209 71.7554 94.5544C72.3163 90.876 73.7953 87.5268 74.5734 84.115C74.9914 82.4407 75.122 80.7077 74.9597 78.9897C74.7709 77.2539 74.3901 75.5444 73.8241 73.8926C73.5516 73.0663 73.2373 72.2047 72.9733 71.3263C72.7106 70.4517 72.471 69.5716 72.2686 68.6837C71.8595 66.9102 71.5643 65.1125 71.3847 63.3014C71.1947 61.4863 71.1722 59.6577 71.3177 57.8385C71.3935 56.918 71.5592 56.0071 71.8124 55.1188C71.947 54.6655 72.1283 54.2273 72.3534 53.8113C72.5789 53.3711 72.8963 52.9844 73.284 52.6772C73.6941 52.3614 74.1962 52.1882 74.7139 52.1841L75.0918 52.2043L75.4389 52.276C75.6717 52.314 75.901 52.371 76.1246 52.4463C77.0238 52.733 77.8449 53.2227 78.5243 53.8777C79.8428 55.1841 80.7882 56.8189 81.2627 58.6129L80.8038 58.6312C81.2848 56.6708 82.2253 54.8528 83.5476 53.3271C84.1867 52.5571 84.9016 51.8532 85.6814 51.226L86.2666 50.7574L86.8807 50.3285L88.0734 49.4835C91.0761 47.0173 93.2929 43.7285 94.4517 40.0208C94.5958 39.5703 94.7154 39.1124 94.8099 38.6489C94.8514 38.4365 94.8776 38.2213 94.8881 38.005C94.9052 37.7133 94.9601 37.4251 95.0515 37.1476C95.3637 36.1886 95.7379 35.251 96.1716 34.3405C97.008 32.5296 97.9747 30.7816 99.064 29.1104C100.141 27.3861 101.454 25.8209 102.965 24.4601C103.781 23.7136 104.775 23.1891 105.852 22.937C106.452 22.81 107.075 22.8458 107.656 23.0405C108.271 23.2307 108.809 23.6144 109.189 24.1346C109.794 25.1023 110.092 26.2295 110.046 27.3693C110.042 28.3953 109.954 29.4192 109.783 30.4309C109.443 32.3966 108.998 34.3427 108.45 36.2608C107.407 40.0784 106.17 43.8151 105.152 47.5755C104.626 49.4216 104.242 51.3055 104.005 53.2105C103.843 55.1231 103.756 57.0954 103.706 59.0412C103.656 60.9939 103.663 62.9489 103.683 64.9048C103.704 66.8761 103.791 68.7824 103.846 70.8165C103.85 70.9819 103.793 71.1431 103.687 71.2696C103.58 71.3961 103.431 71.4791 103.267 71.5029L103.235 71.5074C102.989 71.5451 102.754 71.6385 102.549 71.7802C102.468 71.8356 102.399 71.9068 102.345 71.9894C102.292 72.0721 102.256 72.1646 102.239 72.2615C102.311 72.9029 102.445 73.5358 102.64 74.151C103.021 75.566 103.446 76.9827 103.874 78.3942C104.743 81.2162 105.616 84.0409 106.548 86.8461C107.475 89.653 108.466 92.4373 109.488 95.2094C110.002 96.5941 110.545 97.9678 111.127 99.3236C111.437 99.9909 111.708 100.682 112.058 101.327C112.229 101.652 112.385 101.989 112.569 102.305L113.17 103.224L113.178 103.236C113.189 103.253 113.193 103.274 113.189 103.293C113.185 103.313 113.174 103.33 113.157 103.342C113.141 103.353 113.12 103.358 113.101 103.355C113.081 103.351 113.063 103.34 113.051 103.324L112.383 102.421C112.177 102.11 112.001 101.782 111.809 101.462C111.412 100.828 111.116 100.147 110.77 99.4886C110.121 98.1523 109.511 96.7979 108.93 95.4328C107.758 92.7058 106.706 89.9321 105.669 87.1539C104.65 84.3691 103.642 81.5797 102.723 78.7576C102.262 77.346 101.806 75.9359 101.388 74.5006C101.278 74.1469 101.184 73.7753 101.085 73.4094C101.025 73.2085 100.979 73.0039 100.946 72.7971L100.89 72.4466C100.887 72.3183 100.893 72.19 100.907 72.0625C100.988 71.5181 101.279 71.0267 101.717 70.6932C102.111 70.3943 102.573 70.1992 103.063 70.1258L102.453 70.8165C102.361 68.9217 102.229 66.9013 102.167 64.9412C102.095 62.9664 102.086 60.9885 102.113 59.0101C102.146 57.0252 102.211 55.0664 102.362 53.0598C102.591 51.0588 102.988 49.0806 103.55 47.1463C104.579 43.3123 105.844 39.5878 106.928 35.8338C107.483 33.977 107.939 32.0918 108.292 30.1864C108.46 29.2607 108.553 28.323 108.57 27.3824C108.622 26.5473 108.432 25.7148 108.024 24.9843C107.826 24.701 107.539 24.4926 107.208 24.3929C106.854 24.2668 106.472 24.2421 106.105 24.3214C105.259 24.5221 104.476 24.9292 103.825 25.5064C102.388 26.7569 101.131 28.2006 100.09 29.7961C99.0037 31.4029 98.0227 33.0783 97.153 34.8116C96.7141 35.6636 96.3302 36.5428 96.0035 37.4438C95.934 37.6312 95.8866 37.826 95.8621 38.0243C95.8433 38.2988 95.8031 38.5714 95.7419 38.8397C95.6251 39.3364 95.4812 39.8263 95.3108 40.3073C93.9994 44.1213 91.6056 47.4713 88.4215 49.9484L87.1989 50.7968L86.5995 51.2063L86.0291 51.6542C85.2693 52.2527 84.5717 52.926 83.9468 53.6641C82.6664 55.1097 81.7478 56.8386 81.2665 58.7084L81.2656 58.7124C81.2538 58.7633 81.2255 58.8089 81.1851 58.8421C81.1447 58.8753 81.0944 58.8941 81.0422 58.8958C80.9899 58.8974 80.9385 58.8817 80.8961 58.8512C80.8537 58.8206 80.8226 58.7768 80.8076 58.7268C80.3337 57.035 79.4195 55.499 78.1581 54.2754C77.5313 53.6848 76.7763 53.247 75.9522 52.9963C75.7492 52.9306 75.5411 52.882 75.33 52.8511L75.0166 52.7893L74.7212 52.7784C74.3347 52.7861 73.9615 52.9207 73.659 53.1613C73.3429 53.418 73.0908 53.7446 72.9223 54.1153C72.7328 54.4968 72.5833 54.8968 72.476 55.309C72.2655 56.1576 72.1382 57.0247 72.096 57.898C72.0148 59.6669 72.0964 61.4396 72.3397 63.1936C72.5718 64.9529 72.9162 66.6956 73.3708 68.411C73.5955 69.2682 73.856 70.1147 74.1372 70.9521C74.4164 71.7865 74.7508 72.6015 75.0518 73.4778C75.686 75.2156 76.116 77.0212 76.3329 78.8583C76.5163 80.7247 76.3817 82.6086 75.9348 84.43C75.0592 88.0101 73.5616 91.3025 73.0007 94.7467C72.8583 95.5985 72.7834 96.4603 72.7767 97.3239C72.7822 98.1631 72.9029 98.9976 73.1352 99.804C73.3716 100.57 73.7906 101.267 74.3562 101.835C74.9432 102.389 75.6705 102.773 76.4598 102.946C76.8651 103.05 77.2794 103.117 77.6972 103.145L78.4177 103.229C78.6605 103.28 78.9027 103.337 79.1357 103.408C80.03 103.719 80.8749 104.157 81.6443 104.709C83.126 105.78 84.4913 107.004 85.718 108.359C88.1365 111.04 90.3238 113.921 92.2564 116.971C92.2675 116.988 92.2712 117.009 92.2667 117.029C92.2622 117.049 92.2499 117.067 92.2325 117.078C92.2155 117.088 92.1952 117.092 92.1758 117.088C92.1563 117.084 92.1389 117.073 92.1271 117.057Z" fill="#1A1A1A"/>
<path d="M81.3854 58.5019C83.3493 62.7317 85.3376 66.951 87.3502 71.16C88.3589 73.263 89.38 75.3597 90.4135 77.4504C90.9336 78.494 91.4581 79.5355 91.9976 80.569C92.2682 81.0853 92.5402 81.6011 92.8256 82.1092C93.0824 82.6319 93.405 83.1196 93.7855 83.5606C93.392 83.1295 93.0554 82.6499 92.7836 82.1335C92.4837 81.6327 92.1973 81.1243 91.9122 80.6152C91.3436 79.596 90.79 78.5688 90.2408 77.5392C89.1447 75.479 88.0651 73.4102 87.0023 71.3327C84.8696 67.1813 82.7638 63.0163 80.6848 58.8378C80.6389 58.7456 80.6314 58.639 80.6642 58.5413C80.6969 58.4436 80.7671 58.3629 80.8593 58.317C80.9516 58.2711 81.0583 58.2636 81.156 58.2964C81.2537 58.3291 81.3344 58.3992 81.3804 58.4914L81.3854 58.5019Z" fill="#1A1A1A"/>
<path d="M101.558 72.4121C101.558 73.802 109.72 99.2907 113.11 103.272C109.768 99.6802 106.059 96.4483 102.043 93.6298C102.709 93.621 103.367 93.7883 103.948 94.1148C103.948 94.1148 105.143 95.1065 105.143 92.5222C105.143 89.9306 94.7785 83.9584 93.7863 83.5602C92.7868 83.1621 89.897 76.6469 89.897 76.6469C93.5906 74.1575 97.7024 72.3528 102.036 71.319L101.558 72.4121ZM92.9751 168.923C92.6275 169.603 92.316 170.298 91.9901 170.979C91.9901 170.979 90.3968 130.556 92.1929 117.012L93.9819 116.614C95.4521 118.785 96.9876 120.906 98.4867 123.056C100.008 125.185 101.541 127.303 103.086 129.412C106.063 133.473 109.08 137.501 112.139 141.494C110.35 143.695 108.626 145.932 106.903 148.176C105.063 150.586 103.264 153.026 101.507 155.495C99.747 157.956 98.0498 160.468 96.4154 163.03C95.5969 164.312 94.8292 165.622 94.0688 166.932L92.9751 168.923Z" fill="#1A1A1A"/>
<path d="M138.415 165.405C138.415 165.405 137.365 168.728 136.156 173.846V173.853C136.156 173.86 136.148 173.867 136.148 173.874C134.548 177.791 133.15 181.772 131.832 185.79C130.506 189.808 129.326 193.876 128.225 197.966C127.16 202.07 126.153 206.19 125.48 210.395C125.328 211.452 125.176 212.509 125.045 213.566L124.929 215.173L124.879 215.969L124.893 216.788L124.929 217.598L124.944 218.004C124.964 218.154 124.998 218.301 125.045 218.445C125.111 218.731 125.236 218.999 125.412 219.234C125.588 219.469 125.811 219.664 126.066 219.808C126.322 219.952 126.605 220.04 126.896 220.069C127.188 220.097 127.483 220.064 127.761 219.973C128.282 219.839 128.782 219.635 129.246 219.365C128.758 219.556 128.246 219.683 127.725 219.741C127.24 219.823 126.742 219.722 126.327 219.459C125.952 219.175 125.701 218.757 125.625 218.293C125.604 218.183 125.59 218.072 125.581 217.96L125.61 217.569L125.661 216.802L125.704 216.027L125.82 215.253L126.052 213.711L126.668 210.62C126.914 209.599 127.146 208.571 127.37 207.55L128.131 204.481C128.652 202.44 129.159 200.398 129.724 198.364L132.991 186.13C134.019 182.301 135.033 178.457 135.974 174.591C133.186 186.63 129.746 207.63 136.018 219.763C136.018 219.763 133.628 268.547 128.848 270.342C128.848 270.342 99.7613 274.722 89.2017 266.158C85.0227 262.77 80.9668 256.479 77.9756 248.632C74.7774 240.106 73.3139 231.027 73.6709 221.928C74.0278 212.829 76.198 203.892 80.0543 195.642C83.5308 188.121 88.2022 178.225 91.9901 170.979C93.5598 168.395 95.2592 165.892 97.0816 163.479C98.8633 161.047 100.679 158.634 102.528 156.24C104.36 153.851 106.222 151.462 108.083 149.088L113.254 142.558L114.906 143.796L113.848 141.321C113.832 141.254 113.806 141.19 113.769 141.132L113.725 141.031C113.668 140.899 113.578 140.785 113.464 140.698C113.461 140.698 113.457 140.698 113.453 140.697C113.449 140.696 113.446 140.693 113.443 140.691C110.336 136.673 107.19 132.68 104.006 128.71C102.376 126.669 100.71 124.642 99.0444 122.622C97.3569 120.617 95.7056 118.59 93.9818 116.614C92.1929 113.631 93.091 107.254 93.091 107.254C95.8142 95.5915 99.7252 93.637 102.036 93.6298C105.372 97.2294 109.085 100.462 113.11 103.272C116.499 107.254 139.009 128.363 142.594 139.518C142.594 139.518 145.781 147.676 138.415 165.405Z" fill="#1A1A1A"/>
<path d="M145.031 220.929C144.272 221.129 143.491 221.235 142.706 221.242C141.943 221.257 141.181 221.215 140.425 221.116C139.668 221.021 138.92 220.868 138.186 220.66C137.428 220.454 136.7 220.153 136.018 219.764C136.781 219.564 137.566 219.459 138.356 219.45C139.114 219.435 139.872 219.477 140.624 219.576C141.376 219.673 142.12 219.826 142.849 220.033C143.61 220.242 144.343 220.543 145.031 220.929ZM169.214 222.331L174.989 222.167C176.911 222.104 178.837 222.003 180.748 221.905L180.452 222.02C181.369 221.213 182.366 220.502 183.427 219.896C183.962 219.593 184.514 219.319 185.08 219.077C185.656 218.849 186.244 218.654 186.841 218.495C189.255 217.867 191.789 217.86 194.207 218.473C196.586 219.084 198.854 220.07 200.924 221.393C202.993 222.696 204.901 224.239 206.608 225.99L205.863 225.712L208.256 225.428C209.054 225.348 209.828 225.21 210.751 225.199C212.537 225.191 214.284 225.72 215.765 226.718C216.501 227.208 217.158 227.807 217.714 228.495C218.247 229.179 218.679 229.802 219.167 230.459L222.014 234.351C222.115 234.489 222.158 234.662 222.132 234.831C222.106 235 222.014 235.152 221.876 235.253C221.805 235.304 221.724 235.341 221.638 235.362C220.932 235.514 220.274 235.838 219.724 236.306C219.177 236.83 218.736 237.455 218.426 238.146C218.095 238.867 217.854 239.625 217.708 240.403C217.548 241.188 217.458 241.986 217.44 242.787L217.44 242.836C217.439 242.882 217.427 242.927 217.405 242.968C217.203 243.311 216.935 243.611 216.618 243.85C216.345 244.076 216.07 244.285 215.791 244.486C215.233 244.908 214.639 245.28 214.016 245.597C213.347 245.893 212.618 246.026 211.889 245.986L210.886 245.94C210.574 245.91 210.26 245.924 209.952 245.981C209.359 246.109 208.832 246.448 208.47 246.935C208.109 247.44 207.922 248.05 207.938 248.67C207.891 249.971 208.202 251.259 208.836 252.395C210.23 254.65 212.163 256.523 214.461 257.846C216.735 259.232 219.153 260.364 221.674 261.22C221.74 261.243 221.8 261.278 221.852 261.324C221.904 261.369 221.946 261.425 221.977 261.487C222.007 261.549 222.025 261.616 222.03 261.685C222.034 261.754 222.025 261.824 222.002 261.889C221.993 261.916 221.982 261.942 221.968 261.967C221.493 262.866 220.978 263.703 220.454 264.54C219.928 265.374 219.395 266.201 218.853 267.021C217.769 268.662 216.676 270.291 215.542 271.898C215.479 271.987 215.398 272.06 215.303 272.114C215.209 272.167 215.104 272.199 214.996 272.207L214.972 272.208C207.439 272.722 199.901 273.139 192.358 273.461C188.581 273.621 184.813 273.781 181.003 273.767C180.53 273.773 180.044 273.757 179.559 273.742L178.832 273.721L178.025 273.641L177.631 273.595L177.311 273.543C177.1 273.507 176.885 273.473 176.654 273.45C176.204 273.395 175.748 273.343 175.284 273.301C173.436 273.124 171.561 273.01 169.689 272.914C167.815 272.815 165.938 272.765 164.064 272.712C162.194 272.667 160.31 272.635 158.477 272.717C158.019 272.732 157.567 272.776 157.169 272.827C156.969 272.846 156.188 273.077 155.752 273.102C154.755 273.226 153.806 273.269 152.848 273.299C150.938 273.354 149.04 273.344 147.142 273.276C145.244 273.202 143.35 273.071 141.458 272.885C139.555 272.715 137.665 272.422 135.8 272.009C134.042 271.447 132.189 271.247 130.352 271.423C129.902 271.488 129.459 271.598 129.03 271.752C128.585 271.893 128.211 272.122 127.677 272.259C127.602 272.278 127.525 272.283 127.449 272.275C127.358 272.274 127.269 272.248 127.192 272.199C127.117 272.182 126.988 271.989 127.023 271.899C127.027 271.808 127.055 271.72 127.104 271.644C127.25 271.435 127.426 271.249 127.627 271.093C127.997 270.791 128.386 270.512 128.791 270.258C128.813 270.244 128.839 270.24 128.864 270.245C128.889 270.251 128.911 270.266 128.925 270.288C128.938 270.309 128.943 270.334 128.938 270.358C128.933 270.382 128.92 270.404 128.9 270.419C128.525 270.696 128.168 270.996 127.831 271.317C127.669 271.463 127.529 271.631 127.416 271.817C127.405 271.85 127.38 271.902 127.393 271.895C127.386 271.902 127.391 271.898 127.391 271.881C127.381 271.869 127.371 271.872 127.391 271.872C127.416 271.881 127.444 271.884 127.471 271.879C127.513 271.881 127.554 271.875 127.593 271.86C127.967 271.743 128.408 271.466 128.851 271.29C129.3 271.097 129.767 270.95 130.246 270.851C132.16 270.536 134.12 270.626 135.997 271.113C137.833 271.432 139.688 271.633 141.549 271.715C143.418 271.816 145.291 271.86 147.168 271.847C149.041 271.842 150.916 271.815 152.775 271.705C153.701 271.651 154.637 271.579 155.508 271.446C156.014 271.379 156.132 271.305 156.858 271.142C157.356 271.059 157.859 271.001 158.363 270.968C162.213 270.723 165.978 270.784 169.775 270.918C171.671 270.99 173.563 271.081 175.473 271.24C175.949 271.276 176.43 271.325 176.916 271.387C177.154 271.412 177.404 271.45 177.659 271.495L178.037 271.558C178.156 271.575 178.241 271.578 178.345 271.589L178.946 271.648L179.633 271.669C180.09 271.684 180.547 271.7 181.017 271.696C184.751 271.696 188.525 271.601 192.288 271.504C199.819 271.288 207.357 270.98 214.892 270.706L214.323 271.016L217.79 266.29C218.36 265.497 218.922 264.7 219.475 263.898C220.024 263.097 220.571 262.286 221.043 261.469L221.337 262.215C218.777 261.245 216.333 259.994 214.048 258.486C211.799 256.968 209.609 255.168 208.276 252.692C207.608 251.45 207.289 250.05 207.355 248.641C207.339 247.903 207.56 247.18 207.985 246.577C208.431 245.967 209.082 245.539 209.819 245.373C210.174 245.302 210.537 245.281 210.898 245.31L211.917 245.337C212.541 245.355 213.16 245.225 213.723 244.957C214.292 244.644 214.833 244.282 215.34 243.877C215.602 243.677 215.86 243.472 216.096 243.255C216.31 243.077 216.493 242.866 216.639 242.63L216.604 242.811C216.583 241.95 216.64 241.088 216.775 240.237C216.899 239.374 217.128 238.53 217.456 237.723C217.793 236.879 218.291 236.109 218.923 235.456C219.612 234.808 220.455 234.346 221.373 234.113L220.997 235.124L217.99 231.361C217.493 230.748 216.976 230.074 216.497 229.512C216.024 228.963 215.473 228.485 214.861 228.096C213.635 227.321 212.212 226.915 210.762 226.927C210.077 226.933 209.26 227.068 208.461 227.156L206.067 227.438C205.934 227.454 205.798 227.439 205.672 227.393C205.545 227.348 205.43 227.274 205.337 227.177L205.322 227.16C203.734 225.504 201.958 224.039 200.031 222.794C198.123 221.532 196.034 220.569 193.835 219.938C191.654 219.33 189.358 219.256 187.142 219.722C184.912 220.249 182.837 221.288 181.081 222.758L181.058 222.776C180.98 222.838 180.884 222.872 180.785 222.873C178.845 222.9 176.92 222.839 174.99 222.788C173.062 222.733 171.135 222.65 169.21 222.525C169.185 222.523 169.162 222.512 169.145 222.494C169.128 222.475 169.118 222.451 169.119 222.426C169.119 222.401 169.129 222.377 169.147 222.359C169.165 222.342 169.189 222.331 169.214 222.331L169.214 222.331Z" fill="#1A1A1A"/>
<path d="M160.145 253.354C159.689 253.598 159.32 253.976 159.087 254.436C158.883 254.866 158.827 255.351 158.927 255.816C159.023 256.291 159.193 256.748 159.432 257.169C159.685 257.594 159.969 258 160.283 258.382C161.653 259.935 163.166 261.356 164.803 262.625C166.42 263.946 168.127 265.165 169.87 266.341C171.621 267.509 173.423 268.603 175.286 269.682C173.184 269.179 171.156 268.407 169.252 267.384C167.333 266.379 165.516 265.19 163.827 263.833C162.098 262.482 160.576 260.886 159.309 259.095C158.992 258.618 158.723 258.112 158.507 257.582C158.3 257.035 158.186 256.456 158.17 255.871C158.16 255.268 158.357 254.679 158.728 254.202C159.088 253.764 159.588 253.464 160.145 253.354ZM179.469 236.229C179.671 235.949 179.93 235.714 180.229 235.54C180.528 235.367 180.86 235.258 181.204 235.221C181.92 235.17 182.635 235.329 183.261 235.68C184.451 236.382 185.487 237.317 186.306 238.428C187.932 240.475 189.548 242.544 191.073 244.702C192.621 246.862 193.976 249.154 195.122 251.551C195.688 252.769 196.135 254.038 196.457 255.341C196.783 256.646 196.833 258.004 196.603 259.328C196.451 256.678 195.274 254.351 194.041 252.102C193.383 250.993 192.731 249.88 191.998 248.809C191.296 247.722 190.556 246.653 189.801 245.592C188.324 243.449 186.763 241.343 185.325 239.133C184.672 238.064 183.841 237.116 182.867 236.328C182.391 235.952 181.819 235.716 181.216 235.649C180.58 235.606 179.953 235.814 179.469 236.229ZM183.653 271.461C184.83 271.199 185.993 270.876 187.137 270.492C188.227 270.112 189.281 269.636 190.287 269.07C190.799 268.812 191.253 268.467 191.737 268.161C192.183 267.806 192.66 267.48 193.083 267.081C193.972 266.27 194.814 265.41 195.607 264.505C195.321 265.747 194.762 266.91 193.97 267.908C193.185 268.942 192.19 269.799 191.051 270.422C189.929 271.06 188.697 271.482 187.42 271.666C186.164 271.873 184.879 271.803 183.653 271.461Z" fill="#1A1A1A"/>
<path d="M161.34 255.943C162.87 254.312 164.483 252.789 166.123 251.301C167.755 249.804 169.436 248.368 171.116 246.934C172.815 245.521 174.51 244.107 176.244 242.738L181.461 238.619C180.146 240.424 178.67 242.106 177.05 243.644C175.468 245.208 173.806 246.682 172.117 248.121C170.41 249.537 168.682 250.927 166.888 252.235C165.105 253.567 163.253 254.805 161.34 255.943ZM181.368 222.879C181.089 223.14 180.839 223.432 180.624 223.749C180.39 224.082 180.189 224.438 180.022 224.809C179.668 225.582 179.48 226.419 179.469 227.269C179.22 226.403 179.153 225.496 179.272 224.604C179.33 224.142 179.431 223.687 179.573 223.244C179.718 222.776 179.915 222.326 180.16 221.901L180.169 221.887C180.275 221.707 180.448 221.577 180.65 221.525C180.852 221.472 181.067 221.502 181.247 221.608C181.427 221.714 181.558 221.887 181.61 222.089C181.663 222.291 181.634 222.505 181.528 222.685C181.485 222.758 181.431 222.823 181.368 222.879Z" fill="#1A1A1A"/>
<path d="M180.02 240.062C177.711 236.58 175.464 233.06 173.184 229.56L166.449 218.996C166.385 218.895 166.357 218.776 166.368 218.657C166.38 218.539 166.431 218.427 166.514 218.341L166.523 218.332C170.756 213.915 175.109 209.627 179.533 205.399C181.749 203.29 183.992 201.206 186.319 199.206C187.484 198.208 188.655 197.213 189.876 196.271C191.097 195.292 192.392 194.41 193.749 193.631L194.296 193.355L194.907 193.125C195.145 193.062 195.388 193.02 195.632 192.999L196.252 193.009C197.084 193.052 197.902 193.242 198.669 193.568C199.285 193.905 199.95 194.144 200.64 194.274C201.307 194.274 201.959 194.075 202.512 193.703C202.829 193.543 203.127 193.312 203.437 193.12L204.332 192.451C204.945 191.976 205.568 191.515 206.206 191.08C207.484 190.21 208.811 189.424 210.158 188.687C211.503 187.947 212.877 187.269 214.219 186.558C214.878 186.223 215.504 185.826 216.088 185.373C216.151 185.324 216.207 185.266 216.253 185.202C216.31 185.142 216.359 185.074 216.399 185.002C216.496 184.841 216.59 184.679 216.678 184.516C216.858 184.211 216.996 183.882 217.09 183.54C217.129 183.42 217.128 183.29 217.087 183.17C217.056 183.126 217.015 183.09 216.968 183.065C216.92 183.04 216.868 183.027 216.814 183.026C216.459 182.998 216.103 183.01 215.751 183.063C215.004 183.146 214.256 183.272 213.516 183.425C212.776 183.575 212.046 183.765 211.326 183.993C210.623 184.183 209.963 184.51 209.387 184.955L209.379 184.962C209.339 184.998 209.288 185.019 209.235 185.023C209.181 185.026 209.128 185.01 209.084 184.979C209.04 184.948 209.008 184.903 208.994 184.851C208.979 184.8 208.982 184.745 209.003 184.695C209.889 182.591 210.738 180.472 211.552 178.336C212.396 176.225 213.102 174.062 213.667 171.86C213.725 171.593 213.766 171.324 213.792 171.052C213.804 170.931 213.805 170.81 213.794 170.689C213.787 170.638 213.774 170.617 213.768 170.577C213.751 170.542 213.729 170.509 213.703 170.48C213.585 170.276 212.99 170.488 212.577 170.786C211.688 171.45 210.892 172.231 210.212 173.107C208.806 174.879 207.568 176.778 206.515 178.78C206.474 178.857 206.412 178.92 206.337 178.963C206.262 179.006 206.176 179.028 206.09 179.025L206.074 179.025C204.856 178.987 203.625 178.975 202.406 179.005C201.216 179.003 200.029 179.114 198.86 179.337C198.269 179.599 197.657 179.81 197.03 179.967C196.673 179.977 196.316 179.941 195.969 179.86C195.835 179.838 195.703 179.828 195.569 179.82C195.444 179.817 195.319 179.822 195.195 179.833C194.074 179.969 192.999 180.356 192.049 180.966C191.945 181.038 191.846 181.116 191.753 181.2L191.424 181.522C191.173 181.744 190.91 181.952 190.636 182.144C190.114 182.518 189.589 182.856 189.063 183.19C188.025 183.853 186.924 184.491 185.987 185.145L185.843 185.258C185.756 185.321 185.635 185.4 185.538 185.457L185.11 185.687L184.28 186.114L182.631 186.952L179.35 188.642C174.991 190.92 170.694 193.312 166.517 195.886C162.326 198.409 158.313 201.218 154.507 204.292C152.626 205.814 150.881 207.498 149.292 209.323C148.92 209.79 148.512 210.235 148.185 210.729L147.668 211.454C147.503 211.699 147.362 211.955 147.207 212.205C146.594 213.188 146.14 214.262 145.862 215.386C145.409 217.716 145.448 220.114 145.976 222.428C146.465 224.807 147.161 227.138 148.056 229.396C149.865 233.956 152.029 238.366 154.527 242.588C156.994 246.841 159.658 250.979 162.519 255.002C162.525 255.01 162.529 255.019 162.532 255.029C162.534 255.039 162.535 255.049 162.533 255.06C162.532 255.07 162.528 255.079 162.523 255.088C162.518 255.097 162.511 255.104 162.503 255.111C162.486 255.122 162.466 255.127 162.446 255.125C162.427 255.122 162.408 255.112 162.396 255.097C160.852 253.169 159.388 251.18 157.968 249.16C156.549 247.139 155.164 245.09 153.865 242.986C151.204 238.799 148.888 234.401 146.942 229.838C145.978 227.527 145.216 225.136 144.667 222.693C144.054 220.194 143.972 217.594 144.427 215.062C144.716 213.784 145.205 212.559 145.875 211.433C146.039 211.156 146.19 210.868 146.367 210.601L146.916 209.815C147.268 209.278 147.691 208.807 148.083 208.307C149.717 206.396 151.514 204.632 153.454 203.033C161.168 196.668 169.882 191.836 178.666 187.318L181.979 185.655L183.636 184.834L184.455 184.424L184.845 184.22C184.872 184.203 184.901 184.187 184.931 184.175L185.152 184.004C186.244 183.255 187.296 182.682 188.347 182.036C188.868 181.718 189.385 181.397 189.872 181.062C190.105 180.905 190.33 180.735 190.545 180.553L190.883 180.235C191.02 180.114 191.165 180.004 191.317 179.903C191.883 179.536 192.496 179.245 193.138 179.038C193.77 178.821 194.426 178.679 195.091 178.614C195.273 178.6 195.457 178.597 195.64 178.606C195.814 178.619 195.989 178.637 196.159 178.667C196.411 178.733 196.668 178.771 196.928 178.781C197.169 178.747 197.402 178.676 197.621 178.57C197.763 178.513 197.849 178.456 198.043 178.383C198.216 178.309 198.397 178.253 198.581 178.216C199.841 178.002 201.118 177.914 202.395 177.951C203.643 177.955 204.878 178 206.123 178.074L205.682 178.318C206.819 176.3 208.136 174.389 209.618 172.609C210.364 171.694 211.233 170.885 212.199 170.205C212.466 170.028 212.757 169.89 213.063 169.796C213.243 169.741 213.432 169.723 213.619 169.743C213.843 169.769 214.048 169.878 214.194 170.05C214.331 170.209 214.415 170.407 214.433 170.616C214.446 170.78 214.442 170.945 214.422 171.109C214.387 171.406 214.335 171.701 214.264 171.992C213.654 174.211 212.914 176.393 212.05 178.527C211.218 180.662 210.347 182.78 209.437 184.882L209.053 184.622C209.683 184.125 210.403 183.756 211.173 183.533C211.907 183.291 212.653 183.087 213.409 182.924C214.162 182.76 214.919 182.622 215.69 182.528C216.092 182.462 216.502 182.447 216.908 182.482C217.046 182.495 217.178 182.541 217.295 182.615C217.411 182.688 217.509 182.789 217.58 182.907C217.689 183.141 217.712 183.406 217.644 183.655C217.545 184.052 217.392 184.434 217.189 184.79C217.098 184.964 217.002 185.133 216.904 185.3C216.793 185.49 216.654 185.661 216.491 185.808C215.878 186.302 215.217 186.735 214.519 187.1C213.183 187.857 211.839 188.573 210.53 189.344C209.22 190.111 207.94 190.922 206.719 191.808C206.108 192.251 205.518 192.717 204.937 193.194L204.019 193.923C203.686 194.143 203.384 194.391 203.025 194.589C202.309 195.084 201.461 195.353 200.59 195.362C200.147 195.339 199.71 195.241 199.299 195.073C198.92 194.926 198.573 194.765 198.239 194.64C197.591 194.383 196.902 194.244 196.206 194.229L195.68 194.234C195.547 194.256 195.414 194.285 195.284 194.32L194.828 194.507L194.359 194.759C193.08 195.524 191.862 196.385 190.714 197.335C189.538 198.284 188.375 199.257 187.227 200.254C184.94 202.255 182.681 204.294 180.449 206.372C175.982 210.518 171.631 214.8 167.3 219.09L167.373 218.425L173.813 229.172C175.925 232.776 178.069 236.359 180.152 239.98C180.162 239.998 180.165 240.019 180.16 240.038C180.155 240.058 180.143 240.075 180.126 240.085C180.109 240.096 180.088 240.099 180.068 240.095C180.048 240.091 180.031 240.079 180.02 240.062L180.02 240.062Z" fill="#1A1A1A"/>
<path d="M212.358 225.82C211.351 223.9 210.524 221.891 209.889 219.819C209.233 217.734 208.785 215.59 208.55 213.417C208.303 211.212 208.375 208.983 208.766 206.799C209.181 204.663 209.633 202.591 210.012 200.474C210.423 198.37 210.795 196.259 211.145 194.145C211.249 193.601 211.289 193.134 211.456 192.484C211.627 191.88 211.91 191.314 212.292 190.815C212.672 190.32 213.143 189.902 213.68 189.583C214.256 189.264 214.715 189.113 215.21 188.881C216.19 188.451 217.158 187.994 218.127 187.538L219.575 186.84L220.294 186.481L220.647 186.3C220.72 186.261 220.787 186.211 220.845 186.152C220.949 185.986 220.996 185.791 220.982 185.596C220.967 185.4 220.89 185.215 220.763 185.066C220.644 184.872 220.476 184.712 220.276 184.602C220.077 184.491 219.852 184.434 219.624 184.436C218.559 184.44 217.514 184.722 216.592 185.253C217.457 184.564 218.499 184.132 219.598 184.007C219.908 183.966 220.224 184.01 220.511 184.134C220.796 184.266 221.047 184.461 221.245 184.705C221.453 184.953 221.596 185.25 221.661 185.567C221.699 185.746 221.7 185.931 221.665 186.111C221.629 186.29 221.557 186.461 221.454 186.612C221.343 186.762 221.205 186.891 221.046 186.99L220.697 187.205L220.001 187.624L218.597 188.441C217.656 188.978 216.696 189.48 215.732 189.975C215.264 190.224 214.715 190.463 214.364 190.693C213.982 190.941 213.65 191.258 213.384 191.628C213.122 191.996 212.932 192.41 212.824 192.848C212.732 193.243 212.677 193.853 212.599 194.369C212.291 196.508 211.927 198.638 211.538 200.763C211.129 202.877 210.659 205.01 210.204 207.088C209.783 209.139 209.632 211.235 209.755 213.324C210.046 217.589 210.922 221.794 212.358 225.82Z" fill="#1A1A1A"/>
<path d="M230.803 185.375H221.224C221.121 185.375 221.023 185.334 220.95 185.262C220.877 185.189 220.836 185.09 220.836 184.987C220.836 184.884 220.877 184.786 220.95 184.713C221.023 184.64 221.121 184.599 221.224 184.599H230.311L229.3 180.354H211.204C211.101 180.354 211.002 180.313 210.929 180.24C210.856 180.168 210.815 180.069 210.815 179.966C210.815 179.863 210.856 179.764 210.929 179.691C211.002 179.619 211.101 179.578 211.204 179.578H229.607C229.695 179.578 229.779 179.607 229.848 179.661C229.917 179.715 229.965 179.791 229.985 179.876L231.18 184.897C231.194 184.954 231.195 185.014 231.182 185.071C231.169 185.128 231.144 185.182 231.108 185.228C231.071 185.274 231.025 185.311 230.972 185.337C230.919 185.362 230.861 185.376 230.803 185.375V185.375Z" fill="#1A1A1A"/>
<path d="M220.178 179.966C220.132 179.587 219.981 179.228 219.744 178.93C219.529 178.692 219.268 178.502 218.975 178.372C218.327 178.116 217.646 177.955 216.952 177.894C216.586 177.844 216.216 177.796 215.831 177.771C215.641 177.75 215.45 177.733 215.258 177.704C215.064 177.69 214.869 177.676 214.673 177.655C213.855 177.582 213.044 177.448 212.247 177.253C212.99 176.854 213.794 176.578 214.625 176.435C215.038 176.349 215.457 176.304 215.878 176.299C216.09 176.292 216.3 176.285 216.515 176.291L217.161 176.356C218.081 176.44 218.956 176.795 219.675 177.376C220.051 177.71 220.319 178.149 220.444 178.637C220.494 178.865 220.496 179.101 220.45 179.329C220.404 179.558 220.311 179.775 220.178 179.966ZM203.279 193.834C202.574 196.099 201.756 198.306 200.909 200.498C200.073 202.693 199.175 204.859 198.32 207.033C197.876 208.112 197.453 209.198 197.062 210.281C196.861 210.821 196.674 211.359 196.531 211.886C196.47 212.122 196.424 212.362 196.393 212.605C196.384 212.875 196.38 213.15 196.395 213.432C196.527 215.698 196.959 218.029 197.302 220.368C196.299 218.196 195.588 215.902 195.187 213.545C195.14 213.242 195.111 212.93 195.089 212.612C195.098 212.269 195.136 211.927 195.202 211.59C195.329 210.972 195.493 210.388 195.666 209.813C196.031 208.67 196.451 207.561 196.878 206.457C197.773 204.266 198.738 202.113 199.804 200.009C200.851 197.89 202.011 195.829 203.279 193.834ZM209.187 208.872C208.961 209.49 208.602 210.051 208.137 210.516C207.669 211 207.107 211.384 206.486 211.644C206.169 211.768 205.841 211.862 205.506 211.922C205.169 211.969 204.828 211.974 204.49 211.939C203.829 211.877 203.194 211.648 202.646 211.272C203.26 211.35 203.88 211.37 204.498 211.333C205.082 211.293 205.655 211.156 206.193 210.925C207.305 210.424 208.318 209.728 209.187 208.872ZM167.415 219.302C166.773 219.677 166.127 220.046 165.472 220.398C164.824 220.761 164.154 221.083 163.465 221.361C164.006 220.87 164.516 220.345 164.99 219.789C165.474 219.242 165.944 218.683 166.408 218.119C166.474 218.039 166.555 217.972 166.646 217.923C166.738 217.874 166.838 217.844 166.941 217.834C167.045 217.824 167.149 217.834 167.248 217.864C167.348 217.895 167.44 217.944 167.52 218.01C167.6 218.076 167.667 218.157 167.715 218.249C167.764 218.34 167.794 218.441 167.804 218.544C167.814 218.647 167.804 218.751 167.773 218.851C167.743 218.95 167.693 219.042 167.627 219.122C167.567 219.194 167.495 219.255 167.415 219.302ZM217.4 245.723C218.401 246.917 219.291 248.131 220.276 249.26C220.755 249.83 221.265 250.373 221.805 250.886C222.353 251.405 222.954 251.865 223.598 252.259C222.812 252.136 222.068 251.827 221.426 251.358C220.78 250.904 220.196 250.369 219.687 249.766C219.18 249.173 218.729 248.533 218.343 247.854C217.946 247.184 217.629 246.468 217.4 245.723Z" fill="#1A1A1A"/>
<path d="M221.506 262.106C221.405 262.106 221.309 262.067 221.236 261.997C221.164 261.927 221.121 261.832 221.118 261.732C221.113 261.609 221.084 258.7 227.9 257.256C228 257.236 228.104 257.255 228.19 257.31C228.276 257.365 228.337 257.452 228.359 257.551C228.52 258.075 228.808 258.551 229.198 258.936C229.588 259.32 230.068 259.603 230.594 259.756C230.915 259.863 231.25 260.012 231.574 260.157C232.471 260.555 233.397 260.965 234.117 260.56C234.985 260.074 235.606 258.437 235.962 255.694C237.634 242.856 246.332 238.294 248.489 237.351C245.837 234.078 239.294 233.933 236.531 234.024L236.347 234.029C235.921 234.029 235.606 233.645 235.086 233.008C234.529 232.294 233.902 231.64 233.212 231.053C232.917 230.811 232.768 230.869 232.717 230.889C232.159 231.106 231.701 232.718 231.553 233.793C231.54 233.89 231.49 233.98 231.414 234.042C231.338 234.104 231.24 234.135 231.142 234.128C227.942 233.847 224.717 234.177 221.64 235.101C221.543 235.136 221.437 235.132 221.343 235.089C221.249 235.046 221.177 234.967 221.141 234.87C221.106 234.774 221.11 234.667 221.153 234.573C221.196 234.48 221.275 234.407 221.371 234.372C224.433 233.431 227.646 233.078 230.839 233.331C230.993 232.454 231.435 230.556 232.434 230.165C232.652 230.088 232.887 230.074 233.112 230.125C233.337 230.176 233.543 230.29 233.706 230.454C234.435 231.072 235.099 231.763 235.688 232.517C235.884 232.792 236.116 233.041 236.378 233.256L236.504 233.248C239.503 233.147 246.771 233.335 249.422 237.308C249.455 237.358 249.476 237.414 249.484 237.473C249.491 237.532 249.485 237.592 249.466 237.649C249.447 237.705 249.415 237.756 249.373 237.798C249.331 237.84 249.28 237.872 249.224 237.892C249.118 237.928 238.57 241.684 236.733 255.794C236.331 258.877 235.621 260.607 234.497 261.237C233.435 261.833 232.278 261.319 231.259 260.866C230.937 260.723 230.633 260.588 230.348 260.493C229.759 260.312 229.218 260.002 228.764 259.587C228.31 259.171 227.954 258.66 227.721 258.09C221.973 259.394 221.893 261.68 221.894 261.703C221.896 261.754 221.888 261.805 221.87 261.853C221.852 261.901 221.825 261.945 221.79 261.982C221.756 262.019 221.714 262.049 221.667 262.071C221.621 262.092 221.571 262.104 221.52 262.106H221.506Z" fill="#1A1A1A"/>
<path d="M221.506 261.717C221.506 261.717 221.406 259.029 227.98 257.635C228.157 258.224 228.477 258.759 228.911 259.194C229.346 259.628 229.882 259.948 230.471 260.124C232.563 260.821 235.346 263.438 236.348 255.744C238.24 241.207 249.098 237.524 249.098 237.524C259.956 240.212 264.438 247.779 267.327 250.865C270.216 253.952 279.779 258.034 289.939 262.713C300.1 267.393 300 271.473 300 271.473L214.931 271.461C214.931 271.461 220.111 264.306 221.506 261.717ZM227.277 233.722C227.567 234.321 227.714 234.98 227.705 235.645C227.728 236.313 227.581 236.977 227.277 237.572C227.04 236.959 226.922 236.307 226.929 235.65C226.911 234.99 227.03 234.334 227.277 233.722ZM236.746 239.286C237.048 239.276 237.335 239.148 237.545 238.931C237.755 238.714 237.872 238.423 237.872 238.121C237.872 237.819 237.755 237.528 237.545 237.311C237.335 237.094 237.048 236.967 236.746 236.956C236.444 236.967 236.158 237.094 235.948 237.311C235.738 237.528 235.62 237.819 235.62 238.121C235.62 238.423 235.738 238.714 235.948 238.931C236.158 239.148 236.444 239.276 236.746 239.286ZM238.738 235.43C238.969 235.475 239.187 235.568 239.38 235.702C239.572 235.836 239.735 236.008 239.857 236.208C240.101 236.585 240.241 237.019 240.263 237.467C240.285 237.901 240.201 238.334 240.019 238.728C239.831 239.138 239.523 239.481 239.137 239.714C238.984 239.331 238.876 238.933 238.814 238.525C238.76 238.201 238.726 237.875 238.712 237.547C238.694 237.237 238.698 236.935 238.706 236.604C238.716 236.266 238.737 235.918 238.738 235.43ZM11.1334 32.9087C11.0754 31.8011 11.061 30.6936 11.0827 29.586C11.1045 28.9707 11.1117 28.3553 11.1624 27.74L11.2493 26.4008C12.5312 26.5021 13.8132 26.6035 15.0952 26.6469L19.3827 26.7772C20.8168 26.8279 22.2436 26.8351 23.6776 26.8062C24.8727 26.7845 26.0677 26.7338 27.2627 26.6831C27.3279 27.5663 27.4076 28.4639 27.5017 29.3905L27.6973 31.2292C27.69 31.6201 27.6756 32.0111 27.6611 32.402L23.6776 32.5178C22.8302 32.5467 21.9828 32.6047 21.1427 32.6698C20.4546 32.6264 19.7738 32.5974 19.1003 32.5757C17.7246 32.5128 16.3466 32.5225 14.972 32.6047C13.7118 32.677 12.4299 32.8218 11.1334 32.9087ZM23.6776 34.0307L27.9652 34.161C29.392 34.2045 30.826 34.2117 32.2529 34.1828C33.4479 34.161 34.6429 34.1176 35.8452 34.0597C35.9031 34.9501 35.9828 35.8405 36.0769 36.7743L36.4825 40.5965C34.8892 40.4228 33.3972 40.2997 31.9414 40.1912C30.4857 40.0898 29.0661 39.9957 27.6755 39.9595C26.3 39.8943 24.922 39.9015 23.5472 39.9813C22.287 40.0609 21.0123 40.2057 19.7087 40.2925C19.6507 39.1849 19.6434 38.0702 19.6579 36.9626C19.6797 36.3473 19.6941 35.7319 19.7376 35.1166L19.8173 33.9656C20.3388 33.9511 20.8602 33.9221 21.3745 33.9005C22.1422 33.9511 22.9099 34.0018 23.6776 34.0307ZM28.2695 32.3803C28.2622 32.0907 28.2405 31.8011 28.2405 31.5116C28.3057 30.9469 28.3636 30.3678 28.4288 29.7742C28.5374 28.6883 28.6243 27.559 28.6895 26.4225C29.8773 26.5166 31.0651 26.6035 32.2529 26.6469L36.5405 26.7772C37.9745 26.8279 39.4013 26.8351 40.8354 26.8062C42.0304 26.7845 43.2254 26.7338 44.4205 26.6831C44.4856 27.5663 44.5581 28.4639 44.6595 29.3905L45.0578 33.2127C43.4717 33.0462 41.9797 32.9232 40.5167 32.8073C39.2927 32.7205 38.0977 32.6553 36.9171 32.6047C36.8249 32.5564 36.7239 32.5269 36.6202 32.5178H36.5405C35.1137 32.4454 33.6797 32.3875 32.2529 32.3658C30.9275 32.3368 29.5948 32.344 28.2695 32.3803Z" fill="#1A1A1A"/>
<path d="M37.6777 123.556C37.5835 122.629 37.5039 121.732 37.4459 120.849C36.2436 120.906 35.0486 120.95 33.8535 120.972C32.4268 121.001 30.9927 120.993 29.566 120.943L25.2784 120.812C23.9964 120.769 22.7072 120.668 21.4253 120.566L21.3383 121.905C21.2949 122.521 21.2804 123.136 21.2587 123.751C21.2442 124.859 21.2514 125.967 21.3093 127.074C22.613 126.987 23.8877 126.85 25.148 126.77C26.5226 126.688 27.9006 126.678 29.2762 126.741C29.9498 126.763 30.6306 126.792 31.3186 126.835C32.166 126.77 33.0062 126.712 33.8535 126.683L37.837 126.567C37.8515 126.176 37.866 125.786 37.8732 125.395L37.6777 123.556ZM46.2602 130.94C46.1588 130.006 46.0863 129.115 46.0211 128.225C44.8261 128.283 43.6311 128.326 42.4361 128.348C41.002 128.377 39.5752 128.377 38.1412 128.326L33.8535 128.196C33.0858 128.167 32.3181 128.117 31.5577 128.066C31.0362 128.088 30.522 128.117 29.9933 128.131L29.9208 129.282C29.8701 129.897 29.8629 130.513 29.8412 131.128C29.8194 132.243 29.8339 133.35 29.8919 134.458C31.1883 134.371 32.463 134.226 33.7232 134.147C35.098 134.067 36.476 134.06 37.8515 134.125C39.2421 134.161 40.6616 134.255 42.1174 134.357C43.5804 134.465 45.0724 134.588 46.6585 134.762L46.2602 130.94ZM54.8354 123.556C54.7413 122.629 54.6616 121.732 54.5964 120.849C53.4014 120.906 52.2064 120.95 51.0113 120.972C49.5845 121.001 48.1505 120.993 46.7237 120.943L42.4361 120.812C41.2411 120.776 40.0533 120.682 38.8655 120.588C38.8003 121.724 38.7134 122.854 38.6047 123.94C38.5468 124.533 38.4816 125.112 38.4164 125.677C38.4236 125.967 38.4381 126.256 38.4454 126.546C39.778 126.509 41.1034 126.502 42.4361 126.531C43.8629 126.553 45.2897 126.611 46.7237 126.683H46.7961C46.8998 126.692 47.0008 126.722 47.0931 126.77C48.2736 126.821 49.4686 126.886 50.6926 126.973C52.0687 127.081 53.4811 127.197 54.9658 127.349C55.002 126.698 55.0237 126.046 55.0309 125.387L54.8354 123.556ZM63.599 118.213C63.5563 117.595 63.4814 116.979 63.3745 116.368C63.2731 115.752 63.1645 115.137 63.121 114.522C63.092 114.174 63.0775 113.819 63.0558 113.472C61.897 113.523 60.7454 113.566 59.5866 113.588C58.1598 113.617 56.7306 113.609 55.299 113.566L51.0113 113.429C49.7294 113.385 48.4475 113.284 47.1655 113.182L47.0714 114.522C47.0279 115.137 47.0135 115.752 46.999 116.368C46.9772 117.301 46.9917 118.235 47.0279 119.169C48.3533 119.126 49.686 119.126 51.0113 119.147C52.4382 119.176 53.8722 119.227 55.299 119.299L55.3787 119.307C55.4829 119.313 55.5843 119.343 55.6756 119.394C56.1102 119.408 56.5447 119.423 56.9865 119.451C57.7325 119.394 58.4785 119.336 59.2245 119.307L63.1572 119.176C63.3093 119.169 63.4614 119.169 63.6135 119.169C63.6208 118.851 63.6135 118.532 63.599 118.213ZM70.5229 123.549C70.4288 122.629 70.3491 121.746 70.2839 120.87C69.2193 120.921 68.1474 120.957 67.0827 120.979C65.7718 120.993 64.4609 120.986 63.1572 120.943L59.2244 120.805C58.5581 120.783 57.8845 120.74 57.211 120.689C56.8126 120.704 56.4143 120.725 56.016 120.74C55.9508 121.826 55.8711 122.904 55.7624 123.94C55.7045 124.533 55.6393 125.112 55.5741 125.677C55.5814 126.14 55.6031 126.611 55.6248 127.074C56.8054 126.987 57.957 126.842 59.1013 126.77C60.3551 126.688 61.6126 126.678 62.8674 126.741C64.1349 126.785 65.4314 126.871 66.764 126.973C68.1039 127.089 69.4727 127.212 70.9502 127.378L70.5229 123.549ZM67.7635 113.472C66.7438 113.582 65.7178 113.623 64.6926 113.595C64.6781 113.906 64.6564 114.218 64.6347 114.522C64.5912 115.137 64.4826 115.752 64.3812 116.368C64.3523 116.541 64.3305 116.722 64.3015 116.896C64.2581 117.352 64.2074 117.808 64.1567 118.25C64.1422 118.554 64.1349 118.85 64.1422 119.155C65.1271 119.133 66.1049 119.126 67.0827 119.14C68.3936 119.169 69.6973 119.205 71.0082 119.278L71.0879 119.285C71.1976 119.291 71.3047 119.321 71.4012 119.374C71.4977 119.426 71.5812 119.5 71.6455 119.589V112.762C70.3767 113.12 69.0769 113.358 67.7635 113.472V113.472ZM17.1666 196.952C17.0724 196.019 16.9928 195.128 16.9276 194.238C15.7326 194.296 14.5375 194.339 13.3425 194.361C11.9084 194.39 10.4792 194.383 9.05486 194.339L4.76 194.202C3.47804 194.158 2.19613 194.057 0.914168 193.956L0.827232 195.295C0.776533 195.91 0.769289 196.525 0.747587 197.141C0.725831 198.248 0.740332 199.356 0.798281 200.471C1.77601 200.398 2.74651 200.311 3.70255 200.239C3.85465 200.217 4.01398 200.21 4.17332 200.196C4.32544 200.188 4.48476 200.167 4.63686 200.159H4.76722C4.79332 200.153 4.82012 200.151 4.84688 200.152C4.93381 200.145 5.02794 200.145 5.11485 200.145C6.31715 200.087 7.52666 200.08 8.76516 200.138C9.61979 200.159 10.4889 200.203 11.3652 200.261C12.0243 200.217 12.6834 200.174 13.3425 200.152L17.4925 200.022L17.1666 196.952ZM17.1666 211.785C17.0724 210.851 16.9928 209.961 16.9276 209.078C15.7326 209.129 14.5375 209.179 13.3425 209.194C11.9084 209.223 10.4817 209.223 9.05486 209.172L8.58412 209.157C7.27164 209.249 5.95382 209.232 4.64414 209.107C4.17335 209.071 3.70982 209.02 3.24628 208.955C2.47136 208.911 1.68913 208.853 0.914168 208.796L0.827232 210.135C0.776533 210.75 0.769289 211.365 0.747587 211.981C0.725831 213.088 0.740332 214.196 0.798281 215.303C2.09469 215.217 3.37665 215.072 4.63686 214.999C6.01137 214.914 7.38958 214.904 8.76516 214.97C10.1557 215.014 11.5681 215.101 13.0238 215.202C14.4868 215.311 15.9788 215.434 17.5722 215.607L17.1666 211.785ZM25.7418 204.401C25.6477 203.475 25.568 202.577 25.5101 201.694C24.315 201.752 23.1128 201.795 21.9177 201.817C20.4909 201.846 19.0569 201.839 17.6301 201.788L13.3425 201.658C12.3647 201.629 11.3942 201.556 10.4165 201.484C10.105 201.499 9.80087 201.513 9.48216 201.52L9.40245 202.751C9.388 202.99 9.37351 203.236 9.36626 203.475C9.39526 203.851 9.4387 204.22 9.49661 204.597C9.58354 205.212 9.69217 205.828 9.7574 206.443C9.7936 206.754 9.81532 207.073 9.83707 207.384C11.0031 207.362 12.1764 207.355 13.3425 207.377C14.7693 207.398 16.2033 207.456 17.6301 207.529L17.7098 207.536C17.8135 207.54 17.9149 207.567 18.0067 207.616C19.18 207.666 20.3751 207.739 21.6063 207.826C23.0621 207.934 24.5541 208.057 26.1474 208.224L25.7418 204.401ZM37.6777 123.556C37.5835 122.629 37.5039 121.732 37.4459 120.848C36.2436 120.906 35.0486 120.95 33.8535 120.972C32.4268 121.001 30.9927 120.993 29.566 120.943L25.2784 120.812C23.9964 120.769 22.7072 120.667 21.4253 120.566L21.3383 121.905C21.2949 122.521 21.2804 123.136 21.2587 123.751C21.2442 124.859 21.2514 125.966 21.3093 127.074C22.613 126.987 23.8877 126.85 25.148 126.77C26.5226 126.688 27.9006 126.678 29.2762 126.741C29.9498 126.763 30.6306 126.792 31.3186 126.835C32.166 126.77 33.0062 126.712 33.8535 126.683L37.837 126.567C37.8515 126.176 37.866 125.786 37.8732 125.395L37.6777 123.556ZM46.2602 130.94C46.1588 130.006 46.0863 129.115 46.0211 128.225C44.8261 128.283 43.6311 128.326 42.4361 128.348C41.002 128.377 39.5752 128.377 38.1412 128.326L33.8535 128.196C33.0858 128.167 32.3181 128.116 31.5577 128.066C31.0362 128.088 30.522 128.117 29.9933 128.131L29.9208 129.282C29.8701 129.897 29.8629 130.513 29.8412 131.128C29.8194 132.243 29.8339 133.35 29.8919 134.458C31.1883 134.371 32.463 134.226 33.7232 134.147C35.098 134.067 36.476 134.06 37.8515 134.125C39.2421 134.161 40.6616 134.255 42.1174 134.357C43.5804 134.465 45.0724 134.588 46.6585 134.762L46.2602 130.94ZM54.8354 123.556C54.7413 122.629 54.6616 121.732 54.5964 120.848C53.4014 120.906 52.2064 120.95 51.0113 120.972C49.5845 121.001 48.1505 120.993 46.7237 120.943L42.4361 120.812C41.2411 120.776 40.0533 120.682 38.8655 120.588C38.8003 121.724 38.7134 122.854 38.6047 123.94C38.5468 124.533 38.4816 125.112 38.4164 125.677C38.4236 125.966 38.4381 126.256 38.4454 126.546C39.778 126.509 41.1034 126.502 42.4361 126.531C43.8629 126.553 45.2897 126.611 46.7237 126.683H46.7961C46.8998 126.692 47.0008 126.722 47.0931 126.77C48.2736 126.821 49.4686 126.886 50.6926 126.973C52.0687 127.081 53.4811 127.197 54.9658 127.349C55.002 126.698 55.0237 126.046 55.0309 125.387L54.8354 123.556ZM63.599 118.213C63.5563 117.595 63.4814 116.978 63.3745 116.368C63.2731 115.752 63.1645 115.137 63.121 114.522C63.092 114.174 63.0775 113.819 63.0558 113.472C61.897 113.523 60.7454 113.566 59.5866 113.588C58.1598 113.617 56.7306 113.609 55.299 113.566L51.0113 113.428C49.7294 113.385 48.4475 113.284 47.1655 113.182L47.0714 114.522C47.0279 115.137 47.0135 115.752 46.999 116.368C46.9772 117.301 46.9917 118.235 47.0279 119.169C48.3533 119.126 49.686 119.126 51.0113 119.147C52.4382 119.176 53.8722 119.227 55.299 119.299L55.3787 119.307C55.4829 119.313 55.5843 119.343 55.6756 119.393C56.1102 119.408 56.5447 119.422 56.9865 119.451C57.7325 119.393 58.4785 119.336 59.2245 119.307L63.1572 119.176C63.3093 119.169 63.4614 119.169 63.6135 119.169C63.6208 118.851 63.6135 118.532 63.599 118.213V118.213ZM70.5229 123.549C70.4288 122.629 70.3491 121.746 70.2839 120.87C69.2193 120.921 68.1474 120.957 67.0827 120.979C65.7718 120.993 64.4609 120.986 63.1572 120.943L59.2244 120.805C58.5581 120.783 57.8845 120.74 57.211 120.689C56.8126 120.704 56.4143 120.725 56.016 120.74C55.9508 121.826 55.8711 122.904 55.7624 123.94C55.7045 124.533 55.6393 125.112 55.5741 125.677C55.5814 126.14 55.6031 126.611 55.6248 127.074C56.8054 126.987 57.957 126.842 59.1013 126.77C60.3551 126.688 61.6126 126.678 62.8674 126.741C64.1349 126.785 65.4314 126.871 66.764 126.973C68.1039 127.089 69.4727 127.212 70.9502 127.378L70.5229 123.549ZM17.1666 196.952C17.0724 196.019 16.9928 195.128 16.9276 194.238C15.7326 194.296 14.5375 194.339 13.3425 194.361C11.9084 194.39 10.4792 194.383 9.05486 194.339L4.76 194.202C3.47804 194.158 2.19613 194.057 0.914168 193.956L0.827232 195.295C0.776533 195.91 0.769289 196.525 0.747587 197.141C0.725831 198.248 0.740332 199.356 0.798281 200.471C1.77601 200.398 2.74651 200.311 3.70255 200.239C3.85465 200.217 4.01398 200.21 4.17332 200.196C4.32544 200.188 4.48476 200.167 4.63686 200.159H4.76722C4.79332 200.153 4.82012 200.151 4.84688 200.152C4.93381 200.145 5.02794 200.145 5.11485 200.145C6.31715 200.087 7.52666 200.08 8.76516 200.138C9.61979 200.159 10.4889 200.203 11.3652 200.261C12.0243 200.217 12.6834 200.174 13.3425 200.152L17.4925 200.022L17.1666 196.952ZM17.1666 211.785C17.0724 210.851 16.9928 209.961 16.9276 209.078C15.7326 209.129 14.5375 209.179 13.3425 209.194C11.9084 209.223 10.4817 209.223 9.05486 209.172L8.58412 209.157C7.27164 209.249 5.95382 209.232 4.64414 209.107C4.17335 209.071 3.70982 209.02 3.24628 208.955C2.47136 208.911 1.68913 208.853 0.914168 208.796L0.827232 210.135C0.776533 210.75 0.769289 211.365 0.747587 211.981C0.725831 213.088 0.740332 214.196 0.798281 215.303C2.09469 215.217 3.37665 215.072 4.63686 214.999C6.01137 214.914 7.38958 214.904 8.76516 214.97C10.1557 215.014 11.5681 215.101 13.0238 215.202C14.4868 215.311 15.9788 215.434 17.5722 215.607L17.1666 211.785ZM25.7418 204.401C25.6477 203.475 25.568 202.577 25.5101 201.694C24.315 201.752 23.1128 201.795 21.9177 201.817C20.4909 201.846 19.0569 201.839 17.6301 201.788L13.3425 201.658C12.3647 201.629 11.3942 201.556 10.4165 201.484C10.105 201.499 9.80087 201.513 9.48216 201.52L9.40245 202.751C9.388 202.99 9.37351 203.236 9.36626 203.475C9.39526 203.851 9.4387 204.22 9.49661 204.597C9.58354 205.212 9.69217 205.828 9.7574 206.443C9.7936 206.754 9.81532 207.073 9.83707 207.384C11.0031 207.362 12.1764 207.355 13.3425 207.377C14.7693 207.398 16.2033 207.456 17.6301 207.529L17.7098 207.536C17.8135 207.54 17.9149 207.567 18.0067 207.616C19.18 207.666 20.3751 207.739 21.6063 207.826C23.0621 207.934 24.5541 208.057 26.1474 208.224L25.7418 204.401ZM37.6777 123.556C37.5835 122.629 37.5039 121.732 37.4459 120.848C36.2436 120.906 35.0486 120.95 33.8535 120.972C32.4268 121.001 30.9927 120.993 29.566 120.943L25.2784 120.812C23.9964 120.769 22.7072 120.667 21.4253 120.566L21.3383 121.905C21.2949 122.521 21.2804 123.136 21.2587 123.751C21.2442 124.859 21.2514 125.966 21.3093 127.074C22.613 126.987 23.8877 126.85 25.148 126.77C26.5226 126.688 27.9006 126.678 29.2762 126.741C29.9498 126.763 30.6306 126.792 31.3186 126.835C32.166 126.77 33.0062 126.712 33.8535 126.683L37.837 126.567C37.8515 126.176 37.866 125.786 37.8732 125.395L37.6777 123.556ZM46.2602 130.94C46.1588 130.006 46.0863 129.115 46.0211 128.225C44.8261 128.283 43.6311 128.326 42.4361 128.348C41.002 128.377 39.5752 128.377 38.1412 128.326L33.8535 128.196C33.0858 128.167 32.3181 128.116 31.5577 128.066C31.0362 128.088 30.522 128.117 29.9933 128.131L29.9208 129.282C29.8701 129.897 29.8629 130.513 29.8412 131.128C29.8194 132.243 29.8339 133.35 29.8919 134.458C31.1883 134.371 32.463 134.226 33.7232 134.147C35.098 134.067 36.476 134.06 37.8515 134.125C39.2421 134.161 40.6616 134.255 42.1174 134.357C43.5804 134.465 45.0724 134.588 46.6585 134.762L46.2602 130.94ZM54.0242 268.858C53.9228 267.924 53.8504 267.034 53.7852 266.143C52.5902 266.201 51.3952 266.245 50.1929 266.266C48.7661 266.295 47.3369 266.288 45.9053 266.245L41.6177 266.107C40.3357 266.064 39.0538 265.962 37.7719 265.861L37.6849 267.2C37.6342 267.815 37.627 268.431 37.6052 269.046C37.5835 270.154 37.598 271.261 37.6559 272.376C38.9524 272.282 40.227 272.144 41.4873 272.065C42.8619 271.981 44.2401 271.974 45.6156 272.043C47.0062 272.079 48.4257 272.173 49.8815 272.275C51.2576 272.376 52.6627 272.492 54.1474 272.651C54.1908 272 54.2053 271.341 54.2126 270.689L54.0242 268.858ZM54.8354 123.556C54.7413 122.629 54.6616 121.732 54.5964 120.848C53.4013 120.906 52.2063 120.95 51.0113 120.972C49.5845 121 48.1505 120.993 46.7237 120.943L42.4361 120.812C41.241 120.776 40.0532 120.682 38.8655 120.588C38.8003 121.724 38.7134 122.854 38.6047 123.94C38.5468 124.533 38.4816 125.112 38.4164 125.677C38.4236 125.966 38.4381 126.256 38.4454 126.546C39.778 126.509 41.1034 126.502 42.4361 126.531C43.8628 126.553 45.2897 126.611 46.7237 126.683H46.7961C46.8998 126.692 47.0008 126.722 47.093 126.77C48.2736 126.821 49.4686 126.886 50.6926 126.973C52.0687 127.081 53.481 127.197 54.9658 127.349C55.002 126.698 55.0237 126.046 55.0309 125.387L54.8354 123.556ZM62.5995 261.329C62.5054 260.395 62.4257 259.505 62.3605 258.615C61.1655 258.673 59.9704 258.716 58.7754 258.738C57.3486 258.767 55.9146 258.759 54.4878 258.716L50.2002 258.578C48.911 258.535 47.6291 258.434 46.3471 258.332L46.2602 259.672C46.2167 260.287 46.2022 260.902 46.1805 261.518C46.166 262.502 46.1805 263.487 46.2167 264.464C47.5421 264.428 48.8675 264.42 50.1929 264.449C50.6782 264.457 51.1562 264.471 51.6342 264.486C52.4816 264.471 53.329 264.471 54.1981 264.514C55.2483 264.543 56.3274 264.609 57.4138 264.674C57.8701 264.652 58.3191 264.616 58.7754 264.601L62.9327 264.478L62.5995 261.329ZM63.599 118.213C63.5563 117.595 63.4814 116.979 63.3745 116.368C63.2731 115.752 63.1645 115.137 63.121 114.522C63.092 114.174 63.0776 113.819 63.0558 113.472C61.897 113.523 60.7454 113.566 59.5866 113.588C58.1598 113.617 56.7306 113.609 55.299 113.566L51.0114 113.429C49.7295 113.385 48.4475 113.284 47.1655 113.182L47.0714 114.522C47.0279 115.137 47.0135 115.752 46.999 116.368C46.9772 117.301 46.9917 118.235 47.0279 119.169C48.3533 119.126 49.686 119.126 51.0114 119.147C52.4382 119.176 53.8722 119.227 55.299 119.299L55.3787 119.307C55.4829 119.313 55.5843 119.343 55.6756 119.394C56.1102 119.408 56.5447 119.423 56.9865 119.451C57.7325 119.394 58.4785 119.336 59.2245 119.307L63.1572 119.176C63.3094 119.169 63.4614 119.169 63.6135 119.169C63.6208 118.851 63.6135 118.532 63.599 118.213H63.599ZM70.5229 123.549C70.4288 122.629 70.3491 121.746 70.2839 120.87C69.2193 120.921 68.1474 120.957 67.0827 120.979C65.7718 120.993 64.4609 120.986 63.1572 120.943L59.2245 120.805C58.5581 120.783 57.8845 120.74 57.211 120.689C56.8127 120.704 56.4143 120.725 56.016 120.74C55.9508 121.826 55.8711 122.904 55.7625 123.94C55.7046 124.533 55.6393 125.112 55.5741 125.677C55.5814 126.14 55.6031 126.611 55.6248 127.074C56.8054 126.987 57.957 126.842 59.1013 126.77C60.3551 126.688 61.6126 126.678 62.8675 126.741C64.1349 126.785 65.4314 126.871 66.764 126.973C68.1039 127.089 69.4727 127.212 70.9502 127.378L70.5229 123.549ZM71.182 268.858C71.0806 267.924 71.0082 267.034 70.943 266.143C69.748 266.201 68.553 266.245 67.3507 266.266C65.9239 266.295 64.4947 266.288 63.0631 266.245L58.7755 266.107C57.5949 266.071 56.4072 265.977 55.2266 265.89H55.2121C55.1469 267.026 55.06 268.156 54.9513 269.242C54.8862 269.835 54.821 270.414 54.7558 270.979C54.7631 271.442 54.7848 271.906 54.8137 272.376C56.1102 272.282 57.3849 272.144 58.6451 272.065C60.0198 271.982 61.3979 271.974 62.7734 272.043C64.164 272.079 65.5835 272.173 67.0393 272.275C68.4951 272.383 69.987 272.506 71.5804 272.673L71.182 268.858ZM71.6455 0H0.233334V193.029C0.287161 193 0.346345 192.983 0.407159 192.978H0.472363C1.90639 192.87 3.3332 192.747 4.75996 192.696L9.05482 192.566C10.4816 192.515 11.9084 192.515 13.3424 192.544C14.7692 192.566 16.2033 192.624 17.6301 192.696H17.7097C17.8939 192.708 18.0666 192.789 18.193 192.924C18.3193 193.058 18.39 193.235 18.3905 193.42V193.449C18.3181 194.774 18.2167 196.077 18.0936 197.336C17.9995 198.27 17.8908 199.153 17.7966 200.015C19.1655 199.971 20.5416 199.971 21.9177 199.993C23.3517 200.022 24.7809 200.073 26.2053 200.145L26.285 200.152C26.4677 200.161 26.6402 200.239 26.7668 200.371C26.8935 200.503 26.9647 200.679 26.9657 200.862V200.905C26.9006 202.223 26.7992 203.533 26.6688 204.785C26.5457 206.038 26.4009 207.232 26.2705 208.347C25.003 208.521 23.6342 208.644 22.2364 208.752C20.9689 208.846 19.6652 208.919 18.3471 208.969C18.2819 210.055 18.195 211.134 18.0935 212.169C17.9632 213.421 17.8184 214.616 17.688 215.731C16.4205 215.897 15.0517 216.02 13.6539 216.129C12.256 216.237 10.8075 216.324 9.33725 216.368C7.88148 216.426 6.38225 216.426 4.89027 216.339C3.3983 216.252 1.92082 216.093 0.472294 216.006H0.436087C0.358803 216.002 0.286047 215.968 0.233276 215.912V272.738H36.9896C37.0693 271.507 37.0765 270.277 37.0548 269.046C37.033 268.431 37.0258 267.815 36.9751 267.2L36.852 265.354C36.8459 265.237 36.8856 265.123 36.9627 265.035C37.0398 264.947 37.1482 264.893 37.2648 264.884H37.33C38.7568 264.775 40.1908 264.652 41.6176 264.601L45.5938 264.478C45.6373 263.494 45.6518 262.509 45.63 261.518C45.6155 260.902 45.6011 260.287 45.5576 259.672L45.4345 257.826C45.4281 257.71 45.4668 257.596 45.5424 257.509C45.618 257.421 45.7247 257.366 45.8401 257.355H45.9053C47.3393 257.246 48.7661 257.123 50.2001 257.073L54.4877 256.942C55.9145 256.892 57.3486 256.892 58.7754 256.921C60.2021 256.942 61.6362 257 63.063 257.073H63.1426C63.3256 257.084 63.4975 257.165 63.6237 257.298C63.75 257.43 63.8213 257.606 63.8234 257.789V257.826C63.751 259.15 63.6569 260.453 63.5265 261.713C63.4324 262.676 63.3237 263.588 63.2151 264.471C64.5984 264.428 65.9745 264.42 67.3506 264.449C68.7846 264.471 70.2114 264.529 71.6454 264.601V163.776C69.6175 163.935 67.5896 164.029 65.5544 164.08V164.145C65.0402 164.152 64.526 164.145 64.0117 164.145C64.1845 164.718 64.2699 165.313 64.2652 165.912C64.2825 166.644 64.1519 167.373 63.8814 168.054C63.6086 167.373 63.4756 166.645 63.4903 165.912C63.4856 165.313 63.571 164.718 63.7438 164.145C63.2295 164.145 62.7153 164.152 62.2011 164.145V164.08C60.1514 164.029 58.0945 163.935 56.0448 163.769C58.0945 163.602 60.1514 163.508 62.2011 163.45V163.392C63.3164 163.378 64.4391 163.378 65.5544 163.392V163.45C67.5896 163.508 69.6175 163.602 71.6454 163.762V122.275C71.5948 122.839 71.5441 123.397 71.4934 123.947C71.3558 125.199 71.2037 126.394 71.066 127.501C69.9217 127.668 68.676 127.791 67.394 127.907C66.1121 128.008 64.794 128.095 63.4396 128.138C62.0784 128.201 60.7149 128.191 59.3547 128.109C57.9786 128.03 56.6243 127.863 55.2989 127.776H55.2554C55.1907 127.772 55.1291 127.748 55.0795 127.706C55.0299 127.664 54.9951 127.608 54.9802 127.545C53.8141 127.689 52.5901 127.805 51.3299 127.907C50.0625 127.993 48.7588 128.073 47.4334 128.117C47.3682 129.21 47.2885 130.288 47.1872 131.323C47.0568 132.576 46.912 133.77 46.7816 134.885C45.5141 135.051 44.1453 135.175 42.7474 135.283C41.3424 135.385 39.9011 135.479 38.4308 135.515C36.9491 135.584 35.4648 135.576 33.9839 135.493C32.4919 135.406 31.0144 135.247 29.5659 135.16L29.5224 135.153C29.4416 135.148 29.3659 135.112 29.3107 135.052C29.2555 134.993 29.225 134.915 29.2255 134.834V134.82C29.3051 133.589 29.3124 132.359 29.2907 131.128C29.2689 130.513 29.2617 129.897 29.211 129.282L29.1385 128.153C27.9073 128.182 26.6543 128.182 25.4014 128.109C23.9094 128.03 22.4319 127.863 20.9834 127.776H20.9471C20.8674 127.771 20.7925 127.737 20.7374 127.679C20.6824 127.621 20.6512 127.545 20.6502 127.465V127.443C20.7226 126.213 20.7371 124.982 20.7081 123.751C20.6936 123.136 20.6791 122.521 20.6357 121.905L20.5126 120.059C20.5062 119.944 20.5449 119.83 20.6205 119.743C20.6961 119.655 20.8028 119.6 20.9181 119.589L20.9834 119.582C22.4173 119.473 23.8442 119.35 25.2782 119.307L29.5658 119.176C30.9926 119.126 32.4267 119.118 33.8534 119.147C35.2802 119.176 36.7143 119.227 38.1411 119.299L38.2207 119.307C38.411 119.316 38.5901 119.399 38.7205 119.538C39.9589 119.444 41.1974 119.35 42.4359 119.307L46.4194 119.184C46.4483 118.242 46.4628 117.309 46.4483 116.368C46.4266 115.752 46.4121 115.137 46.3687 114.522L46.2456 112.676C46.2392 112.56 46.2779 112.446 46.3535 112.359C46.4291 112.271 46.5358 112.216 46.6512 112.205H46.7236C48.1503 112.097 49.5844 111.973 51.0112 111.923L55.2988 111.792C56.7328 111.742 58.1596 111.742 59.5864 111.771C60.8756 111.792 62.1575 111.836 63.4395 111.901C63.5407 111.848 63.6515 111.816 63.7654 111.807L63.8813 111.8C65.1752 111.714 66.474 111.741 67.7633 111.879C69.0763 111.997 70.3757 112.234 71.6453 112.589L71.6455 0ZM17.7098 75.4525V75.5177C17.1955 75.5249 16.6741 75.5177 16.1599 75.5177C16.3319 76.0907 16.4197 76.6857 16.4206 77.284C16.4346 78.0172 16.3017 78.7458 16.0295 79.4268C15.7573 78.7458 15.6243 78.0172 15.6384 77.284C15.6392 76.6857 15.7271 76.0907 15.8991 75.5177H14.3492V75.4526C12.2995 75.3946 10.2499 75.3078 8.20022 75.1413C10.2499 74.9675 12.2995 74.8807 14.3492 74.8228V74.7576C15.4718 74.7504 16.5872 74.7504 17.7098 74.7576V74.8228C19.7594 74.8807 21.8091 74.9748 23.8588 75.1413C21.8091 75.3077 19.7594 75.3946 17.7098 75.4525ZM45.8763 25.8941C45.8111 27.2116 45.7097 28.5219 45.5866 29.7742C45.4562 31.0265 45.3114 32.221 45.181 33.3358C43.9136 33.5023 42.5447 33.6253 41.1469 33.7411C39.8794 33.828 38.5758 33.9077 37.2576 33.9511C37.1924 35.0442 37.1127 36.1228 37.0041 37.158C36.881 38.4103 36.7289 39.6048 36.6057 40.7196C35.3383 40.8861 33.9695 41.0092 32.5717 41.1178C31.1666 41.2191 29.7253 41.3132 28.255 41.3494C26.7709 41.4181 25.2842 41.4109 23.8008 41.3277C22.3088 41.2408 20.8313 41.0816 19.3828 40.9947L19.3466 40.9875C19.2665 40.9839 19.1909 40.9495 19.1356 40.8914C19.0802 40.8334 19.0495 40.7563 19.0497 40.6762V40.6545C19.1221 39.4238 19.1366 38.1932 19.1076 36.9625C19.0931 36.3472 19.0786 35.7319 19.0352 35.1166L18.9555 33.9873C17.7243 34.0162 16.4785 34.0162 15.2256 33.9439C13.7336 33.8643 12.2561 33.6977 10.8075 33.6109H10.7641C10.681 33.6048 10.6035 33.5667 10.5481 33.5045C10.4927 33.4424 10.4636 33.3611 10.4672 33.2779V33.2707C10.5468 32.0473 10.5541 30.8166 10.5323 29.586C10.5106 28.9707 10.5034 28.3553 10.4527 27.74L10.3368 25.8941C10.3323 25.8365 10.3393 25.7786 10.3573 25.7238C10.3752 25.6689 10.4039 25.6182 10.4416 25.5744C10.4793 25.5307 10.5253 25.4948 10.5769 25.4689C10.6285 25.443 10.6848 25.4276 10.7424 25.4235L10.8075 25.4163C12.2344 25.3077 13.6684 25.1847 15.0952 25.1413L19.3828 25.0109C20.8168 24.9603 22.2437 24.953 23.6777 24.982C25.1045 25.0109 26.5337 25.0616 27.9653 25.134L28.045 25.1413C28.2331 25.1511 28.4099 25.2343 28.5375 25.3729C29.7759 25.2787 31.0144 25.1847 32.2529 25.1413L36.5405 25.0109C37.9745 24.9603 39.4014 24.953 40.8354 24.982C42.2622 25.0109 43.6914 25.0616 45.123 25.134L45.1954 25.1413C45.3782 25.15 45.5506 25.2284 45.6773 25.3603C45.804 25.4923 45.8752 25.6678 45.8762 25.8507L45.8763 25.8941ZM59.1013 126.77C60.3551 126.688 61.6126 126.678 62.8675 126.741C64.1349 126.785 65.4314 126.871 66.764 126.973C68.1039 127.089 69.4727 127.212 70.9503 127.378L70.5229 123.549C70.4288 122.629 70.3491 121.746 70.2839 120.87C69.2193 120.921 68.1474 120.957 67.0827 120.979C65.7718 120.993 64.4609 120.986 63.1572 120.943L59.2244 120.805C58.5581 120.783 57.8845 120.74 57.211 120.689C56.8126 120.704 56.4143 120.725 56.016 120.74C55.9508 121.826 55.8711 122.904 55.7624 123.94C55.7045 124.533 55.6393 125.112 55.5741 125.677C55.5814 126.14 55.6031 126.611 55.6248 127.074C56.8054 126.987 57.957 126.842 59.1013 126.77ZM55.3786 119.307C55.4828 119.313 55.5842 119.343 55.6756 119.393C56.1101 119.408 56.5447 119.422 56.9865 119.451C57.7325 119.393 58.4784 119.336 59.2245 119.307L63.1572 119.176C63.3093 119.169 63.4614 119.169 63.6135 119.169C63.6207 118.851 63.6135 118.532 63.599 118.214C63.5563 117.595 63.4814 116.979 63.3745 116.368C63.2731 115.752 63.1645 115.137 63.121 114.522C63.092 114.174 63.0775 113.819 63.0558 113.472C61.897 113.523 60.7454 113.566 59.5866 113.588C58.1598 113.617 56.7306 113.609 55.299 113.566L51.0113 113.429C49.7294 113.385 48.4475 113.284 47.1655 113.182L47.0714 114.522C47.0279 115.137 47.0135 115.752 46.999 116.368C46.9772 117.301 46.9917 118.235 47.0279 119.169C48.3533 119.126 49.686 119.126 51.0113 119.147C52.4382 119.176 53.8722 119.227 55.299 119.299L55.3786 119.307ZM46.7961 126.683C46.8999 126.692 47.0008 126.722 47.0931 126.77C48.2736 126.821 49.4686 126.886 50.6926 126.973C52.0688 127.081 53.4811 127.197 54.9658 127.349C55.002 126.698 55.0237 126.046 55.0309 125.387L54.8354 123.556C54.7413 122.629 54.6616 121.732 54.5964 120.849C53.4014 120.906 52.2064 120.95 51.0113 120.972C49.5845 121.001 48.1505 120.993 46.7237 120.943L42.4361 120.812C41.2411 120.776 40.0533 120.682 38.8655 120.588C38.8003 121.724 38.7134 122.854 38.6047 123.94C38.5468 124.533 38.4816 125.112 38.4164 125.677C38.4236 125.967 38.4381 126.256 38.4454 126.546C39.778 126.509 41.1034 126.502 42.4361 126.531C43.8629 126.553 45.2897 126.611 46.7237 126.683L46.7961 126.683ZM33.7232 134.147C35.0979 134.067 36.4759 134.06 37.8515 134.125C39.242 134.161 40.6616 134.255 42.1174 134.357C43.5804 134.465 45.0723 134.588 46.6585 134.762L46.2601 130.94C46.1587 130.006 46.0863 129.115 46.0211 128.225C44.8261 128.283 43.6311 128.326 42.4361 128.348C41.002 128.377 39.5752 128.377 38.1412 128.326L33.8535 128.196C33.0858 128.167 32.3181 128.117 31.5576 128.066C31.0362 128.088 30.5219 128.117 29.9932 128.131L29.9208 129.282C29.8701 129.897 29.8628 130.513 29.8411 131.128C29.8194 132.243 29.8339 133.35 29.8918 134.458C31.1883 134.371 32.463 134.226 33.7232 134.147H33.7232ZM33.8535 126.683L37.837 126.567C37.8515 126.176 37.866 125.786 37.8732 125.395L37.6777 123.556C37.5835 122.629 37.5038 121.732 37.4459 120.849C36.2436 120.906 35.0486 120.95 33.8535 120.972C32.4268 121.001 30.9927 120.993 29.5659 120.943L25.2783 120.812C23.9964 120.769 22.7072 120.668 21.4253 120.566L21.3383 121.905C21.2949 122.521 21.2804 123.136 21.2587 123.751C21.2442 124.859 21.2514 125.967 21.3093 127.074C22.613 126.987 23.8877 126.85 25.1479 126.77C26.5226 126.688 27.9006 126.678 29.2762 126.741C29.9498 126.763 30.6306 126.792 31.3186 126.835C32.166 126.77 33.0062 126.712 33.8535 126.683H33.8535ZM10.4164 201.484C10.105 201.499 9.80082 201.513 9.48211 201.52L9.40241 202.751C9.38795 202.99 9.37346 203.236 9.36621 203.475C9.39521 203.851 9.43866 204.22 9.49657 204.597C9.58351 205.212 9.69213 205.828 9.75736 206.443C9.79356 206.754 9.81527 207.073 9.83703 207.384C11.0031 207.362 12.1764 207.355 13.3424 207.377C14.7692 207.398 16.2033 207.456 17.6301 207.529L17.7097 207.536C17.8134 207.54 17.9149 207.567 18.0067 207.616C19.18 207.666 20.375 207.739 21.6063 207.826C23.062 207.934 24.554 208.057 26.1474 208.224L25.7418 204.401C25.6477 203.475 25.568 202.577 25.5101 201.694C24.315 201.752 23.1127 201.795 21.9177 201.817C20.4909 201.846 19.0569 201.839 17.6301 201.788L13.3424 201.658C12.3647 201.629 11.3942 201.557 10.4165 201.484H10.4164ZM0.798269 215.303C2.09468 215.217 3.37664 215.072 4.63685 214.999C6.01136 214.914 7.38957 214.904 8.76515 214.97C10.1557 215.014 11.568 215.101 13.0238 215.202C14.4868 215.311 15.9788 215.434 17.5722 215.608L17.1666 211.785C17.0724 210.851 16.9928 209.961 16.9276 209.078C15.7325 209.129 14.5375 209.179 13.3424 209.194C11.9084 209.223 10.4816 209.223 9.05485 209.172L8.58411 209.158C7.27163 209.249 5.95381 209.232 4.64413 209.107C4.17334 209.071 3.7098 209.02 3.24626 208.955C2.47135 208.911 1.68912 208.853 0.914156 208.796L0.827232 210.135C0.776533 210.75 0.769278 211.365 0.747575 211.981C0.725827 213.088 0.740335 214.196 0.798269 215.303ZM16.9276 194.238C15.7325 194.296 14.5375 194.339 13.3424 194.361C11.9084 194.39 10.4792 194.383 9.05485 194.339L4.75999 194.202C3.47803 194.158 2.19612 194.057 0.914156 193.956L0.827221 195.295C0.776521 195.91 0.769266 196.525 0.747564 197.141C0.725808 198.248 0.74032 199.356 0.798269 200.471C1.776 200.398 2.74649 200.311 3.70252 200.239C3.85463 200.217 4.01396 200.21 4.1733 200.196C4.32542 200.188 4.48475 200.167 4.63685 200.159H4.76721C4.79331 200.153 4.82011 200.151 4.84687 200.152C4.9338 200.145 5.02793 200.145 5.11484 200.145C6.31714 200.087 7.52665 200.08 8.76515 200.138C9.61977 200.159 10.4888 200.203 11.3652 200.261C12.0243 200.217 12.6834 200.174 13.3424 200.152L17.4925 200.022L17.1665 196.952C17.0724 196.019 16.9928 195.128 16.9276 194.238H16.9276ZM70.5229 123.549C70.4287 122.629 70.3491 121.746 70.2839 120.87C69.2192 120.921 68.1473 120.957 67.0827 120.979C65.7717 120.993 64.4608 120.986 63.1572 120.943L59.2244 120.805C58.5581 120.783 57.8845 120.74 57.211 120.689C56.8126 120.704 56.4143 120.725 56.0159 120.74C55.9507 121.826 55.8711 122.904 55.7624 123.94C55.7045 124.533 55.6393 125.112 55.5741 125.677C55.5814 126.14 55.6031 126.611 55.6248 127.074C56.8054 126.987 57.957 126.842 59.1013 126.77C60.3551 126.688 61.6125 126.678 62.8674 126.741C64.1349 126.785 65.4314 126.871 66.764 126.973C68.1039 127.089 69.4727 127.212 70.9502 127.378L70.5229 123.549ZM63.599 118.213C63.5563 117.595 63.4814 116.979 63.3745 116.368C63.2731 115.752 63.1644 115.137 63.121 114.522C63.092 114.174 63.0775 113.819 63.0558 113.472C61.897 113.523 60.7454 113.566 59.5866 113.588C58.1598 113.617 56.7306 113.609 55.299 113.566L51.0113 113.429C49.7294 113.385 48.4475 113.284 47.1655 113.182L47.0713 114.522C47.0279 115.137 47.0135 115.752 46.9989 116.368C46.9772 117.301 46.9917 118.235 47.0279 119.169C48.3533 119.126 49.686 119.126 51.0113 119.147C52.4382 119.176 53.8722 119.227 55.299 119.299L55.3787 119.307C55.4828 119.313 55.5843 119.343 55.6756 119.394C56.1102 119.408 56.5447 119.423 56.9865 119.451C57.7325 119.394 58.4785 119.336 59.2245 119.307L63.1572 119.176C63.3093 119.169 63.4614 119.169 63.6135 119.169C63.6208 118.851 63.6135 118.532 63.599 118.213H63.599ZM54.8354 123.556C54.7413 122.629 54.6616 121.732 54.5964 120.849C53.4013 120.906 52.2063 120.95 51.0113 120.972C49.5845 121.001 48.1505 120.993 46.7237 120.943L42.4361 120.812C41.2411 120.776 40.0533 120.682 38.8655 120.588C38.8003 121.724 38.7134 122.854 38.6047 123.94C38.5468 124.533 38.4816 125.112 38.4164 125.677C38.4236 125.967 38.4381 126.256 38.4454 126.546C39.778 126.509 41.1034 126.502 42.4361 126.531C43.8628 126.553 45.2897 126.611 46.7237 126.683H46.7961C46.8998 126.692 47.0008 126.722 47.093 126.77C48.2736 126.821 49.4686 126.886 50.6926 126.973C52.0687 127.081 53.481 127.197 54.9658 127.349C55.002 126.698 55.0237 126.046 55.0309 125.387L54.8354 123.556ZM46.2602 130.94C46.1587 130.006 46.0863 129.115 46.0211 128.225C44.8261 128.283 43.6311 128.326 42.4361 128.348C41.002 128.377 39.5752 128.377 38.1412 128.326L33.8535 128.196C33.0858 128.167 32.3181 128.117 31.5576 128.066C31.0362 128.088 30.522 128.117 29.9933 128.131L29.9208 129.282C29.8701 129.897 29.8629 130.513 29.8411 131.128C29.8194 132.243 29.8339 133.35 29.8918 134.458C31.1883 134.371 32.463 134.226 33.7232 134.147C35.0979 134.067 36.4759 134.06 37.8515 134.125C39.242 134.161 40.6616 134.255 42.1174 134.357C43.5804 134.465 45.0723 134.588 46.6585 134.762L46.2602 130.94ZM37.6777 123.556C37.5835 122.629 37.5038 121.732 37.4459 120.849C36.2436 120.906 35.0486 120.95 33.8535 120.972C32.4268 121.001 30.9927 120.993 29.5659 120.943L25.2783 120.812C23.9964 120.769 22.7072 120.668 21.4253 120.566L21.3383 121.905C21.2949 122.521 21.2804 123.136 21.2587 123.751C21.2442 124.859 21.2514 125.967 21.3093 127.074C22.613 126.987 23.8877 126.85 25.1479 126.77C26.5226 126.688 27.9006 126.678 29.2762 126.741C29.9498 126.763 30.6306 126.792 31.3186 126.835C32.166 126.77 33.0062 126.712 33.8535 126.683L37.837 126.567C37.8515 126.176 37.866 125.786 37.8732 125.395L37.6777 123.556ZM25.7418 204.401C25.6477 203.475 25.568 202.577 25.5101 201.694C24.315 201.752 23.1128 201.795 21.9177 201.817C20.4909 201.846 19.0569 201.839 17.6301 201.788L13.3425 201.658C12.3647 201.629 11.3942 201.557 10.4165 201.484C10.105 201.499 9.80087 201.513 9.48216 201.52L9.40245 202.751C9.388 202.99 9.37351 203.236 9.36626 203.475C9.39526 203.851 9.4387 204.22 9.49661 204.597C9.58354 205.212 9.69217 205.828 9.7574 206.443C9.7936 206.754 9.81532 207.073 9.83707 207.384C11.0031 207.362 12.1764 207.355 13.3425 207.377C14.7693 207.398 16.2033 207.456 17.6301 207.529L17.7098 207.536C17.8135 207.54 17.9149 207.567 18.0067 207.616C19.18 207.666 20.3751 207.739 21.6063 207.826C23.0621 207.934 24.5541 208.057 26.1474 208.224L25.7418 204.401ZM17.1666 211.785C17.0724 210.851 16.9928 209.961 16.9276 209.078C15.7326 209.129 14.5375 209.179 13.3425 209.194C11.9084 209.223 10.4817 209.223 9.05486 209.172L8.58412 209.158C7.27164 209.249 5.95382 209.232 4.64414 209.107C4.17335 209.071 3.70982 209.02 3.24628 208.955C2.47136 208.911 1.68913 208.853 0.914168 208.796L0.827232 210.135C0.776533 210.75 0.769289 211.365 0.747587 211.981C0.725831 213.088 0.740332 214.196 0.798281 215.303C2.09469 215.217 3.37665 215.072 4.63686 214.999C6.01137 214.914 7.38958 214.904 8.76516 214.97C10.1557 215.014 11.5681 215.101 13.0238 215.202C14.4868 215.311 15.9788 215.434 17.5722 215.608L17.1666 211.785ZM17.1666 196.952C17.0724 196.019 16.9928 195.128 16.9276 194.238C15.7326 194.296 14.5375 194.339 13.3425 194.361C11.9084 194.39 10.4792 194.383 9.05486 194.339L4.76 194.202C3.47804 194.158 2.19613 194.057 0.914168 193.956L0.827232 195.295C0.776533 195.91 0.769289 196.525 0.747587 197.141C0.725831 198.248 0.740332 199.356 0.798281 200.471C1.77601 200.398 2.74651 200.311 3.70255 200.239C3.85465 200.217 4.01398 200.21 4.17332 200.196C4.32544 200.188 4.48476 200.167 4.63686 200.159H4.76722C4.79332 200.153 4.82012 200.151 4.84688 200.152C4.93381 200.145 5.02794 200.145 5.11485 200.145C6.31715 200.087 7.52666 200.08 8.76516 200.138C9.61979 200.159 10.4889 200.203 11.3652 200.261C12.0243 200.217 12.6834 200.174 13.3425 200.152L17.4925 200.022L17.1666 196.952ZM70.5229 123.549C70.4288 122.629 70.3491 121.746 70.2839 120.87C69.2193 120.921 68.1474 120.957 67.0827 120.979C65.7718 120.993 64.4609 120.986 63.1572 120.943L59.2244 120.805C58.5581 120.783 57.8845 120.74 57.211 120.689C56.8126 120.704 56.4143 120.725 56.016 120.74C55.9508 121.826 55.8711 122.904 55.7624 123.94C55.7045 124.533 55.6393 125.112 55.5741 125.677C55.5814 126.14 55.6031 126.611 55.6248 127.074C56.8054 126.987 57.957 126.842 59.1013 126.77C60.3551 126.688 61.6126 126.678 62.8674 126.741C64.1349 126.785 65.4314 126.871 66.764 126.973C68.1039 127.089 69.4727 127.212 70.9502 127.378L70.5229 123.549ZM63.599 118.213C63.5563 117.595 63.4814 116.979 63.3745 116.368C63.2731 115.752 63.1645 115.137 63.121 114.522C63.092 114.174 63.0775 113.819 63.0558 113.472C61.897 113.523 60.7454 113.566 59.5866 113.588C58.1598 113.617 56.7306 113.609 55.299 113.566L51.0113 113.429C49.7294 113.385 48.4475 113.284 47.1655 113.182L47.0714 114.522C47.0279 115.137 47.0135 115.752 46.999 116.368C46.9772 117.301 46.9917 118.235 47.0279 119.169C48.3533 119.126 49.686 119.126 51.0113 119.147C52.4382 119.176 53.8722 119.227 55.299 119.299L55.3787 119.307C55.4829 119.313 55.5843 119.343 55.6756 119.394C56.1102 119.408 56.5447 119.423 56.9865 119.451C57.7325 119.394 58.4785 119.336 59.2245 119.307L63.1572 119.176C63.3093 119.169 63.4614 119.169 63.6135 119.169C63.6208 118.851 63.6135 118.532 63.599 118.213ZM54.8354 123.556C54.7413 122.629 54.6616 121.732 54.5964 120.849C53.4014 120.906 52.2064 120.95 51.0113 120.972C49.5845 121.001 48.1505 120.993 46.7237 120.943L42.4361 120.812C41.2411 120.776 40.0533 120.682 38.8655 120.588C38.8003 121.724 38.7134 122.854 38.6047 123.94C38.5468 124.533 38.4816 125.112 38.4164 125.677C38.4236 125.967 38.4381 126.256 38.4454 126.546C39.778 126.509 41.1034 126.502 42.4361 126.531C43.8629 126.553 45.2897 126.611 46.7237 126.683H46.7961C46.8998 126.692 47.0008 126.722 47.0931 126.77C48.2736 126.821 49.4686 126.886 50.6926 126.973C52.0687 127.081 53.4811 127.197 54.9658 127.349C55.002 126.698 55.0237 126.046 55.0309 125.387L54.8354 123.556ZM46.2602 130.94C46.1588 130.006 46.0863 129.115 46.0211 128.225C44.8261 128.283 43.6311 128.326 42.4361 128.348C41.002 128.377 39.5752 128.377 38.1412 128.326L33.8535 128.196C33.0858 128.167 32.3181 128.117 31.5577 128.066C31.0362 128.088 30.522 128.117 29.9933 128.131L29.9208 129.282C29.8701 129.897 29.8629 130.513 29.8412 131.128C29.8194 132.243 29.8339 133.35 29.8919 134.458C31.1883 134.371 32.463 134.226 33.7232 134.147C35.098 134.067 36.476 134.06 37.8515 134.125C39.2421 134.161 40.6616 134.255 42.1174 134.357C43.5804 134.465 45.0724 134.588 46.6585 134.762L46.2602 130.94ZM37.6777 123.556C37.5835 122.629 37.5039 121.732 37.4459 120.849C36.2436 120.906 35.0486 120.95 33.8535 120.972C32.4268 121.001 30.9927 120.993 29.566 120.943L25.2784 120.812C23.9964 120.769 22.7072 120.668 21.4253 120.566L21.3383 121.905C21.2949 122.521 21.2804 123.136 21.2587 123.751C21.2442 124.859 21.2514 125.967 21.3093 127.074C22.613 126.987 23.8877 126.85 25.148 126.77C26.5226 126.688 27.9006 126.678 29.2762 126.741C29.9498 126.763 30.6306 126.792 31.3186 126.835C32.166 126.77 33.0062 126.712 33.8535 126.683L37.837 126.567C37.8515 126.176 37.866 125.786 37.8732 125.395L37.6777 123.556ZM25.7418 204.401C25.6477 203.475 25.568 202.577 25.5101 201.694C24.315 201.752 23.1128 201.795 21.9177 201.817C20.4909 201.846 19.0569 201.839 17.6301 201.788L13.3425 201.658C12.3647 201.629 11.3942 201.557 10.4165 201.484C10.105 201.499 9.80087 201.513 9.48216 201.52L9.40245 202.751C9.388 202.99 9.37351 203.236 9.36626 203.475C9.39526 203.851 9.4387 204.22 9.49661 204.597C9.58354 205.212 9.69217 205.828 9.7574 206.443C9.7936 206.754 9.81532 207.073 9.83707 207.384C11.0031 207.362 12.1764 207.355 13.3425 207.377C14.7693 207.398 16.2033 207.456 17.6301 207.529L17.7098 207.536C17.8135 207.54 17.9149 207.567 18.0067 207.616C19.18 207.666 20.3751 207.739 21.6063 207.826C23.0621 207.934 24.5541 208.057 26.1474 208.224L25.7418 204.401ZM17.1666 211.785C17.0724 210.851 16.9928 209.961 16.9276 209.078C15.7326 209.129 14.5375 209.179 13.3425 209.194C11.9084 209.223 10.4817 209.223 9.05486 209.172L8.58412 209.158C7.27164 209.249 5.95382 209.232 4.64414 209.107C4.17335 209.071 3.70982 209.02 3.24628 208.955C2.47136 208.911 1.68913 208.853 0.914168 208.796L0.827232 210.135C0.776533 210.75 0.769289 211.365 0.747587 211.981C0.725831 213.088 0.740332 214.196 0.798281 215.303C2.09469 215.217 3.37665 215.072 4.63686 214.999C6.01137 214.914 7.38958 214.904 8.76516 214.97C10.1557 215.014 11.5681 215.101 13.0238 215.202C14.4868 215.311 15.9788 215.434 17.5722 215.608L17.1666 211.785ZM17.1666 196.952C17.0724 196.019 16.9928 195.128 16.9276 194.238C15.7326 194.296 14.5375 194.339 13.3425 194.361C11.9084 194.39 10.4792 194.383 9.05486 194.339L4.76 194.202C3.47804 194.158 2.19613 194.057 0.914168 193.956L0.827232 195.295C0.776533 195.91 0.769289 196.525 0.747587 197.141C0.725831 198.248 0.740332 199.356 0.798281 200.471C1.77601 200.398 2.74651 200.311 3.70255 200.239C3.85465 200.217 4.01398 200.21 4.17332 200.196C4.32544 200.188 4.48476 200.167 4.63686 200.159H4.76722C4.79332 200.153 4.82012 200.151 4.84688 200.152C4.93381 200.145 5.02794 200.145 5.11485 200.145C6.31715 200.087 7.52666 200.08 8.76516 200.138C9.61979 200.159 10.4889 200.203 11.3652 200.261C12.0243 200.217 12.6834 200.174 13.3425 200.152L17.4925 200.022L17.1666 196.952ZM8.69993 202.751L8.62028 201.542C8.14949 201.557 7.67875 201.571 7.20071 201.571C7.12105 201.586 7.03413 201.6 6.94723 201.607C6.25019 201.689 5.54703 201.706 4.84685 201.658C4.14386 201.628 3.44283 201.563 2.74648 201.462C2.38434 201.405 2.01501 201.339 1.65288 201.26C1.26175 201.231 0.863413 201.195 0.472328 201.173L0.436122 201.166C0.359713 201.164 0.286846 201.133 0.233311 201.079V207.869C0.287138 207.84 0.346311 207.823 0.407124 207.818L0.472328 207.811C1.39935 207.746 2.31918 207.674 3.24622 207.616C3.70976 207.558 4.17329 207.5 4.64408 207.464C5.84785 207.351 7.05835 207.33 8.26539 207.398C8.28709 207.08 8.30885 206.761 8.34505 206.443C8.41021 205.828 8.51887 205.212 8.60578 204.597C8.66373 204.22 8.70718 203.851 8.73613 203.475C8.72891 203.236 8.71446 202.99 8.69993 202.751ZM71.6424 272.736C76.2808 272.199 80.9219 271.891 85.564 271.665C87.8848 271.53 90.2066 271.478 92.5279 271.387L99.4934 271.24L106.46 271.218C108.783 271.255 111.105 271.248 113.429 271.329C118.075 271.444 122.722 271.642 127.372 272.072C122.734 272.612 118.093 272.921 113.45 273.147C111.13 273.283 108.808 273.331 106.487 273.424L99.5211 273.568L92.5542 273.587C90.2313 273.551 87.909 273.555 85.5856 273.476C80.9394 273.36 76.2923 273.163 71.6424 272.736Z" fill="#1A1A1A"/>
<path d="M71.6456 119.589V122.275C71.7035 121.551 71.7542 120.805 71.7905 120.06C71.7994 119.89 71.7481 119.724 71.6456 119.589ZM71.6456 112.589V112.763C71.6591 112.758 71.6713 112.75 71.6814 112.74C71.6914 112.73 71.699 112.718 71.7035 112.705C71.7104 112.682 71.7082 112.657 71.6974 112.635C71.6867 112.614 71.6681 112.597 71.6456 112.589ZM0.00163861 208.289L0.117548 210.135C0.168195 210.75 0.175458 211.366 0.197206 211.981C0.218908 213.204 0.21166 214.435 0.132001 215.665V215.68C0.131083 215.724 0.13967 215.767 0.157181 215.807C0.174692 215.847 0.2007 215.883 0.233401 215.912V207.869C0.157421 207.908 0.0948087 207.969 0.0535322 208.044C0.0122557 208.118 -0.00581146 208.204 0.00163861 208.289ZM0.00163861 193.449L0.117548 195.295C0.168195 195.91 0.175458 196.525 0.197206 197.141C0.218908 198.371 0.21166 199.602 0.132001 200.833V200.847C0.131809 200.891 0.140732 200.934 0.158196 200.974C0.17566 201.014 0.201271 201.049 0.233401 201.079V193.029C0.158559 193.069 0.0969195 193.13 0.0558276 193.205C0.0147356 193.279 -0.00407241 193.364 0.00163861 193.449ZM71.7108 163.769C71.6888 163.768 71.6668 163.77 71.6456 163.776V163.762C71.6668 163.768 71.6888 163.77 71.7108 163.769Z" fill="#F6F6F6"/>
</svg>
