<svg width="300" height="269" viewBox="0 0 300 269" fill="none" xmlns="http://www.w3.org/2000/svg">
<path d="M91.4971 4.30671C91.4971 4.30671 133.282 6.62531 146.516 14.3428C146.516 14.3428 144.641 34.6662 143.687 53.5834L143.302 56.6134C147.485 58.5007 151.515 60.7116 155.355 63.226C155.355 63.226 158.711 66.4738 159.975 73.7057C162.192 79.0324 164.835 84.1717 167.877 89.0739C171.501 88.4293 175.263 87.7039 179.16 86.8977L179.562 74.819C169.308 72.2662 173.243 70.165 173.243 70.165L174.364 69.8722C176.116 69.4113 177.93 69.2305 179.738 69.3366L179.746 69.0016L181.446 17.0464C181.446 17.0464 117.588 -10.3331 91.4971 4.30671ZM169.401 25.3752L166.622 25.2997C164.763 25.2411 162.913 25.124 161.055 25.0067C159.205 24.8645 157.356 24.722 155.514 24.5214C153.664 24.3203 151.814 24.111 149.981 23.8098C151.839 23.7679 153.698 23.8182 155.556 23.8768C157.414 23.9353 159.264 24.0526 161.114 24.1697C162.964 24.3121 164.822 24.4543 166.663 24.6552L169.434 24.9648C170.355 25.0989 171.276 25.2075 172.196 25.3666C171.267 25.4001 170.338 25.3752 169.401 25.3752ZM172.774 30.2298C171.836 30.2549 170.907 30.2298 169.978 30.2382L167.191 30.1546C165.332 30.1043 163.483 29.987 161.633 29.8616C159.783 29.7277 157.933 29.5853 156.083 29.376C154.242 29.1835 152.392 28.9659 150.55 28.6647C152.417 28.6228 154.275 28.673 156.133 28.7401C157.983 28.7901 159.841 28.9072 161.691 29.0329C163.541 29.1668 165.391 29.3092 167.241 29.5185L170.003 29.8281C170.924 29.9621 171.853 30.0625 172.774 30.2299L172.774 30.2298ZM155.037 36.3486C157.263 36.5076 159.481 36.7337 161.7 36.9597C163.918 37.2024 166.136 37.4536 168.346 37.7632L171.652 38.2404C172.757 38.4246 173.862 38.5835 174.959 38.8012C173.837 38.7761 172.724 38.7008 171.61 38.6506L168.27 38.4078C166.044 38.2488 163.826 38.0228 161.608 37.7884C159.398 37.5457 157.18 37.2945 154.97 36.9848C152.76 36.6752 150.55 36.3571 148.349 35.9553C150.584 36.014 152.81 36.1729 155.037 36.3487L155.037 36.3486ZM172.364 62.0374C172.18 64.1051 172.238 66.1891 172.196 68.2568C172.138 70.3242 172.029 72.3833 172.02 74.4173C172.012 74.9279 172.012 75.4301 172.02 75.9156C172.037 76.1583 172.037 76.3508 172.062 76.6104L172.138 77.4055C172.237 78.0608 172.162 78.7306 171.92 79.3475C171.742 79.7187 171.46 80.03 171.108 80.243C170.816 80.4142 170.495 80.5332 170.162 80.5945C169.075 80.7591 167.97 80.7647 166.881 80.6113C165.843 80.4858 164.805 80.3268 163.776 80.1427C163.755 80.1388 163.736 80.1271 163.724 80.1099C163.711 80.0928 163.706 80.0715 163.709 80.0505C163.713 80.0321 163.722 80.0152 163.735 80.0019C163.749 79.9885 163.765 79.9793 163.784 79.9753C164.822 79.8413 165.86 79.7409 166.898 79.6655C167.874 79.6188 168.842 79.4673 169.785 79.2135C170.204 79.0545 170.43 78.8955 170.455 78.7112C170.517 78.3366 170.511 77.954 170.438 77.5813L170.321 76.8364C170.279 76.5853 170.254 76.2587 170.229 75.9827C170.221 75.4385 170.221 74.9029 170.238 74.3754C170.355 72.2663 170.564 70.2069 170.84 68.1395C171.142 66.1556 171.56 64.1886 171.82 62.205C170.649 61.8984 169.435 61.7908 168.229 61.8868C167.603 61.9277 166.981 62.0201 166.37 62.1631C166.061 62.2299 165.776 62.322 165.466 62.4056C165.118 62.4982 164.762 62.5626 164.403 62.5982C163.032 62.6885 161.656 62.5413 160.335 62.1631C159.04 61.8258 157.783 61.3545 156.585 60.7569L156.527 60.7316C156.407 60.6449 156.274 60.5773 156.133 60.5309C156.016 60.4914 155.889 60.4943 155.773 60.5391C155.637 60.6088 155.531 60.7245 155.472 60.8656C155.388 61.0328 155.326 61.21 155.288 61.3929L155.28 61.4012C155.278 61.4121 155.273 61.4225 155.267 61.4316C155.261 61.4407 155.252 61.4483 155.243 61.4538C155.233 61.4594 155.223 61.4629 155.212 61.4639C155.201 61.465 155.19 61.4636 155.179 61.4599C155.163 61.4571 155.149 61.4489 155.138 61.4367C155.127 61.4245 155.121 61.409 155.12 61.3928C155.092 61.1791 155.09 60.9627 155.112 60.7483C155.153 60.5011 155.27 60.2729 155.447 60.0956C155.66 59.9181 155.932 59.8283 156.209 59.8445C156.442 59.8457 156.673 59.8941 156.887 59.9867C158.125 60.2963 159.381 60.5894 160.628 60.807C161.842 61.041 163.075 61.1588 164.311 61.1587C164.613 61.1669 164.889 61.1168 165.182 61.1C165.516 61.0666 165.868 61.0079 166.211 61.0079C166.89 60.9823 167.57 61.0075 168.245 61.0833C169.569 61.2331 170.882 61.4594 172.179 61.7611C172.237 61.7752 172.287 61.8088 172.322 61.8562C172.358 61.9035 172.375 61.9617 172.372 62.0206L172.364 62.0374ZM171.292 54.0688L167.952 54.2112C165.734 54.3115 163.508 54.3367 161.281 54.3618C159.055 54.3702 156.837 54.3785 154.61 54.3199C152.383 54.2699 150.157 54.2112 147.93 54.052C150.157 53.8595 152.375 53.7676 154.602 53.6754C156.828 53.5834 159.055 53.5583 161.273 53.5248C163.499 53.5164 165.726 53.508 167.952 53.5666L171.292 53.6586C172.405 53.7172 173.519 53.7507 174.632 53.8345C173.519 53.9433 172.405 53.9936 171.292 54.0688V54.0688ZM172.539 51.4238L169.752 51.3484C167.894 51.2899 166.044 51.1726 164.194 51.0555C162.344 50.9131 160.486 50.7709 158.644 50.57C156.795 50.3691 154.953 50.1598 153.112 49.8586C154.978 49.8168 156.837 49.8668 158.686 49.9254C160.545 49.9841 162.394 50.1012 164.253 50.2185C166.103 50.3607 167.952 50.5032 169.794 50.7038L172.565 51.0136C173.485 51.1475 174.406 51.2564 175.327 51.4154C174.398 51.4489 173.469 51.4238 172.539 51.4238V51.4238ZM152.534 44.9954C154.401 44.9535 156.259 45.0037 158.117 45.0706C159.976 45.1208 161.825 45.2381 163.675 45.3636C165.525 45.4975 167.375 45.6399 169.225 45.8492L171.995 46.1588C172.916 46.2926 173.837 46.4015 174.758 46.5605C173.82 46.5856 172.891 46.5605 171.962 46.5689L169.175 46.4851C167.325 46.4351 165.467 46.318 163.617 46.1923C161.767 46.0584 159.917 45.916 158.067 45.7067C156.226 45.5142 154.376 45.305 152.534 44.9954L152.534 44.9954ZM172.924 42.5678L170.137 42.4926C168.279 42.4423 166.429 42.3167 164.571 42.1996C162.721 42.0573 160.871 41.9149 159.03 41.7142C157.18 41.5131 155.338 41.3039 153.497 41.0027C155.355 40.9608 157.213 41.011 159.071 41.0697C160.93 41.1281 162.78 41.2455 164.629 41.3625C166.488 41.505 168.337 41.6472 170.179 41.8481L172.95 42.1661C173.87 42.2999 174.791 42.4004 175.712 42.5595C174.783 42.593 173.854 42.5678 172.924 42.5678L172.924 42.5678ZM174.13 34.5659L171.343 34.4905C169.484 34.4402 167.634 34.3147 165.785 34.1974C163.935 34.0552 162.085 33.9129 160.235 33.7121C158.385 33.511 156.544 33.3017 154.702 33.0005C156.569 32.9586 158.427 33.0089 160.277 33.0675C162.135 33.126 163.985 33.2433 165.843 33.3604C167.693 33.5028 169.543 33.645 171.384 33.8459L174.155 34.1641C175.076 34.298 176.005 34.3983 176.917 34.5573C175.988 34.5908 175.059 34.5659 174.13 34.5659H174.13ZM174.766 21.6585L171.426 21.416C169.2 21.2568 166.982 21.0308 164.763 20.7964C162.554 20.5536 160.335 20.3026 158.126 19.9928C155.916 19.6832 153.706 19.365 151.505 18.9632C153.74 19.0219 155.966 19.1809 158.193 19.3567C160.419 19.5159 162.637 19.7419 164.855 19.9677C167.074 20.2188 169.292 20.4616 171.493 20.7796L174.808 21.2484C175.913 21.4326 177.018 21.5917 178.114 21.8092C176.993 21.7842 175.879 21.7088 174.766 21.6586L174.766 21.6585ZM141.879 88.103C141.472 86.7837 140.735 85.5906 139.736 84.6375L139.451 86.8977C117.772 92.3802 105.585 93.142 99.1394 92.7987C107.409 93.8701 123.757 94.9331 148.575 91.9616C146.231 91.9199 142.264 90.3127 141.879 88.103ZM144.331 64.3896C144.331 64.3896 143.553 63.9292 142.465 63.2178L142.314 64.4147C142.984 64.3378 143.66 64.3294 144.331 64.3895V64.3896Z" fill="#1A1A1A"/>
<path d="M92.7439 91.6853C93.8326 91.591 94.9266 91.5744 96.0177 91.6359C97.09 91.6733 98.1481 91.7769 99.2041 91.9118C99.4319 91.941 99.6395 92.0575 99.7831 92.2367C99.9266 92.416 99.995 92.644 99.9737 92.8727C99.9524 93.1014 99.8432 93.3128 99.669 93.4625C99.4948 93.6122 99.2693 93.6884 99.04 93.675C97.9335 93.6234 96.836 93.4492 95.7679 93.1556C95.2259 93.0105 94.6963 92.8229 94.1839 92.5945C93.6599 92.3675 93.1741 92.0608 92.7439 91.6853ZM92.7439 91.6853C93.8695 91.7533 94.9162 91.7489 95.9764 91.7864C97.0333 91.8049 98.0824 91.8473 99.1374 91.9056L98.9733 93.6688C97.895 93.53 96.8296 93.3041 95.7878 92.9932C94.7177 92.6998 93.6933 92.2597 92.7439 91.6853Z" fill="#1A1A1A"/>
<path d="M208.198 27.519C208.459 29.8138 208.683 32.0977 209.001 34.3477C209.165 35.4697 209.334 36.5913 209.595 37.6682C209.712 38.1987 209.862 38.7214 210.043 39.2333C210.127 39.4755 210.227 39.7116 210.344 39.9398L210.529 40.3747C210.606 40.5396 210.666 40.7124 210.706 40.8901C210.874 41.5696 210.86 42.2816 210.665 42.9538C210.502 43.5703 210.248 44.1587 209.909 44.6991C209.273 45.7162 208.516 46.6519 207.653 47.4854C207.443 47.6914 207.232 47.8961 207.015 48.0925L206.687 48.3859L206.522 48.5305C206.484 48.5633 206.447 48.599 206.414 48.6373C206.282 48.8007 206.217 49.0073 206.231 49.2163C206.262 49.4536 206.358 49.6776 206.509 49.8629C207.079 50.8011 207.992 51.4807 209.054 51.7578C209.093 51.7658 209.129 51.7826 209.161 51.807C209.192 51.8314 209.218 51.8627 209.235 51.8985L209.242 51.9127C210.165 53.778 211.252 55.5568 212.492 57.2277C213.677 58.8821 215.039 60.4017 216.554 61.7591C217.268 62.3825 218.089 62.8696 218.978 63.1962C219.382 63.3368 219.807 63.4051 220.234 63.398C220.438 63.3954 220.64 63.3754 220.841 63.3381C221.059 63.3019 221.328 63.2303 221.569 63.1783C222.539 62.9573 223.493 62.6672 224.422 62.3105C224.851 62.1446 225.261 61.9338 225.646 61.6817C225.807 61.5758 225.956 61.4512 226.089 61.3105C226.138 61.2623 226.182 61.2085 226.219 61.1502L226.25 61.1029C226.256 61.1208 226.25 61.0465 226.253 61.2224L227.555 60.4886C228.407 61.1604 229.174 61.9331 229.84 62.7898C230.504 63.6148 231.073 64.5119 231.536 65.4644C232.485 67.3279 233.005 69.38 233.059 71.4706C233.059 71.4917 233.052 71.5123 233.039 71.5286C233.026 71.5448 233.007 71.5556 232.986 71.5588C232.965 71.562 232.944 71.5574 232.926 71.5459C232.908 71.5345 232.895 71.5169 232.89 71.4965L232.888 71.4915C232.655 70.5141 232.341 69.5579 231.948 68.633C231.574 67.7192 231.11 66.845 230.562 66.0234C230.024 65.2089 229.417 64.4424 228.747 63.7322C228.101 63.0369 227.386 62.4093 226.613 61.8591L227.914 61.1255C227.92 61.2963 227.896 61.4669 227.842 61.629C227.808 61.7364 227.765 61.8405 227.712 61.9402C227.625 62.1128 227.518 62.2746 227.394 62.4224C227.18 62.6755 226.935 62.9013 226.666 63.0948C226.187 63.4385 225.672 63.7295 225.13 63.9629C224.117 64.3995 223.063 64.7332 221.982 64.9592C221.711 65.0162 221.472 65.0812 221.174 65.1315C220.858 65.1879 220.537 65.2098 220.216 65.1967C219.593 65.1793 218.977 65.0541 218.396 64.8265C217.326 64.3891 216.346 63.7572 215.506 62.9629C213.935 61.4671 212.607 59.7346 211.57 57.8283C210.531 55.9805 209.587 54.08 208.745 52.1345L208.933 52.2892C207.753 51.9502 206.732 51.2048 206.049 50.185C205.824 49.9314 205.672 49.6211 205.609 49.2876C205.558 48.9191 205.643 48.5445 205.849 48.2344C205.9 48.1565 205.957 48.0828 206.02 48.0142L206.162 47.8555L206.44 47.5355C206.626 47.3221 206.802 47.1016 206.978 46.8815C207.674 46.0214 208.266 45.0818 208.741 44.0823C209.203 43.2235 209.372 42.2375 209.222 41.274C209.199 41.1713 209.162 41.0721 209.114 40.9789L209.055 40.8332L208.96 40.621C208.824 40.3329 208.707 40.0359 208.612 39.7319C208.425 39.1545 208.275 38.5658 208.163 37.9696C207.957 36.8116 207.827 35.6413 207.773 34.4663C207.65 32.1466 207.734 29.8205 208.026 27.5159C208.027 27.5047 208.031 27.4939 208.037 27.484C208.042 27.4742 208.05 27.4655 208.059 27.4586C208.068 27.4517 208.078 27.4466 208.089 27.4436C208.1 27.4406 208.111 27.4398 208.122 27.4412C208.142 27.4441 208.16 27.4533 208.173 27.4673C208.187 27.4814 208.195 27.4996 208.198 27.519ZM232.974 50.0252C233.141 50.8623 233.155 51.7228 233.016 52.565C232.887 53.4188 232.627 54.2476 232.246 55.0223C231.861 55.8051 231.328 56.5064 230.678 57.0879C230.04 57.6676 229.278 58.0938 228.451 58.3341C229.084 57.818 229.668 57.245 230.197 56.6222C230.702 56.0143 231.133 55.3481 231.48 54.6379C232.175 53.1713 232.677 51.6209 232.974 50.0252Z" fill="#1A1A1A"/>
<path d="M235.25 46.3179C241.727 61.554 259.147 65.9088 260.947 40.1392C262.093 23.7376 247.797 9.96475 236.989 10.6892C234.254 10.4304 231.496 10.5721 228.802 11.1099C225.1 11.8957 221.58 13.3704 218.424 15.4572C214.508 17.8773 211.044 20.962 208.187 24.5725C207.856 27.6739 208.545 30.7987 210.15 33.473C213.067 38.1892 218.039 39.6206 220.804 40.0549C221.744 40.2192 222.711 40.1392 223.611 39.8225C224.511 39.5057 225.314 38.963 225.944 38.2463C226.39 37.719 226.725 37.1078 226.93 36.4487C227.184 35.4834 227.63 34.5796 228.243 33.7918C228.856 33.004 229.622 32.3486 230.496 31.8653C232.654 30.7969 235.296 31.1197 236.55 37.6143C237.593 43.02 236.626 45.3686 235.25 46.3179ZM137.23 141.105C140.162 140.611 143.119 140.286 146.089 140.131C149.041 139.934 151.993 139.867 154.945 139.87C157.896 139.88 160.848 139.966 163.799 140.178C166.767 140.35 169.723 140.694 172.652 141.208C169.721 141.705 166.763 142.032 163.794 142.187C160.841 142.382 157.889 142.45 154.937 142.443C151.985 142.429 149.033 142.345 146.082 142.131C143.114 141.959 140.158 141.616 137.23 141.105Z" fill="#1A1A1A"/>
<path d="M167.987 133.753C163.262 133.971 158.537 134.135 153.811 134.295L146.722 134.542L143.177 134.656C142.045 134.663 140.916 134.777 139.805 134.995C137.604 135.432 135.509 136.293 133.636 137.53L132.209 138.52C131.76 138.829 131.331 139.166 130.925 139.529C130.136 140.253 129.458 141.089 128.912 142.01C128.375 142.93 127.976 143.924 127.73 144.96C127.609 145.476 127.528 146.001 127.487 146.529C127.455 146.792 127.463 147.058 127.45 147.322L127.448 148.199L127.427 155.289L127.359 169.468L127.225 183.646C127.143 193.098 126.982 202.549 126.742 212L126.319 226.174L126.209 229.717C126.195 230.301 126.164 230.915 126.164 231.473C126.156 232.009 126.188 232.545 126.261 233.077C126.546 235.233 127.477 237.252 128.932 238.869C129.669 239.673 130.514 240.371 131.443 240.942C132.393 241.489 133.413 241.904 134.476 242.174C135.582 242.403 136.708 242.518 137.837 242.518L141.377 242.647C146.099 242.776 150.822 242.888 155.546 242.926C174.44 243.095 193.319 242.502 212.182 241.146C221.601 240.476 231.002 239.616 240.383 238.639C242.729 238.403 245.068 238.106 247.411 237.843C249.757 237.586 252.087 237.28 254.412 236.964L257.903 236.503L258.776 236.391L259.213 236.335C259.247 236.334 259.28 236.327 259.312 236.315L259.463 236.276C259.922 236.139 260.366 235.954 260.787 235.725C261.643 235.26 262.402 234.634 263.021 233.881C263.635 233.105 264.107 232.227 264.415 231.287C264.725 230.295 264.902 229.267 264.944 228.228C264.985 227.693 264.986 227.155 264.947 226.619L264.898 225.805L264.874 225.396L264.835 224.932C264.632 222.468 264.595 220.104 264.565 217.711C264.531 212.943 264.646 208.192 264.856 203.444C265.274 193.95 266.158 184.487 267.358 175.065C269.734 156.193 273.94 137.596 279.917 119.539C282.934 110.517 286.652 101.746 291.037 93.3034C292.1 91.1788 293.296 89.1221 294.478 87.0628C295.709 85.0865 296.751 82.9986 297.59 80.8268C298.393 78.6428 298.938 76.3722 299.212 74.0614C299.356 72.9237 299.312 71.7703 299.083 70.6466C298.99 70.0973 298.757 69.5814 298.406 69.1487C298.055 68.716 297.598 68.3812 297.08 68.1767L297.068 68.1724C297.025 68.1571 296.99 68.1254 296.971 68.0843C296.951 68.0432 296.949 67.9961 296.964 67.9532C296.979 67.9104 297.011 67.8754 297.052 67.856C297.093 67.8365 297.14 67.8342 297.183 67.8495C297.789 68.0315 298.331 68.3787 298.75 68.8521C299.155 69.3315 299.452 69.8921 299.621 70.496C299.944 71.6745 300.062 72.8996 299.97 74.1181C299.805 76.5181 299.357 78.8904 298.637 81.1858C297.883 83.4672 296.916 85.6727 295.749 87.773C294.692 89.8758 293.56 91.9345 292.59 94.0786C290.527 98.303 288.764 102.667 287.045 107.038C285.408 111.445 283.861 115.882 282.468 120.37C279.667 129.346 277.348 138.466 275.523 147.69C274.586 152.297 273.76 156.927 272.983 161.564C272.234 166.206 271.569 170.862 270.989 175.529C270.42 180.198 269.874 184.87 269.46 189.555C269.042 194.24 268.698 198.929 268.428 203.624C268.162 208.317 267.991 213.017 267.967 217.701C267.966 220.034 267.98 222.399 268.138 224.649C268.443 227.225 268.216 229.837 267.472 232.323C267.026 233.628 266.35 234.842 265.476 235.908C264.579 236.976 263.483 237.858 262.248 238.505C261.626 238.833 260.97 239.093 260.293 239.282L260.014 239.351C259.904 239.379 259.792 239.399 259.679 239.414L259.235 239.465L258.349 239.568L254.803 239.966C252.438 240.236 250.076 240.494 247.718 240.701C245.359 240.915 243.002 241.163 240.641 241.349L233.559 241.909L226.469 242.344C224.107 242.498 221.742 242.601 219.378 242.714C217.014 242.826 214.651 242.947 212.285 243.022C202.83 243.439 193.369 243.591 183.913 243.77C174.456 243.921 164.999 244.011 155.542 244.039L141.354 244.057L137.806 244.053C136.571 244.093 135.336 244.007 134.118 243.796C131.607 243.288 129.31 242.024 127.537 240.174C125.291 237.828 124.009 234.723 123.945 231.476C123.925 230.852 123.936 230.285 123.93 229.687L123.919 226.142L123.886 211.961C123.915 202.508 124.015 193.056 124.186 183.605L124.444 169.428L124.768 155.253L124.942 148.165L124.969 147.27C124.991 146.944 124.995 146.618 125.042 146.294C125.111 145.646 125.23 145.004 125.397 144.373C126.067 141.847 127.485 139.582 129.467 137.877C129.953 137.465 130.465 137.085 131 136.738C131.499 136.414 131.97 136.09 132.517 135.757C134.652 134.46 137.019 133.591 139.485 133.197C140.704 133.005 141.937 132.928 143.169 132.964L146.714 133.012L153.803 133.129C158.529 133.202 163.256 133.279 167.984 133.41C168.028 133.411 168.07 133.429 168.101 133.461C168.133 133.493 168.15 133.535 168.151 133.58C168.151 133.624 168.134 133.667 168.104 133.699C168.073 133.732 168.031 133.751 167.987 133.753H167.987Z" fill="#1A1A1A"/>
<path d="M212.544 133.178C214.411 132.665 216.319 132.311 218.246 132.118C220.148 131.913 222.051 131.807 223.955 131.789C225.859 131.77 227.763 131.841 229.669 132.012C231.599 132.169 233.513 132.49 235.389 132.972C233.522 133.488 231.614 133.844 229.687 134.036C227.785 134.241 225.882 134.347 223.978 134.362C222.074 134.377 220.17 134.307 218.264 134.135C216.334 133.977 214.42 133.657 212.544 133.178ZM261.932 236.94C262.259 239.621 262.403 242.303 262.511 244.984C262.605 247.665 262.66 250.347 262.56 253.028C262.437 255.709 262.187 258.391 262.124 261.072C262.119 261.742 262.098 262.412 262.107 263.083C262.11 263.417 262.118 263.748 262.095 264.114C262.06 264.472 261.985 264.824 261.872 265.165C261.635 265.863 261.228 266.491 260.688 266.993C260.149 267.496 259.493 267.856 258.78 268.043C257.637 268.337 256.424 268.172 255.4 267.584C254.377 266.996 253.624 266.03 253.303 264.894C253.191 264.509 253.129 264.111 253.119 263.711L253.097 262.703C253.037 260.021 252.965 257.34 252.989 254.659C253.061 249.296 253.277 243.934 253.818 238.571C253.82 238.55 253.83 238.53 253.846 238.516C253.862 238.501 253.882 238.493 253.904 238.493C253.925 238.493 253.946 238.501 253.962 238.516C253.977 238.53 253.987 238.55 253.989 238.571C254.531 243.934 254.746 249.296 254.819 254.659C254.842 257.34 254.77 260.021 254.711 262.703L254.689 263.706C254.687 263.976 254.714 264.246 254.772 264.51C254.893 265.047 255.145 265.546 255.505 265.962C255.876 266.388 256.344 266.72 256.87 266.929C257.419 267.132 258.009 267.199 258.589 267.123C259.194 267.032 259.764 266.785 260.243 266.406C260.723 266.027 261.096 265.53 261.325 264.964C261.547 264.363 261.635 263.721 261.585 263.083C261.594 262.412 261.572 261.742 261.568 261.072C261.504 258.391 261.255 255.709 261.132 253.028C261.032 250.347 261.086 247.665 261.181 244.984C261.288 242.303 261.433 239.621 261.76 236.94C261.763 236.919 261.773 236.9 261.789 236.886C261.804 236.872 261.825 236.864 261.846 236.864C261.867 236.864 261.887 236.872 261.903 236.886C261.919 236.9 261.929 236.919 261.932 236.94H261.932ZM139.506 242.945C139.834 245.235 139.978 247.524 140.085 249.813C140.18 252.102 140.235 254.392 140.135 256.681C140.012 258.97 139.762 261.259 139.699 263.548C139.705 264.16 139.587 264.766 139.351 265.33C139.116 265.895 138.768 266.405 138.33 266.831C137.869 267.281 137.317 267.627 136.71 267.845C136.104 268.062 135.458 268.147 134.816 268.093C134.175 268.039 133.552 267.848 132.991 267.532C132.429 267.217 131.942 266.784 131.563 266.263C131.165 265.711 130.896 265.077 130.777 264.407C130.702 263.8 130.667 263.19 130.672 262.579C130.612 260.29 130.54 258 130.564 255.711C130.604 251.121 130.881 246.537 131.393 241.976C131.395 241.955 131.405 241.936 131.421 241.922C131.437 241.908 131.457 241.9 131.479 241.9C131.5 241.9 131.52 241.908 131.536 241.922C131.552 241.936 131.562 241.955 131.564 241.976C132.076 246.537 132.353 251.121 132.394 255.711C132.417 258 132.345 260.29 132.285 262.579C132.277 263.144 132.237 263.766 132.279 264.179C132.385 265.072 132.834 265.888 133.533 266.454C134.231 267.02 135.123 267.291 136.018 267.208C136.914 267.126 137.741 266.697 138.325 266.014C138.908 265.33 139.202 264.445 139.142 263.548C139.079 261.259 138.829 258.97 138.707 256.681C138.607 254.392 138.661 252.102 138.756 249.813C138.863 247.524 139.007 245.235 139.335 242.945C139.338 242.925 139.348 242.906 139.364 242.892C139.38 242.879 139.4 242.871 139.421 242.871C139.442 242.871 139.462 242.879 139.477 242.892C139.493 242.906 139.503 242.925 139.506 242.945L139.506 242.945ZM179.758 69.3138C181.461 69.4875 183.165 69.7585 184.804 69.811L184.76 69.8092L185.79 69.7541C185.946 69.7449 186.101 69.7983 186.218 69.9026C186.336 70.0068 186.407 70.1534 186.417 70.3103C186.427 70.4671 186.374 70.6215 186.27 70.7395C186.166 70.8575 186.02 70.9296 185.863 70.9399C185.483 70.9644 185.096 70.983 184.709 70.9891C184.674 70.9897 184.64 70.9847 184.607 70.9743L184.557 70.9582C183.656 70.6748 182.736 70.4556 181.804 70.3022C180.877 70.163 179.943 70.0799 179.006 70.0532C178.068 70.0264 177.129 70.0518 176.194 70.1292C175.239 70.229 174.291 70.3814 173.352 70.5857L173.447 70.5486C173.309 70.6047 173.185 70.6904 173.084 70.7996C172.982 70.9088 172.906 71.0389 172.861 71.1808C172.797 71.4374 173.028 71.7562 173.283 72.031C173.915 72.5611 174.635 72.9767 175.41 73.2588C175.808 73.3994 176.197 73.5589 176.601 73.6841L177.823 74.0301C178.652 74.2133 179.482 74.3997 180.31 74.548C180.374 74.5593 180.434 74.5876 180.484 74.6298L180.526 74.6658C181.468 75.4554 182.465 76.1776 183.51 76.8268C184.527 77.481 185.598 78.048 186.711 78.522C187.767 78.9831 188.903 79.232 190.055 79.2544C191.123 79.2698 192.166 78.9329 193.023 78.296L193.049 78.2766C193.193 78.1694 193.367 78.1099 193.547 78.1062C193.727 78.1025 193.903 78.1549 194.052 78.256C195.065 78.9482 196.091 79.6212 197.094 80.3292C198.102 81.0301 199.103 81.7408 200.098 82.4614C201.095 83.1784 202.069 83.9308 203.056 84.6637C204.037 85.4056 205.004 86.1687 205.958 86.953C205.974 86.9661 205.984 86.9847 205.987 87.0052C205.991 87.0257 205.986 87.0466 205.975 87.064C205.964 87.0813 205.946 87.0939 205.926 87.0994C205.906 87.1048 205.885 87.1027 205.866 87.0934C204.762 86.5417 203.671 85.9684 202.595 85.3734C201.524 84.7699 200.441 84.1856 199.38 83.5662C198.316 82.9527 197.259 82.327 196.211 81.689C195.156 81.0605 194.124 80.3971 193.08 79.7528L194.108 79.7129C192.941 80.609 191.495 81.0634 190.026 80.9957C188.657 80.9132 187.317 80.5608 186.085 79.9588C184.9 79.403 183.782 78.7148 182.751 77.9074C181.735 77.1117 180.783 76.2367 179.904 75.2906L180.119 75.4084C179.284 75.1688 178.471 74.8811 177.65 74.6214C176.834 74.339 176.02 74.058 175.216 73.7319C174.387 73.4181 173.605 72.992 172.891 72.4657C172.68 72.3102 172.505 72.11 172.379 71.8794C172.253 71.6488 172.179 71.3933 172.163 71.1311C172.173 70.8403 172.274 70.5601 172.452 70.3293C172.611 70.1121 172.81 69.9265 173.037 69.7818C173.049 69.7744 173.062 69.7684 173.075 69.7639L173.133 69.7446C174.072 69.4056 175.03 69.1218 176.002 68.8947C176.996 68.6704 178.012 68.5597 179.031 68.5647C181.065 68.5791 183.078 68.9781 184.963 69.7404L184.811 69.7096C185.11 69.7157 185.41 69.7343 185.716 69.7587L185.79 70.9446L184.76 70.8895L184.716 70.8877C183.852 70.7537 182.999 70.5594 182.163 70.3062C181.335 70.0645 180.52 69.788 179.718 69.4765C179.699 69.4691 179.683 69.455 179.674 69.4368C179.664 69.4187 179.662 69.3977 179.667 69.3778C179.671 69.358 179.683 69.3405 179.7 69.3288C179.717 69.317 179.737 69.3117 179.758 69.3138L179.758 69.3138ZM179.936 63.2452C183.237 63.4883 186.491 64.1676 189.614 65.2656C192.75 66.2955 195.819 67.5188 198.804 68.9286C201.779 70.3453 204.701 71.8681 207.531 73.5473C210.378 75.2005 213.121 77.0265 215.745 79.0151C212.771 77.5995 209.84 76.1446 206.91 74.6966C203.973 73.2623 201.048 71.818 198.094 70.4436C195.156 69.0332 192.17 67.7393 189.167 66.4879C186.163 65.2088 183.08 64.1257 179.936 63.2452ZM54.1482 164.399C55.1359 165.462 56.1319 166.534 57.1364 167.58C57.5048 166.191 57.9149 164.809 58.2999 163.412C56.9188 163.763 55.5349 164.092 54.1482 164.399ZM57.7726 168.25C58.8355 169.371 59.907 170.501 60.9952 171.606L61.3133 171.924C61.5979 170.418 61.9076 168.911 62.2256 167.404C60.7356 167.689 59.2624 167.965 57.7726 168.25V168.25ZM61.8992 172.518C63.3557 173.983 64.8205 175.432 66.3187 176.846L66.7289 173.833L67.0805 170.928C65.3477 171.447 63.6319 172 61.8992 172.518ZM66.5949 177.114C67.1893 177.666 67.7919 178.227 68.4113 178.771C69.3907 179.675 70.4035 180.554 71.4246 181.408C71.5252 179.29 71.6424 177.178 71.7762 175.072C70.0436 175.75 68.3193 176.419 66.5949 177.114ZM77.3007 179.382C75.568 180.253 73.8271 181.098 72.0943 181.969C73.4805 183.111 74.9249 184.181 76.4217 185.175C76.7232 185.384 77.0245 185.576 77.3342 185.761L77.3007 179.382ZM83.3943 181.626C81.6282 183.149 79.8285 184.63 78.0456 186.137C78.031 186.148 78.0135 186.153 77.9955 186.154C78.9311 186.704 79.9144 187.169 80.9335 187.543C81.7832 187.884 82.6883 188.065 83.6036 188.079C84.2141 188.08 84.8202 187.976 85.3949 187.769C84.7086 185.719 84.0473 183.676 83.3944 181.626H83.3943ZM54.1482 164.399C55.1358 165.462 56.1319 166.534 57.1364 167.58C57.5047 166.191 57.9149 164.809 58.2998 163.412C56.9188 163.763 55.5349 164.092 54.1482 164.399L54.1482 164.399ZM57.7725 168.25C58.8355 169.371 59.9069 170.501 60.9951 171.606L61.3132 171.924C61.5978 170.418 61.9075 168.911 62.2256 167.404C60.7356 167.689 59.2624 167.965 57.7726 168.25H57.7725ZM61.8992 172.519C63.3556 173.983 64.8205 175.432 66.3187 176.846L66.7288 173.833L67.0804 170.928C65.3477 171.447 63.6319 172 61.8992 172.518L61.8992 172.519ZM66.5949 177.114C67.1892 177.666 67.7919 178.227 68.4113 178.771C69.3906 179.675 70.4034 180.554 71.4246 181.408C71.5251 179.29 71.6423 177.178 71.7762 175.072C70.0436 175.75 68.3193 176.419 66.5949 177.114L66.5949 177.114ZM77.3006 179.382C75.5679 180.253 73.827 181.098 72.0942 181.969C73.4804 183.111 74.9248 184.181 76.4217 185.175C76.7231 185.384 77.0244 185.576 77.3341 185.761L77.3006 179.382ZM83.3943 181.626C81.6281 183.149 79.8285 184.63 78.0456 186.137C78.0309 186.148 78.0134 186.154 77.9954 186.154C78.931 186.704 79.9143 187.169 80.9334 187.543C81.7832 187.884 82.6882 188.066 83.6036 188.079C84.2141 188.08 84.8202 187.976 85.3948 187.769C84.7086 185.719 84.0473 183.676 83.3944 181.626L83.3943 181.626ZM54.1481 164.399C55.1358 165.462 56.1318 166.534 57.1363 167.58C57.5047 166.191 57.9148 164.809 58.2998 163.412C56.9187 163.763 55.5349 164.092 54.1482 164.399L54.1481 164.399ZM57.7725 168.25C58.8354 169.371 59.9069 170.501 60.9951 171.606L61.3131 171.924C61.5977 170.418 61.9074 168.911 62.2255 167.404C60.7356 167.689 59.2624 167.965 57.7726 168.25L57.7725 168.25ZM61.8991 172.519C63.3556 173.983 64.8204 175.432 66.3186 176.846L66.7288 173.833L67.0804 170.928C65.3477 171.447 63.6319 172 61.8992 172.518L61.8991 172.519ZM66.5948 177.114C67.1892 177.666 67.7918 178.227 68.4112 178.771C69.3906 179.675 70.4034 180.554 71.4245 181.408C71.5251 179.29 71.6423 177.178 71.7761 175.072C70.0436 175.75 68.3193 176.419 66.5949 177.114L66.5948 177.114ZM77.3006 179.382C75.5678 180.253 73.8269 181.098 72.0942 181.969C73.4803 183.111 74.9247 184.182 76.4216 185.175C76.723 185.384 77.0243 185.576 77.3341 185.761L77.3006 179.382ZM83.3942 181.626C81.6281 183.149 79.8284 184.631 78.0455 186.137C78.0309 186.148 78.0134 186.154 77.9954 186.154C78.931 186.704 79.9143 187.169 80.9334 187.543C81.7831 187.884 82.6882 188.066 83.6035 188.079C84.214 188.08 84.8201 187.976 85.3948 187.769C84.7086 185.719 84.0473 183.676 83.3944 181.626L83.3942 181.626ZM54.1481 164.399C55.1357 165.462 56.1317 166.534 57.1362 167.58C57.5046 166.191 57.9147 164.809 58.2997 163.412C56.9187 163.763 55.5349 164.092 54.1482 164.399L54.1481 164.399ZM57.7724 168.25C58.8354 169.371 59.9068 170.501 60.995 171.606L61.3131 171.924C61.5977 170.418 61.9074 168.911 62.2255 167.404C60.7356 167.689 59.2624 167.965 57.7726 168.25L57.7724 168.25ZM61.8991 172.519C63.3555 173.983 64.8203 175.432 66.3186 176.846L66.7287 173.833L67.0803 170.928C65.3477 171.447 63.6319 172 61.8992 172.518L61.8991 172.519ZM66.5947 177.114C67.1891 177.667 67.7918 178.227 68.4111 178.771C69.3905 179.675 70.4033 180.554 71.4245 181.408C71.525 179.29 71.6422 177.178 71.776 175.072C70.0436 175.75 68.3193 176.419 66.5949 177.114L66.5947 177.114ZM77.3005 179.382C75.5678 180.253 73.8269 181.098 72.0941 181.969C73.4803 183.111 74.9247 184.182 76.4216 185.175C76.723 185.384 77.0243 185.577 77.334 185.761L77.3005 179.382ZM83.3942 181.626C81.628 183.149 79.8284 184.631 78.0455 186.137C78.0308 186.148 78.0133 186.154 77.9953 186.154C78.9309 186.705 79.9142 187.17 80.9333 187.543C81.7831 187.884 82.6881 188.066 83.6034 188.079C84.214 188.08 84.8201 187.976 85.3947 187.769C84.7086 185.719 84.0473 183.676 83.3944 181.626L83.3942 181.626ZM54.148 164.399C55.1357 165.462 56.1317 166.534 57.1362 167.58C57.5045 166.191 57.9147 164.809 58.2997 163.412C56.9187 163.763 55.5349 164.092 54.1482 164.399L54.148 164.399ZM57.7723 168.25C58.8353 169.371 59.9067 170.501 60.995 171.606L61.313 171.924C61.5976 170.418 61.9073 168.911 62.2254 167.404C60.7356 167.689 59.2624 167.965 57.7726 168.25L57.7723 168.25ZM61.899 172.519C63.3555 173.983 64.8203 175.432 66.3185 176.846L66.7287 173.833L67.0802 170.928C65.3477 171.447 63.6319 172 61.8992 172.518L61.899 172.519ZM66.5947 177.114C67.1891 177.667 67.7917 178.227 68.4111 178.771C69.3905 179.675 70.4032 180.554 71.4244 181.408C71.525 179.29 71.6422 177.178 71.776 175.072C70.0436 175.75 68.3193 176.419 66.5949 177.114L66.5947 177.114ZM77.3005 179.382C75.5677 180.253 73.8268 181.098 72.0941 181.969C73.4802 183.111 74.9246 184.182 76.4215 185.175C76.7229 185.384 77.0242 185.577 77.3339 185.761L77.3005 179.382ZM83.3941 181.626C81.628 183.149 79.8283 184.631 78.0454 186.137C78.0308 186.148 78.0133 186.154 77.9952 186.154C78.9308 186.705 79.9142 187.17 80.9333 187.543C81.783 187.884 82.688 188.066 83.6034 188.079C84.2139 188.081 84.82 187.976 85.3946 187.769C84.7086 185.719 84.0473 183.676 83.3944 181.626L83.3941 181.626ZM54.1479 164.399C55.1356 165.462 56.1316 166.534 57.1361 167.58C57.5045 166.191 57.9146 164.809 58.2996 163.412C56.9187 163.763 55.5349 164.092 54.1482 164.399L54.1479 164.399ZM57.7723 168.25C58.8352 169.371 59.9067 170.501 60.9949 171.606L61.313 171.924C61.5976 170.418 61.9073 168.911 62.2253 167.404C60.7356 167.689 59.2624 167.965 57.7726 168.25L57.7723 168.25ZM61.8989 172.519C63.3554 173.983 64.8202 175.432 66.3184 176.846L66.7286 173.833L67.0802 170.928C65.3477 171.447 63.6319 172 61.8992 172.518L61.8989 172.519ZM66.5946 177.114C67.189 177.667 67.7916 178.227 68.411 178.771C69.3904 179.675 70.4032 180.554 71.4244 181.408C71.5249 179.29 71.6421 177.178 71.7759 175.072C70.0436 175.75 68.3193 176.419 66.5949 177.114L66.5946 177.114ZM77.3004 179.382C75.5676 180.253 73.8267 181.098 72.094 181.969C73.4801 183.112 74.9246 184.182 76.4214 185.175C76.7229 185.384 77.0242 185.577 77.3339 185.761L77.3004 179.382ZM83.394 181.626C81.6279 183.149 79.8283 184.631 78.0454 186.137C78.0307 186.148 78.0132 186.154 77.9952 186.154C78.9308 186.705 79.9141 187.17 80.9332 187.544C81.783 187.884 82.688 188.066 83.6033 188.079C84.2138 188.081 84.8199 187.976 85.3946 187.77C84.7086 185.719 84.0473 183.676 83.3944 181.626L83.394 181.626ZM54.1479 164.399C55.1355 165.462 56.1316 166.534 57.1361 167.58C57.5044 166.191 57.9146 164.81 58.2996 163.412C56.9187 163.763 55.5349 164.092 54.1482 164.399L54.1479 164.399ZM57.7722 168.25C58.8352 169.371 59.9066 170.501 60.9948 171.606L61.3129 171.924C61.5975 170.418 61.9072 168.911 62.2253 167.404C60.7356 167.689 59.2624 167.965 57.7726 168.25L57.7722 168.25ZM61.8989 172.519C63.3553 173.984 64.8202 175.432 66.3184 176.846L66.7285 173.833L67.0801 170.928C65.3477 171.447 63.6319 172 61.8992 172.518L61.8989 172.519ZM66.5946 177.114C67.1889 177.667 67.7916 178.227 68.411 178.771C69.3903 179.675 70.4031 180.554 71.4243 181.408C71.5249 179.29 71.642 177.178 71.7759 175.072C70.0436 175.75 68.3193 176.419 66.5949 177.114L66.5946 177.114ZM77.3003 179.382C75.5676 180.253 73.8267 181.098 72.0939 181.969C73.4801 183.112 74.9245 184.182 76.4214 185.175C76.7228 185.384 77.0241 185.577 77.3338 185.761L77.3003 179.382ZM83.394 181.626C81.6278 183.149 79.8282 184.631 78.0453 186.137C78.0306 186.148 78.0132 186.154 77.9951 186.154C78.9307 186.705 79.914 187.17 80.9331 187.544C81.7829 187.884 82.6879 188.066 83.6033 188.079C84.2138 188.081 84.8199 187.976 85.3945 187.77C84.7086 185.719 84.0473 183.676 83.3944 181.626L83.394 181.626ZM54.1478 164.399C55.1355 165.462 56.1315 166.534 57.136 167.58C57.5044 166.191 57.9145 164.81 58.2995 163.412C56.9186 163.763 55.5349 164.092 54.1482 164.399L54.1478 164.399ZM57.7722 168.25C58.8351 169.371 59.9066 170.502 60.9948 171.606L61.3129 171.924C61.5974 170.418 61.9072 168.911 62.2252 167.405C60.7356 167.689 59.2624 167.965 57.7726 168.25L57.7722 168.25ZM61.8988 172.519C63.3553 173.984 64.8201 175.432 66.3183 176.846L66.7285 173.833L67.0801 170.928C65.3477 171.447 63.6319 172 61.8992 172.518L61.8988 172.519ZM66.5945 177.114C67.1889 177.667 67.7915 178.227 68.4109 178.771C69.3903 179.675 70.403 180.554 71.4242 181.408C71.5248 179.29 71.642 177.178 71.7758 175.072C70.0436 175.75 68.3193 176.419 66.5949 177.114L66.5945 177.114ZM77.3003 179.382C75.5675 180.253 73.8266 181.098 72.0939 181.969C73.48 183.112 74.9245 184.182 76.4213 185.175C76.7227 185.384 77.0241 185.577 77.3338 185.761L77.3003 179.382ZM83.3939 181.626C81.6278 183.149 79.8281 184.631 78.0452 186.137C78.0306 186.148 78.0131 186.154 77.9951 186.154C78.9307 186.705 79.914 187.17 80.9331 187.544C81.7828 187.884 82.6879 188.066 83.6032 188.079C84.2137 188.081 84.8198 187.976 85.3945 187.77C84.7086 185.719 84.0473 183.676 83.3944 181.626L83.3939 181.626ZM86.5915 205.138C85.5954 206.344 84.6076 207.541 83.6032 208.729C85.1434 209.131 86.6834 209.499 88.2488 209.809C87.68 208.26 87.1359 206.703 86.592 205.138L86.5915 205.138ZM93.3965 208.076L92.4089 205.515C91.3291 207.013 90.2409 208.503 89.1528 210.001C90.7934 210.345 92.434 210.646 94.0913 210.897C94.2419 210.914 94.3927 210.931 94.5516 210.956C94.1587 210.001 93.7653 209.039 93.397 208.076L93.3965 208.076ZM98.1594 205.364C97.1968 207.248 96.2843 209.164 95.3553 211.073C97.3389 211.358 99.3396 211.592 101.332 211.751C100.294 209.616 99.2479 207.473 98.1598 205.364L98.1594 205.364ZM105.609 206.268L101.918 211.81C102.981 211.885 104.044 211.952 105.107 211.977C106.203 212.019 107.3 212.019 108.396 212.01L105.609 206.268ZM112.715 206.059C111.636 208.043 110.539 210.01 109.443 211.977C111.682 211.912 113.917 211.733 116.139 211.441C116.201 211.433 116.262 211.422 116.323 211.408C115.093 209.633 113.921 207.842 112.716 206.059L112.715 206.059ZM120.09 204.527C119.136 206.779 118.156 209.005 117.185 211.249C118.655 211.019 120.107 210.686 121.53 210.253C122.838 209.928 124.117 209.497 125.355 208.964L125.363 208.076C123.597 206.904 121.84 205.721 120.09 204.527L120.09 204.527ZM163.649 118.647L129.682 94.4228C125.92 91.9024 121.634 90.2729 117.147 89.6579C112.661 89.043 108.094 89.4589 103.793 90.8739C97.498 93.025 90.877 97.6455 85.8296 106.978C85.8296 106.978 63.623 149.09 53.8798 164.106C53.9468 164.173 54.022 164.257 54.0807 164.324C54.0818 164.324 54.0829 164.324 54.0839 164.324C54.085 164.323 54.0859 164.323 54.0867 164.322C54.0875 164.321 54.0881 164.32 54.0885 164.319C54.0889 164.318 54.0891 164.317 54.0891 164.316C55.579 163.814 57.0717 163.334 58.5672 162.876C58.5963 162.865 58.6273 162.861 58.6583 162.862C58.6893 162.864 58.7195 162.872 58.7471 162.887C58.7747 162.901 58.7991 162.921 58.8185 162.945C58.838 162.969 58.8522 162.997 58.8602 163.027C58.8686 163.065 58.8686 163.105 58.8602 163.144V163.161C58.5255 164.609 58.2073 166.065 57.8474 167.522C59.4544 167.179 61.056 166.844 62.652 166.517C62.7551 166.497 62.862 166.518 62.9497 166.576C63.0374 166.634 63.0988 166.724 63.1208 166.827C63.1292 166.882 63.1292 166.939 63.1208 166.994C62.7524 168.618 62.4008 170.242 61.9991 171.866C63.7318 171.422 65.4895 171.004 67.2306 170.543C67.2515 170.538 67.2733 170.536 67.2948 170.539C67.3163 170.542 67.337 170.549 67.3557 170.56C67.3745 170.57 67.3908 170.585 67.4038 170.602C67.4168 170.62 67.4262 170.639 67.4315 170.66C67.4383 170.679 67.4412 170.699 67.4398 170.719L66.9962 173.866L66.6447 176.737C68.436 175.959 70.2133 175.167 71.9767 174.36C72.0467 174.328 72.1264 174.325 72.1985 174.352C72.2707 174.379 72.3293 174.433 72.3618 174.503C72.378 174.54 72.3865 174.579 72.3868 174.62V174.636C72.3618 176.746 72.3172 178.85 72.2529 180.948C74.0191 180.035 75.7852 179.106 77.5514 178.211C77.6627 178.154 77.7915 178.144 77.9104 178.181C78.0293 178.219 78.1288 178.302 78.1876 178.411C78.2209 178.479 78.238 178.554 78.2377 178.629L78.2043 184.907C79.9202 183.568 81.6278 182.22 83.352 180.906L83.3688 180.897C83.3983 180.874 83.4322 180.857 83.4685 180.846C83.5048 180.836 83.5428 180.833 83.5803 180.838C83.6177 180.843 83.6538 180.855 83.6865 180.874C83.7192 180.893 83.7477 180.918 83.7706 180.948C83.7895 180.979 83.8036 181.013 83.8124 181.048C84.3899 183.266 84.9452 185.493 85.4781 187.728C85.6122 187.679 85.7435 187.623 85.8715 187.56C84.3984 188.548 82.4481 188.448 80.799 187.962C79.1342 187.425 77.5428 186.683 76.0615 185.752C73.1286 183.895 70.3691 181.777 67.8166 179.424C65.2804 177.064 62.8194 174.628 60.5008 172.067C58.2659 169.597 56.1147 167.061 54.0975 164.399C54.0807 164.391 54.064 164.391 54.064 164.374C54.064 164.366 54.0724 164.366 54.0724 164.358C54.0137 164.274 53.9385 164.199 53.8798 164.107C51.9798 167.045 50.5568 168.945 49.8621 169.296C49.8621 169.296 68.7876 194.742 85.2019 197.689C85.7378 191.227 86.4073 184.765 87.3616 178.336C88.2823 171.908 89.4039 165.496 90.7934 159.143C92.1231 152.761 93.8935 146.48 96.0919 140.343C97.196 137.256 98.5772 134.275 100.219 131.437C101.067 130.02 102.1 128.723 103.291 127.578C103.899 127.006 104.608 126.551 105.383 126.239C105.764 126.072 106.178 125.999 106.593 126.023C107.008 126.048 107.411 126.171 107.769 126.381C107.407 126.215 107.01 126.135 106.612 126.15C106.214 126.164 105.824 126.272 105.475 126.465C104.773 126.832 104.142 127.319 103.609 127.904C102.55 129.099 101.657 130.43 100.955 131.864C99.5139 134.736 98.3074 137.72 97.3475 140.787C96.3514 143.842 95.4725 146.956 94.6857 150.078C93.8738 153.208 93.1204 156.347 92.4675 159.511C91.0613 165.822 89.8644 172.184 88.6842 178.545L85.202 197.689L83.2019 208.637C83.3023 208.662 83.4028 208.679 83.5032 208.704C84.4826 207.314 85.4786 205.933 86.4915 204.544C86.5273 204.498 86.5799 204.467 86.6379 204.46C86.6958 204.452 86.7545 204.467 86.8013 204.502C86.8374 204.528 86.8662 204.562 86.8848 204.602V204.611C87.5126 206.176 88.1572 207.75 88.7766 209.323C89.915 207.699 91.045 206.067 92.2001 204.46C92.2605 204.374 92.3523 204.315 92.4557 204.297C92.5591 204.278 92.6657 204.3 92.7525 204.36C92.8115 204.411 92.8598 204.474 92.8948 204.544L94.0918 207.817C94.4098 208.695 94.7112 209.583 95.0209 210.478C96.0254 208.637 97.0466 206.795 98.0176 204.937C98.0355 204.9 98.0675 204.871 98.1067 204.857C98.1459 204.843 98.189 204.844 98.2268 204.862C98.2519 204.887 98.2771 204.912 98.3022 204.937C99.3736 207.172 100.495 209.365 101.634 211.567L105.375 205.414C105.421 205.338 105.495 205.283 105.581 205.261C105.668 205.239 105.759 205.252 105.836 205.297C105.881 205.336 105.921 205.381 105.953 205.431L105.961 205.439L108.907 211.156C110.021 209.089 111.126 207.005 112.272 204.945L112.281 204.937C112.309 204.884 112.348 204.837 112.394 204.8C112.441 204.762 112.495 204.734 112.553 204.717C112.611 204.701 112.671 204.696 112.731 204.704C112.791 204.712 112.848 204.731 112.9 204.761C112.968 204.793 113.024 204.846 113.059 204.912C114.265 206.737 115.478 208.553 116.667 210.386C117.68 208.252 118.667 206.109 119.705 203.991V203.966C119.743 203.902 119.803 203.853 119.875 203.832C119.946 203.81 120.023 203.816 120.09 203.849C120.103 203.859 120.117 203.868 120.132 203.874C121.89 205.188 123.631 206.519 125.372 207.858L125.464 201.078C125.306 201.148 125.135 201.182 124.962 201.179C124.618 201.166 124.292 201.02 124.053 200.771C123.815 200.523 123.681 200.192 123.681 199.848C123.681 199.504 123.815 199.173 124.053 198.924C124.292 198.676 124.618 198.53 124.962 198.517C125.146 198.511 125.33 198.548 125.498 198.626L126.201 147.382C126.201 147.382 125.732 137.89 137.467 134.617L174.205 134.927C174.205 134.927 167.969 126.021 163.65 118.647L163.649 118.647ZM58.8016 160.541C58.4567 160.53 58.1295 160.386 57.8892 160.138C57.649 159.891 57.5146 159.559 57.5146 159.214C57.5146 158.869 57.649 158.538 57.8892 158.29C58.1295 158.042 58.4567 157.898 58.8016 157.887C59.1457 157.899 59.4719 158.044 59.7113 158.291C59.9506 158.539 60.0845 158.869 60.0845 159.214C60.0846 159.558 59.9509 159.889 59.7116 160.136C59.4723 160.384 59.1462 160.529 58.8021 160.541L58.8016 160.541ZM62.1999 165.01C61.8558 164.997 61.5302 164.851 61.2914 164.603C61.0527 164.355 60.9193 164.024 60.9193 163.68C60.9193 163.335 61.0527 163.004 61.2914 162.756C61.5302 162.508 61.8558 162.362 62.1999 162.349C62.5434 162.363 62.8682 162.509 63.1063 162.757C63.3444 163.005 63.4774 163.335 63.4775 163.679C63.4776 164.023 63.3447 164.354 63.1067 164.602C62.8687 164.85 62.544 164.996 62.2005 165.01L62.1999 165.01ZM67.4147 168.945C67.071 168.933 66.7454 168.787 66.5065 168.54C66.2676 168.292 66.1341 167.962 66.1341 167.618C66.1341 167.274 66.2676 166.943 66.5065 166.696C66.7454 166.449 67.071 166.303 67.4147 166.291C67.7578 166.304 68.0825 166.45 68.3206 166.697C68.5588 166.944 68.6919 167.274 68.6919 167.618C68.692 167.961 68.559 168.291 68.321 168.538C68.0829 168.786 67.7583 168.931 67.4152 168.944L67.4147 168.945ZM72.3115 172.778C71.9663 172.767 71.639 172.621 71.3989 172.373C71.1588 172.125 71.0245 171.793 71.0245 171.447C71.0245 171.102 71.1588 170.77 71.3989 170.522C71.639 170.273 71.9663 170.128 72.3115 170.117C72.656 170.129 72.9823 170.275 73.2217 170.523C73.461 170.771 73.5948 171.102 73.5949 171.447C73.5949 171.792 73.4613 172.123 73.222 172.371C72.9827 172.62 72.6565 172.765 72.312 172.778L72.3115 172.778ZM77.6267 176.177C77.2829 176.165 76.9573 176.019 76.7184 175.772C76.4795 175.524 76.346 175.194 76.346 174.85C76.346 174.506 76.4795 174.175 76.7184 173.928C76.9573 173.68 77.2829 173.535 77.6267 173.523C77.9698 173.536 78.2945 173.682 78.5327 173.929C78.7709 174.176 78.9039 174.506 78.904 174.85C78.904 175.193 78.7711 175.523 78.533 175.77C78.2949 176.018 77.9703 176.163 77.6272 176.176L77.6267 176.177ZM83.9045 178.947C83.5593 178.936 83.2321 178.79 82.992 178.542C82.7519 178.294 82.6177 177.962 82.6177 177.616C82.6177 177.271 82.7519 176.939 82.992 176.691C83.2321 176.442 83.5593 176.297 83.9045 176.285C84.249 176.298 84.5753 176.444 84.8146 176.692C85.054 176.94 85.1877 177.271 85.1878 177.616C85.1878 177.961 85.0542 178.292 84.8149 178.54C84.5757 178.788 84.2495 178.934 83.905 178.947L83.9045 178.947ZM52.8587 169.48C52.5258 169.469 52.2104 169.328 51.9791 169.088C51.7478 168.849 51.6185 168.529 51.6185 168.195C51.6185 167.862 51.7478 167.542 51.9791 167.303C52.2104 167.063 52.5258 166.922 52.8587 166.911C53.1909 166.923 53.5053 167.064 53.7359 167.304C53.9665 167.543 54.0953 167.863 54.0954 168.195C54.0955 168.528 53.9667 168.847 53.7362 169.087C53.5057 169.326 53.1914 169.467 52.8592 169.48L52.8587 169.48ZM57.387 174.628C57.0536 174.617 56.7375 174.477 56.5055 174.237C56.2736 173.997 56.1439 173.677 56.1439 173.343C56.1439 173.01 56.2736 172.689 56.5055 172.449C56.7375 172.21 57.0536 172.069 57.387 172.058C57.7197 172.07 58.0348 172.211 58.266 172.45C58.4971 172.69 58.6264 173.01 58.6264 173.343C58.6265 173.676 58.4974 173.996 58.2663 174.235C58.0352 174.475 57.7202 174.616 57.3875 174.628L57.387 174.628ZM62.1246 179.567C61.7917 179.555 61.4764 179.414 61.2451 179.175C61.0138 178.935 60.8845 178.615 60.8845 178.282C60.8845 177.949 61.0138 177.629 61.2451 177.389C61.4764 177.149 61.7917 177.009 62.1246 176.997C62.4569 177.01 62.7713 177.15 63.0019 177.39C63.2326 177.629 63.3614 177.949 63.3615 178.281C63.3616 178.614 63.2328 178.934 63.0023 179.173C62.7718 179.413 62.4574 179.554 62.1252 179.567L62.1246 179.567ZM67.2724 185.133C66.9381 185.122 66.6212 184.981 66.3887 184.74C66.1562 184.5 66.0262 184.178 66.0262 183.844C66.0262 183.509 66.1562 183.188 66.3887 182.947C66.6212 182.707 66.9381 182.566 67.2724 182.555C67.6061 182.567 67.922 182.708 68.1538 182.948C68.3855 183.189 68.5151 183.51 68.5151 183.844C68.5152 184.177 68.3858 184.498 68.1541 184.739C67.9225 184.979 67.6066 185.12 67.273 185.133L67.2724 185.133ZM72.4202 189.662C72.0859 189.65 71.769 189.509 71.5365 189.269C71.304 189.028 71.174 188.707 71.174 188.372C71.174 188.038 71.304 187.716 71.5365 187.476C71.769 187.235 72.0859 187.095 72.4202 187.083C72.7539 187.096 73.0698 187.237 73.3016 187.477C73.5333 187.717 73.6629 188.038 73.663 188.372C73.663 188.706 73.5336 189.027 73.302 189.267C73.0703 189.508 72.7544 189.649 72.4208 189.661L72.4202 189.662ZM77.9782 192.951C77.6442 192.941 77.3273 192.801 77.0947 192.561C76.862 192.321 76.7319 192 76.7319 191.666C76.7319 191.332 76.862 191.011 77.0947 190.771C77.3273 190.531 77.6442 190.391 77.9782 190.381C78.3115 190.392 78.6274 190.533 78.8592 190.772C79.0911 191.012 79.2207 191.332 79.2208 191.666C79.2209 191.999 79.0914 192.32 78.8596 192.559C78.6279 192.799 78.312 192.94 77.9788 192.951L77.9782 192.951ZM83.536 195.429C83.2017 195.417 82.8848 195.277 82.6523 195.036C82.4198 194.796 82.2898 194.474 82.2898 194.14C82.2898 193.805 82.4198 193.484 82.6523 193.243C82.8848 193.003 83.2017 192.862 83.536 192.851C83.8696 192.863 84.1854 193.004 84.4171 193.244C84.6488 193.485 84.7782 193.805 84.7783 194.139C84.7784 194.473 84.6491 194.794 84.4175 195.034C84.1859 195.275 83.8702 195.416 83.5366 195.428L83.536 195.429ZM87.0935 201.179C86.7494 201.166 86.4237 201.02 86.185 200.772C85.9462 200.524 85.8128 200.193 85.8128 199.848C85.8128 199.504 85.9462 199.173 86.185 198.925C86.4237 198.677 86.7494 198.531 87.0935 198.517C87.4369 198.531 87.7616 198.678 87.9996 198.926C88.2376 199.174 88.3706 199.504 88.3707 199.848C88.3707 200.191 88.2379 200.522 88 200.77C87.7621 201.018 87.4375 201.165 87.0941 201.179L87.0935 201.179ZM93.8987 202.451C93.5552 202.439 93.2299 202.294 92.9912 202.046C92.7526 201.799 92.6192 201.468 92.6192 201.125C92.6192 200.781 92.7526 200.451 92.9912 200.203C93.2299 199.956 93.5552 199.81 93.8987 199.798C94.2418 199.811 94.5664 199.956 94.8045 200.204C95.0426 200.451 95.1757 200.781 95.1758 201.124C95.1758 201.468 95.0429 201.798 94.8049 202.045C94.5669 202.292 94.2423 202.438 93.8993 202.451L93.8987 202.451ZM101.775 203.305C101.43 203.294 101.103 203.148 100.863 202.9C100.622 202.652 100.488 202.32 100.488 201.974C100.488 201.629 100.622 201.297 100.863 201.049C101.103 200.8 101.43 200.655 101.775 200.643C102.12 200.656 102.446 200.802 102.685 201.05C102.925 201.298 103.059 201.629 103.059 201.974C103.059 202.319 102.925 202.65 102.686 202.898C102.447 203.146 102.12 203.292 101.776 203.305L101.775 203.305ZM110.497 203.196C110.152 203.186 109.825 203.042 109.585 202.794C109.345 202.546 109.21 202.215 109.21 201.87C109.21 201.525 109.345 201.193 109.585 200.946C109.825 200.698 110.152 200.554 110.497 200.543C110.841 200.554 111.168 200.699 111.407 200.947C111.647 201.194 111.781 201.525 111.781 201.869C111.781 202.214 111.647 202.545 111.408 202.792C111.168 203.04 110.842 203.185 110.498 203.196L110.497 203.196ZM118.365 202.242C118.021 202.229 117.696 202.083 117.457 201.835C117.218 201.587 117.085 201.256 117.085 200.911C117.085 200.567 117.218 200.236 117.457 199.988C117.696 199.74 118.021 199.594 118.365 199.58C118.709 199.594 119.034 199.741 119.272 199.989C119.51 200.237 119.643 200.567 119.643 200.911C119.643 201.255 119.51 201.585 119.272 201.833C119.034 202.081 118.709 202.228 118.366 202.242L118.365 202.242ZM117.185 211.249C118.655 211.019 120.106 210.686 121.529 210.253C122.837 209.928 124.117 209.497 125.355 208.964L125.363 208.076C123.597 206.904 121.839 205.721 120.09 204.527C119.136 206.779 118.157 209.005 117.186 211.248L117.185 211.249ZM109.443 211.977C111.682 211.912 113.917 211.733 116.139 211.441C116.201 211.433 116.262 211.422 116.323 211.408C115.093 209.633 113.921 207.842 112.715 206.059C111.636 208.043 110.54 210.01 109.443 211.977L109.443 211.977ZM101.918 211.81C102.98 211.885 104.044 211.952 105.107 211.977C106.203 212.019 107.3 212.019 108.396 212.01L105.609 206.268L101.918 211.81ZM95.3551 211.073C97.3388 211.358 99.3394 211.592 101.331 211.751C100.294 209.616 99.2472 207.474 98.1592 205.364C97.1972 207.247 96.2847 209.164 95.3558 211.073L95.3551 211.073ZM92.4087 205.515C91.3289 207.013 90.2407 208.503 89.1526 210.001C90.7932 210.345 92.4339 210.646 94.0912 210.897C94.2418 210.914 94.3925 210.931 94.5515 210.956C94.1581 210.001 93.7647 209.039 93.3964 208.076L92.4087 205.515ZM83.603 208.729C85.1432 209.131 86.6833 209.499 88.2486 209.809C87.6794 208.26 87.1353 206.703 86.5913 205.138C85.5958 206.343 84.6081 207.54 83.6037 208.729L83.603 208.729ZM83.603 188.079C84.2136 188.081 84.8196 187.976 85.3943 187.77C84.708 185.719 84.0467 183.677 83.3938 181.626C81.6276 183.149 79.828 184.631 78.0451 186.137C78.0304 186.148 78.0129 186.154 77.9949 186.154C78.9305 186.705 79.9138 187.17 80.9329 187.544C81.7829 187.884 82.6881 188.066 83.6037 188.079L83.603 188.079ZM77.3336 185.761L77.3001 179.382C75.5674 180.253 73.8265 181.098 72.0937 181.969C73.4799 183.112 74.9243 184.182 76.4212 185.175C76.7232 185.384 77.0245 185.576 77.3342 185.761L77.3336 185.761ZM68.4107 178.771C69.3901 179.675 70.4029 180.554 71.4241 181.408C71.5246 179.29 71.6418 177.178 71.7757 175.072C70.043 175.75 68.3187 176.419 66.5943 177.114C67.1893 177.666 67.7919 178.227 68.4113 178.771L68.4107 178.771ZM66.3181 176.846L66.7283 173.833L67.0799 170.928C65.3472 171.447 63.6313 172 61.8987 172.519C63.3557 173.983 64.8205 175.432 66.3187 176.846L66.3181 176.846ZM60.9946 171.606L61.3126 171.924C61.5972 170.418 61.9069 168.911 62.225 167.405C60.7351 167.689 59.2619 167.965 57.772 168.25C58.8355 169.371 59.907 170.501 60.9952 171.606L60.9946 171.606ZM58.2993 163.412C56.9182 163.763 55.5343 164.093 54.1476 164.399C55.1352 165.463 56.1312 166.534 57.1357 167.58C57.5048 166.191 57.9149 164.809 58.2999 163.412L58.2993 163.412ZM120.09 204.527C119.135 206.779 118.156 209.005 117.185 211.249C118.655 211.019 120.106 210.686 121.529 210.253C122.837 209.928 124.117 209.497 125.355 208.964L125.363 208.076C123.597 206.904 121.84 205.721 120.09 204.527L120.09 204.527ZM121.663 210.663C119.893 211.271 118.084 211.758 116.248 212.119C112.557 212.719 108.819 212.968 105.081 212.864C101.352 212.703 97.6393 212.266 93.9739 211.558C92.2245 211.224 90.4919 210.822 88.7675 210.37C88.721 210.381 88.6726 210.384 88.6252 210.377C88.5778 210.369 88.5322 210.353 88.4912 210.328C88.4829 210.32 88.4829 210.311 88.4746 210.303C86.8172 209.859 85.1849 209.343 83.5778 208.754C83.5527 208.788 83.5275 208.788 83.5109 208.763C83.5077 208.759 83.5053 208.755 83.5038 208.751C83.5024 208.747 83.5019 208.742 83.5025 208.738C83.402 208.704 83.3016 208.671 83.2012 208.637L81.6275 217.259C81.6275 217.259 105.751 226.717 125.237 217.259L125.355 209.131C124.166 209.738 122.932 210.25 121.664 210.662L121.663 210.663ZM88.2988 216.313C88.2552 216.356 88.2076 216.396 88.1565 216.43C88.0893 216.476 88.0161 216.513 87.9389 216.539C87.895 216.564 87.8467 216.581 87.7966 216.589C87.7548 216.597 87.7128 216.606 87.6627 216.614C87.5934 216.624 87.5235 216.63 87.4534 216.631C87.1195 216.621 86.8026 216.481 86.57 216.241C86.3374 216.001 86.2073 215.68 86.2073 215.346C86.2073 215.012 86.3374 214.691 86.57 214.451C86.8026 214.211 87.1195 214.071 87.4534 214.061C87.6403 214.06 87.8255 214.097 87.9975 214.17C88.0533 214.196 88.1065 214.226 88.1565 214.262C88.2075 214.296 88.2552 214.336 88.2988 214.379C88.5161 214.608 88.6506 214.903 88.6809 215.217C88.7113 215.531 88.6357 215.846 88.4663 216.112C88.4199 216.186 88.3638 216.253 88.2994 216.313L88.2988 216.313ZM94.2502 218.682C93.9162 218.672 93.5993 218.532 93.3666 218.292C93.134 218.052 93.0039 217.731 93.0039 217.397C93.0039 217.063 93.134 216.742 93.3666 216.502C93.5993 216.262 93.9162 216.122 94.2502 216.112C94.5834 216.123 94.8993 216.263 95.1312 216.503C95.3631 216.743 95.4927 217.063 95.4928 217.396C95.4929 217.73 95.3634 218.05 95.1317 218.29C94.8999 218.53 94.5841 218.67 94.2508 218.681L94.2502 218.682ZM100.829 219.51C100.495 219.5 100.178 219.36 99.9458 219.12C99.7131 218.881 99.583 218.56 99.583 218.225C99.583 217.891 99.7131 217.57 99.9458 217.33C100.178 217.091 100.495 216.951 100.829 216.941C101.163 216.952 101.478 217.092 101.71 217.332C101.942 217.571 102.072 217.892 102.072 218.225C102.072 218.559 101.943 218.879 101.711 219.119C101.479 219.359 101.163 219.499 100.83 219.51L100.829 219.51ZM108.036 219.309C107.702 219.299 107.385 219.159 107.153 218.92C106.92 218.68 106.79 218.359 106.79 218.025C106.79 217.69 106.92 217.369 107.153 217.13C107.385 216.89 107.702 216.75 108.036 216.74C108.37 216.751 108.685 216.891 108.917 217.131C109.149 217.37 109.279 217.691 109.279 218.024C109.279 218.358 109.149 218.678 108.918 218.918C108.686 219.158 108.37 219.298 108.037 219.309L108.036 219.309ZM115.243 218.28C114.909 218.27 114.592 218.13 114.36 217.89C114.127 217.65 113.997 217.329 113.997 216.995C113.997 216.661 114.127 216.34 114.36 216.1C114.592 215.86 114.909 215.72 115.243 215.71C115.577 215.721 115.892 215.861 116.124 216.101C116.356 216.341 116.486 216.661 116.486 216.995C116.486 217.328 116.356 217.649 116.125 217.888C115.893 218.128 115.577 218.268 115.244 218.28L115.243 218.28ZM121.429 216.631C121.095 216.621 120.778 216.481 120.545 216.241C120.313 216.001 120.183 215.68 120.183 215.346C120.183 215.012 120.313 214.691 120.545 214.451C120.778 214.211 121.095 214.071 121.429 214.061C121.762 214.072 122.078 214.213 122.31 214.452C122.542 214.692 122.671 215.012 122.671 215.346C122.671 215.679 122.542 215.999 122.31 216.239C122.079 216.479 121.763 216.619 121.429 216.631L121.429 216.631ZM112.715 206.059C111.636 208.043 110.539 210.01 109.443 211.977C111.682 211.912 113.917 211.733 116.139 211.441C116.201 211.433 116.262 211.422 116.323 211.408C115.093 209.633 113.921 207.842 112.716 206.059L112.715 206.059ZM105.609 206.268L101.918 211.81C102.98 211.885 104.044 211.952 105.107 211.977C106.203 212.019 107.3 212.019 108.396 212.01L105.609 206.268ZM98.1592 205.364C97.1966 207.248 96.2842 209.164 95.3551 211.073C97.3388 211.358 99.3394 211.592 101.331 211.751C100.294 209.616 99.2479 207.473 98.1598 205.364L98.1592 205.364ZM93.3964 208.076L92.4087 205.515C91.329 207.013 90.2407 208.503 89.1527 210.001C90.7933 210.345 92.4339 210.646 94.0912 210.897C94.2418 210.914 94.3925 210.931 94.5515 210.956C94.1587 210.001 93.7653 209.039 93.397 208.076L93.3964 208.076ZM86.5914 205.138C85.5952 206.344 84.6075 207.541 83.603 208.729C85.1432 209.131 86.6833 209.499 88.2486 209.809C87.68 208.26 87.1359 206.703 86.592 205.138L86.5914 205.138ZM83.3944 181.626C81.6282 183.149 79.8286 184.63 78.0457 186.137C78.0311 186.148 78.0136 186.154 77.9956 186.154C78.9311 186.704 79.9144 187.169 80.9335 187.543C81.7833 187.884 82.6883 188.065 83.6037 188.079C84.2142 188.08 84.8203 187.976 85.3949 187.769C84.7086 185.719 84.0473 183.676 83.3944 181.626ZM77.3007 179.382C75.568 180.253 73.8271 181.098 72.0943 181.969C73.4805 183.111 74.9249 184.181 76.4218 185.175C76.7232 185.384 77.0245 185.576 77.3342 185.761L77.3007 179.382ZM66.595 177.114C67.1894 177.666 67.792 178.227 68.4114 178.771C69.3907 179.675 70.4035 180.554 71.4247 181.408C71.5253 179.29 71.6424 177.178 71.7763 175.072C70.0436 175.75 68.3193 176.419 66.5949 177.114H66.595ZM61.8993 172.518C63.3558 173.983 64.8206 175.432 66.3188 176.846L66.7289 173.833L67.0805 170.928C65.3477 171.447 63.6319 172 61.8992 172.518H61.8993ZM57.7726 168.25C58.8355 169.371 59.907 170.501 60.9952 171.606L61.3133 171.924C61.5979 170.418 61.9076 168.911 62.2256 167.404C60.7356 167.689 59.2624 167.965 57.7726 168.25ZM54.1482 164.399C55.1359 165.462 56.1319 166.534 57.1364 167.58C57.5048 166.191 57.9149 164.809 58.2999 163.412C56.9188 163.763 55.5349 164.092 54.1482 164.399V164.399ZM83.3944 181.626C81.6282 183.149 79.8286 184.63 78.0457 186.137C78.0311 186.148 78.0136 186.154 77.9956 186.154C78.9311 186.704 79.9144 187.169 80.9335 187.543C81.7833 187.884 82.6883 188.065 83.6037 188.079C84.2142 188.08 84.8203 187.976 85.3949 187.769C84.7086 185.719 84.0473 183.676 83.3944 181.626ZM77.3007 179.382C75.568 180.253 73.8271 181.098 72.0943 181.969C73.4805 183.111 74.9249 184.181 76.4218 185.175C76.7232 185.384 77.0245 185.576 77.3342 185.761L77.3007 179.382ZM66.595 177.114C67.1894 177.666 67.792 178.227 68.4114 178.771C69.3907 179.675 70.4035 180.554 71.4247 181.408C71.5253 179.29 71.6424 177.178 71.7763 175.072C70.0436 175.75 68.3193 176.419 66.5949 177.114H66.595ZM61.8993 172.518C63.3558 173.983 64.8206 175.432 66.3188 176.846L66.7289 173.833L67.0805 170.928C65.3477 171.447 63.6319 172 61.8992 172.518H61.8993ZM57.7726 168.25C58.8355 169.371 59.907 170.501 60.9952 171.606L61.3133 171.924C61.5979 170.418 61.9076 168.911 62.2256 167.404C60.7356 167.689 59.2624 167.965 57.7726 168.25ZM54.1482 164.399C55.1359 165.462 56.1319 166.534 57.1364 167.58C57.5048 166.191 57.9149 164.809 58.2999 163.412C56.9188 163.763 55.5349 164.092 54.1482 164.399V164.399ZM83.3944 181.626C81.6282 183.149 79.8286 184.63 78.0457 186.137C78.0311 186.148 78.0136 186.154 77.9956 186.154C78.9311 186.704 79.9144 187.169 80.9335 187.543C81.7833 187.884 82.6883 188.065 83.6037 188.079C84.2142 188.08 84.8203 187.976 85.3949 187.769C84.7086 185.719 84.0473 183.676 83.3944 181.626ZM77.3007 179.382C75.568 180.253 73.8271 181.098 72.0943 181.969C73.4805 183.111 74.9249 184.181 76.4218 185.175C76.7232 185.384 77.0245 185.576 77.3342 185.761L77.3007 179.382ZM66.595 177.114C67.1894 177.666 67.792 178.227 68.4114 178.771C69.3907 179.675 70.4035 180.554 71.4247 181.408C71.5253 179.29 71.6424 177.178 71.7763 175.072C70.0436 175.75 68.3193 176.419 66.5949 177.114H66.595ZM61.8993 172.518C63.3558 173.983 64.8206 175.432 66.3188 176.846L66.7289 173.833L67.0805 170.928C65.3477 171.447 63.6319 172 61.8992 172.518H61.8993ZM57.7726 168.25C58.8355 169.371 59.907 170.501 60.9952 171.606L61.3133 171.924C61.5979 170.418 61.9076 168.911 62.2256 167.404C60.7356 167.689 59.2624 167.965 57.7726 168.25ZM54.1482 164.399C55.1359 165.462 56.1319 166.534 57.1364 167.58C57.5048 166.191 57.9149 164.809 58.2999 163.412C56.9188 163.763 55.5349 164.092 54.1482 164.399V164.399ZM83.3944 181.626C81.6282 183.149 79.8286 184.63 78.0457 186.137C78.0311 186.148 78.0136 186.154 77.9956 186.154C78.9311 186.704 79.9144 187.169 80.9335 187.543C81.7833 187.884 82.6883 188.065 83.6037 188.079C84.2142 188.08 84.8203 187.976 85.3949 187.769C84.7086 185.719 84.0473 183.676 83.3944 181.626ZM77.3007 179.382C75.568 180.253 73.8271 181.098 72.0943 181.969C73.4805 183.111 74.9249 184.181 76.4218 185.175C76.7232 185.384 77.0245 185.576 77.3342 185.761L77.3007 179.382ZM66.595 177.114C67.1894 177.666 67.792 178.227 68.4114 178.771C69.3907 179.675 70.4035 180.554 71.4247 181.408C71.5253 179.29 71.6424 177.178 71.7763 175.072C70.0436 175.75 68.3193 176.419 66.5949 177.114H66.595ZM61.8993 172.518C63.3558 173.983 64.8206 175.432 66.3188 176.846L66.7289 173.833L67.0805 170.928C65.3477 171.447 63.6319 172 61.8992 172.518H61.8993ZM57.7726 168.25C58.8355 169.371 59.907 170.501 60.9952 171.606L61.3133 171.924C61.5979 170.418 61.9076 168.911 62.2256 167.404C60.7356 167.689 59.2624 167.965 57.7726 168.25ZM54.1482 164.399C55.1359 165.462 56.1319 166.534 57.1364 167.58C57.5048 166.191 57.9149 164.809 58.2999 163.412C56.9188 163.763 55.5349 164.092 54.1482 164.399V164.399ZM83.3944 181.626C81.6282 183.149 79.8286 184.63 78.0457 186.137C78.0311 186.148 78.0136 186.154 77.9956 186.154C78.9311 186.704 79.9144 187.169 80.9335 187.543C81.7833 187.884 82.6883 188.065 83.6037 188.079C84.2142 188.08 84.8203 187.976 85.3949 187.769C84.7086 185.719 84.0473 183.676 83.3944 181.626ZM77.3007 179.382C75.568 180.253 73.8271 181.098 72.0943 181.969C73.4805 183.111 74.9249 184.181 76.4218 185.175C76.7232 185.384 77.0245 185.576 77.3342 185.761L77.3007 179.382ZM66.595 177.114C67.1894 177.666 67.792 178.227 68.4114 178.771C69.3907 179.675 70.4035 180.554 71.4247 181.408C71.5253 179.29 71.6424 177.178 71.7763 175.072C70.0436 175.75 68.3193 176.419 66.5949 177.114H66.595ZM61.8993 172.518C63.3558 173.983 64.8206 175.432 66.3188 176.846L66.7289 173.833L67.0805 170.928C65.3477 171.447 63.6319 172 61.8992 172.518H61.8993ZM57.7726 168.25C58.8355 169.371 59.907 170.501 60.9952 171.606L61.3133 171.924C61.5979 170.418 61.9076 168.911 62.2256 167.404C60.7356 167.689 59.2624 167.965 57.7726 168.25ZM54.1482 164.399C55.1359 165.462 56.1319 166.534 57.1364 167.58C57.5048 166.191 57.9149 164.809 58.2999 163.412C56.9188 163.763 55.5349 164.092 54.1482 164.399V164.399ZM83.3944 181.626C81.6282 183.149 79.8286 184.63 78.0457 186.137C78.0311 186.148 78.0136 186.154 77.9956 186.154C78.9311 186.704 79.9144 187.169 80.9335 187.543C81.7833 187.884 82.6883 188.065 83.6037 188.079C84.2142 188.08 84.8203 187.976 85.3949 187.769C84.7086 185.719 84.0473 183.676 83.3944 181.626ZM77.3007 179.382C75.568 180.253 73.8271 181.098 72.0943 181.969C73.4805 183.111 74.9249 184.181 76.4218 185.175C76.7232 185.384 77.0245 185.576 77.3342 185.761L77.3007 179.382ZM66.595 177.114C67.1894 177.666 67.792 178.227 68.4114 178.771C69.3907 179.675 70.4035 180.554 71.4247 181.408C71.5253 179.29 71.6424 177.178 71.7763 175.072C70.0436 175.75 68.3193 176.419 66.5949 177.114H66.595ZM61.8993 172.518C63.3558 173.983 64.8206 175.432 66.3188 176.846L66.7289 173.833L67.0805 170.928C65.3477 171.447 63.6319 172 61.8992 172.518H61.8993ZM57.7726 168.25C58.8355 169.371 59.907 170.501 60.9952 171.606L61.3133 171.924C61.5979 170.418 61.9076 168.911 62.2256 167.404C60.7356 167.689 59.2624 167.965 57.7726 168.25ZM54.1482 164.399C55.1359 165.462 56.1319 166.534 57.1364 167.58C57.5048 166.191 57.9149 164.809 58.2999 163.412C56.9188 163.763 55.5349 164.092 54.1482 164.399V164.399ZM83.3944 181.626C81.6282 183.149 79.8286 184.63 78.0457 186.137C78.0311 186.148 78.0136 186.154 77.9956 186.154C78.9311 186.704 79.9144 187.169 80.9335 187.543C81.7833 187.884 82.6883 188.065 83.6037 188.079C84.2142 188.08 84.8203 187.976 85.3949 187.769C84.7086 185.719 84.0473 183.676 83.3944 181.626ZM77.3007 179.382C75.568 180.253 73.8271 181.098 72.0943 181.969C73.4805 183.111 74.9249 184.181 76.4218 185.175C76.7232 185.384 77.0245 185.576 77.3342 185.761L77.3007 179.382ZM66.595 177.114C67.1894 177.666 67.792 178.227 68.4114 178.771C69.3907 179.675 70.4035 180.554 71.4247 181.408C71.5253 179.29 71.6424 177.178 71.7763 175.072C70.0436 175.75 68.3193 176.419 66.5949 177.114H66.595ZM61.8993 172.518C63.3558 173.983 64.8206 175.432 66.3188 176.846L66.7289 173.833L67.0805 170.928C65.3477 171.447 63.6319 172 61.8992 172.518H61.8993ZM57.7726 168.25C58.8355 169.371 59.907 170.501 60.9952 171.606L61.3133 171.924C61.5979 170.418 61.9076 168.911 62.2256 167.404C60.7356 167.689 59.2624 167.965 57.7726 168.25ZM54.1482 164.399C55.1359 165.462 56.1319 166.534 57.1364 167.58C57.5048 166.191 57.9149 164.809 58.2999 163.412C56.9188 163.763 55.5349 164.092 54.1482 164.399V164.399Z" fill="#1A1A1A"/>
<path d="M213.516 43.4237C213.85 43.4122 214.166 43.2715 214.398 43.0315C214.629 42.7914 214.759 42.4707 214.759 42.1369C214.759 41.8031 214.629 41.4824 214.398 41.2423C214.166 41.0022 213.85 40.8616 213.516 40.8501C213.182 40.8616 212.866 41.0022 212.634 41.2423C212.403 41.4824 212.273 41.8031 212.273 42.1369C212.273 42.4707 212.403 42.7914 212.634 43.0315C212.866 43.2715 213.182 43.4122 213.516 43.4237ZM233.927 45.0217C234.26 45.0102 234.577 44.8695 234.808 44.6295C235.04 44.3894 235.17 44.0687 235.17 43.7349C235.17 43.4011 235.04 43.0803 234.808 42.8403C234.577 42.6002 234.26 42.4596 233.927 42.448C233.593 42.4596 233.277 42.6002 233.045 42.8403C232.813 43.0803 232.684 43.4011 232.684 43.7349C232.684 44.0687 232.813 44.3894 233.045 44.6295C233.277 44.8695 233.593 45.0102 233.927 45.0217ZM217.181 52.6545C217.203 53.1315 217.112 53.6069 216.914 54.0415C216.723 54.4823 216.455 54.8851 216.121 55.2305C215.784 55.5811 215.376 55.8565 214.925 56.0387C214.481 56.2282 213.994 56.2945 213.516 56.2305C213.906 55.9401 214.271 55.7281 214.595 55.4563C214.92 55.2048 215.225 54.929 215.508 54.6313C216.09 54.0486 216.584 53.3882 217.181 52.6545ZM211.163 38.1402C211.385 37.7327 211.74 37.4134 212.169 37.2356C212.591 37.0417 213.067 36.9999 213.516 37.1173C213.295 37.5255 212.94 37.845 212.51 38.022C212.088 38.2134 211.613 38.2551 211.163 38.1402ZM235.25 46.3179C235.117 46.549 234.924 46.7395 234.691 46.869C234.458 46.9985 234.194 47.0621 233.928 47.053C233.66 47.053 233.396 46.9862 233.16 46.8587C232.926 46.7367 232.732 46.5487 232.604 46.3179C233.137 46.3538 233.524 46.4166 233.928 46.41C234.37 46.4054 234.812 46.3747 235.25 46.3179Z" fill="#1A1A1A"/>
<path d="M194.688 129.835C194.941 127.036 194.617 124.216 193.734 121.548C192.884 118.89 191.552 116.412 189.804 114.237C188.936 113.158 187.974 112.159 186.927 111.252L183.789 108.394C181.705 106.471 179.583 104.619 177.528 102.635C173.552 98.5453 170.053 94.0177 167.097 89.1391C164.078 84.3104 161.469 79.2377 159.296 73.974C159.279 73.9336 159.267 73.8918 159.259 73.849L159.256 73.8316C159.085 72.9051 158.892 71.9824 158.634 71.0788C158.381 70.1751 158.075 69.2868 157.72 68.4183C157.361 67.5565 156.944 66.7199 156.473 65.9141C156.018 65.1295 155.485 64.3925 154.883 63.7142L154.993 63.8005C152.642 62.2802 150.26 60.8097 147.82 59.4551C145.424 58.0583 142.891 56.9091 140.262 56.0251C139.623 55.8308 138.965 55.7066 138.3 55.6545C138.014 55.6081 137.721 55.6225 137.441 55.6968C137.161 55.771 136.9 55.9035 136.675 56.0855C136.502 56.27 136.396 56.5074 136.373 56.7596C136.387 57.0441 136.467 57.3214 136.608 57.5689C136.937 58.147 137.343 58.6775 137.816 59.1456C139.84 61.0576 142.078 62.7292 144.486 64.1272C144.545 64.1637 144.589 64.2189 144.613 64.284C144.636 64.3491 144.637 64.4201 144.615 64.4856C144.592 64.551 144.549 64.6071 144.491 64.6446C144.433 64.6822 144.364 64.699 144.295 64.6923C143.304 64.6107 142.306 64.6645 141.329 64.8524C140.352 65.0257 139.417 65.3804 138.57 65.8981C137.73 66.4125 137.037 67.1353 136.558 67.9966C136.086 68.8704 135.796 69.831 135.705 70.8202C135.699 70.8765 135.675 70.9293 135.636 70.9702L135.628 70.9785C134.797 71.7873 134.232 72.8285 134.004 73.9651C133.931 74.5138 134.03 75.0719 134.289 75.5613C134.564 76.0535 134.943 76.4793 135.401 76.8089L135.408 76.8151C135.456 76.8548 135.49 76.9084 135.505 76.9684C135.52 77.0284 135.516 77.0917 135.493 77.1493C135.187 77.9176 134.959 78.7147 134.812 79.5285C134.654 80.3249 134.645 81.144 134.788 81.9435C134.85 82.3193 134.994 82.6772 135.207 82.9926C135.421 83.308 135.7 83.5735 136.026 83.771C136.734 84.1235 137.523 84.2832 138.313 84.234L138.024 84.7288L136.667 82.2397C136.627 82.1654 136.613 82.0793 136.629 81.9962C136.645 81.913 136.689 81.838 136.755 81.7839C136.82 81.7299 136.902 81.7002 136.986 81.6999C137.071 81.6997 137.153 81.7289 137.219 81.7826C138.729 82.9596 140.087 84.3215 141.259 85.8362C141.554 86.2369 141.809 86.6655 142.021 87.1158C142.131 87.3546 142.218 87.6033 142.28 87.8585C142.302 87.9678 142.33 88.0757 142.365 88.1816C142.384 88.2742 142.417 88.3635 142.462 88.4469C142.88 89.1833 143.505 89.7809 144.259 90.1656C145.04 90.6002 145.873 90.9332 146.738 91.1565C147.571 91.3956 148.443 91.4641 149.303 91.358C149.613 91.3318 149.925 91.3692 150.221 91.4681C150.516 91.5669 150.788 91.7251 151.019 91.9328C151.417 92.2555 151.779 92.6201 152.098 93.0204C152.703 93.7812 153.244 94.5901 153.717 95.4391C154.648 97.1076 155.446 98.8466 156.104 100.64C156.44 101.531 156.716 102.475 157.025 103.286C157.369 104.143 157.726 104.997 158.109 105.847C159.625 109.249 161.299 112.595 163.053 115.891C166.484 122.506 170.526 128.787 175.124 134.652C176.279 136.102 177.534 137.452 178.804 138.779L180.806 140.648C181.475 141.21 182.202 141.7 182.974 142.109C184.523 142.921 186.24 143.359 187.989 143.389C189.737 143.419 191.468 143.04 193.044 142.282L192.809 142.449L192.842 142.423L193.014 142.295C193.034 142.281 193.055 142.268 193.077 142.257C194.824 141.408 196.439 140.31 197.873 138.999C198.587 138.355 199.269 137.623 199.984 136.896L202.103 134.727L210.63 126.099L210.633 126.095C210.662 126.067 210.692 126.041 210.724 126.017C214.032 123.595 217.268 121.019 220.409 118.357C223.551 115.693 226.625 112.944 229.533 110.029C232.464 107.141 235.152 104.017 237.568 100.687C238.758 99.0161 239.771 97.2257 240.589 95.3445C241.447 93.4777 241.8 91.4185 241.613 89.3726C241.609 89.3506 241.615 89.3282 241.628 89.3101C241.641 89.292 241.66 89.2798 241.682 89.2762C241.704 89.2732 241.726 89.2787 241.744 89.2914C241.762 89.3042 241.774 89.3232 241.778 89.3447C242.048 91.4295 241.765 93.5484 240.96 95.49C240.199 97.4342 239.237 99.2935 238.09 101.037C235.768 104.492 233.141 107.732 230.241 110.717C227.377 113.726 224.37 116.595 221.248 119.331C218.122 122.066 214.924 124.697 211.597 127.213L211.691 127.132L203.302 135.892L201.192 138.07C200.491 138.785 199.797 139.538 199.013 140.252C197.462 141.679 195.713 142.875 193.821 143.802L194.055 143.636L194.021 143.661L193.856 143.785C193.834 143.802 193.811 143.816 193.786 143.828C191.969 144.703 189.975 145.147 187.958 145.126C185.939 145.1 183.954 144.599 182.164 143.663C181.276 143.197 180.44 142.638 179.67 141.995L177.553 140.034C176.214 138.675 174.95 137.246 173.765 135.751C169.151 129.762 165.105 123.355 161.682 116.614C159.933 113.276 158.297 109.884 156.817 106.408C156.442 105.542 156.089 104.661 155.748 103.771C155.407 102.823 155.174 101.96 154.86 101.09C154.249 99.352 153.508 97.6623 152.643 96.0354C152.222 95.2348 151.736 94.4698 151.191 93.7479C150.933 93.408 150.641 93.0963 150.317 92.8181C150.092 92.5911 149.79 92.4569 149.471 92.4423C148.461 92.5503 147.441 92.4517 146.47 92.1525C145.523 91.8849 144.615 91.4963 143.767 90.9965C142.854 90.4965 142.112 89.7352 141.636 88.8104C141.575 88.6843 141.53 88.5515 141.5 88.4147C141.462 88.2727 141.428 88.137 141.415 88.0558C141.369 87.8545 141.304 87.6581 141.222 87.469C141.041 87.0668 140.822 86.6831 140.568 86.3233C139.469 84.8475 138.19 83.514 136.762 82.3534L137.313 81.8963L138.618 84.4124L138.632 84.4383C138.651 84.4758 138.663 84.5167 138.667 84.5588C138.67 84.6008 138.666 84.6432 138.653 84.6834C138.64 84.7237 138.62 84.761 138.592 84.7933C138.565 84.8256 138.532 84.8523 138.495 84.8717C138.444 84.898 138.387 84.9103 138.329 84.9075C137.418 84.9429 136.513 84.7361 135.708 84.3082C135.31 84.0641 134.969 83.7377 134.708 83.351C134.447 82.9644 134.272 82.5263 134.195 82.0663C134.042 81.1911 134.056 80.2951 134.235 79.4249C134.395 78.5691 134.642 77.7317 134.971 76.9255L135.064 77.2656C134.539 76.8813 134.106 76.3858 133.796 75.8145C133.49 75.2237 133.376 74.5527 133.468 73.8941C133.572 73.2608 133.795 72.6528 134.125 72.1026C134.442 71.5573 134.828 71.0548 135.272 70.6075L135.195 70.7656C135.305 69.7104 135.615 68.6855 136.106 67.7449C136.619 66.8015 137.366 66.0061 138.276 65.4354C139.176 64.8715 140.174 64.4811 141.217 64.2844C142.253 64.0738 143.313 64.0073 144.367 64.0868L144.176 64.6518C141.712 63.2377 139.406 61.565 137.296 59.6621C136.757 59.1531 136.292 58.5716 135.912 57.9344C135.7 57.5729 135.579 57.1648 135.561 56.7458C135.576 56.2912 135.752 55.8565 136.057 55.519C136.359 55.236 136.719 55.022 137.112 54.8915C137.504 54.761 137.921 54.7172 138.332 54.7632C139.07 54.7997 139.801 54.9174 140.513 55.114C143.238 55.9499 145.87 57.0644 148.367 58.4399C150.873 59.7525 153.312 61.1775 155.717 62.6516L155.723 62.6556C155.761 62.6789 155.796 62.7066 155.827 62.7381C156.534 63.4842 157.152 64.3097 157.669 65.198C158.181 66.057 158.634 66.9498 159.026 67.87C159.41 68.788 159.741 69.7274 160.017 70.6836C160.298 71.6369 160.509 72.6066 160.695 73.5799L160.655 73.4379C162.839 78.6029 165.391 83.6048 168.29 88.4051C171.154 93.2224 174.544 97.7075 178.396 101.778C180.359 103.765 182.45 105.68 184.471 107.636L187.53 110.556C188.597 111.524 189.575 112.587 190.452 113.732C192.183 116.027 193.467 118.628 194.237 121.397C195.047 124.141 195.257 127.026 194.854 129.858C194.851 129.879 194.839 129.899 194.822 129.913C194.804 129.926 194.782 129.932 194.76 129.929C194.738 129.926 194.718 129.914 194.705 129.896C194.691 129.879 194.685 129.857 194.688 129.835L194.688 129.835Z" fill="#1A1A1A"/>
<path d="M135.241 76.5933L137.17 77.1066L135.209 77.4792C135.091 77.5008 134.969 77.4748 134.87 77.407C134.771 77.3391 134.703 77.2348 134.681 77.1169C134.659 76.999 134.684 76.8771 134.751 76.7776C134.818 76.6782 134.922 76.6093 135.04 76.5861C135.107 76.5736 135.175 76.5761 135.241 76.5933ZM135.407 70.3494L139.184 70.4173L135.495 71.2316C135.438 71.2442 135.379 71.2454 135.321 71.2352C135.263 71.225 135.208 71.2035 135.159 71.1719C135.109 71.1404 135.067 71.0994 135.033 71.0514C135 71.0033 134.976 70.9492 134.963 70.8919C134.95 70.8347 134.949 70.7755 134.959 70.7178C134.97 70.6601 134.991 70.605 135.023 70.5556C135.054 70.5062 135.095 70.4635 135.143 70.4299C135.191 70.3963 135.246 70.3725 135.303 70.3599C135.337 70.3526 135.372 70.3491 135.407 70.3494ZM139.47 86.9818C132.873 89.2036 126.131 90.9717 119.292 92.2736C115.863 92.9222 112.397 93.3599 108.915 93.5842C107.173 93.7017 105.427 93.773 103.68 93.7721C102.807 93.7862 101.934 93.7769 101.06 93.7441C100.185 93.7279 99.3123 93.6675 98.4438 93.5822L98.467 93.5833L98.4584 93.5831H98.454L98.433 93.5819C97.4199 93.4929 96.4144 93.3318 95.4242 93.0998C94.408 92.8776 93.4356 92.4884 92.5467 91.9481C92.4795 91.905 92.4303 91.8389 92.4082 91.7623C92.3861 91.6856 92.3925 91.6035 92.4263 91.5312C92.4601 91.4589 92.5189 91.4013 92.592 91.3691C92.665 91.3369 92.7472 91.3323 92.8234 91.3561L92.8421 91.362C97.3748 92.785 102.154 93.1959 106.884 93.4809C111.629 93.7592 116.393 93.6804 121.155 93.5296C123.543 93.4333 125.899 93.3657 128.319 93.2256C130.682 93.1203 133.067 92.9649 135.453 92.8221L149.781 91.8255C149.804 91.8239 149.826 91.831 149.843 91.8452C149.861 91.8594 149.872 91.8798 149.875 91.9022C149.878 91.9245 149.873 91.9472 149.86 91.9656C149.847 91.984 149.827 91.9967 149.805 92.0012C145.1 92.9557 140.355 93.6951 135.588 94.2825C133.205 94.5776 130.816 94.8086 128.399 95.0085C126.04 95.1846 123.613 95.3626 121.215 95.4217C116.396 95.5754 111.572 95.4419 106.768 95.0218C101.94 94.6349 97.1836 93.6142 92.6217 91.9859L92.9171 91.4C93.7264 91.9334 94.6214 92.3238 95.563 92.5541C96.5218 92.7958 97.4983 92.9602 98.4834 93.0458L98.4584 93.0447L98.467 93.0446L98.4905 93.0456C101.936 93.2613 105.395 93.0703 108.796 92.4766C112.212 91.9692 115.6 91.3007 119.003 90.7083C125.81 89.4984 132.581 88.0509 139.426 86.8101C139.448 86.8061 139.471 86.8106 139.49 86.8227C139.508 86.8348 139.522 86.8536 139.528 86.8753C139.533 86.897 139.531 86.92 139.52 86.9398C139.509 86.9595 139.492 86.9745 139.47 86.9818V86.9818ZM167.877 89.0766C168.785 88.7155 169.703 88.4178 170.622 88.1255C171.542 87.8468 172.462 87.5689 173.39 87.3322C174.314 87.0773 175.244 86.8582 176.175 86.6414C177.102 86.4093 178.042 86.2401 178.976 86.0389L178.285 86.8673C178.296 85.7992 178.373 84.7331 178.414 83.6659C178.483 82.5996 178.554 81.5333 178.656 80.468C178.754 79.4027 178.876 78.3381 179.021 77.2742C179.18 76.2109 179.335 75.1473 179.578 74.0867C179.751 75.1608 179.837 76.2323 179.926 77.3037C180.002 78.3747 180.054 79.445 180.084 80.5145C180.116 81.5841 180.117 82.6527 180.117 83.7213C180.089 84.7889 180.096 85.8577 180.038 86.9243L180.035 86.9808C180.024 87.1684 179.951 87.3469 179.826 87.4872C179.701 87.6275 179.532 87.7213 179.346 87.7531C178.399 87.9154 177.459 88.1096 176.505 88.2409C175.555 88.3874 174.605 88.5318 173.648 88.6403C172.695 88.7672 171.734 88.8526 170.774 88.9375C169.812 89.0087 168.849 89.0744 167.877 89.0766ZM138.455 14.9069C135.492 14.1264 132.393 14.0053 129.378 14.5522C125.025 15.5362 117.765 12.7085 117.765 12.7085C117.765 12.7085 115.257 11.228 115.762 15.3235C115.762 15.3235 117.455 26.0761 116.285 32.8399C115.106 39.6123 115.975 39.9316 117.331 39.3022C118.678 38.6638 124.963 39.2312 131.443 39.3109C137.914 39.3907 137.675 38.0877 137.214 34.5418C136.744 30.996 138.455 14.9069 138.455 14.9069ZM135.636 33.2122C136.026 36.1996 136.23 37.3077 130.761 37.2367C125.291 37.1657 119.981 36.687 118.847 37.2278C117.703 37.7596 116.968 37.4849 117.961 31.776C118.953 26.0584 117.526 16.9811 117.526 16.9811C117.091 13.524 119.219 14.7738 119.219 14.7738C119.219 14.7738 125.345 17.1585 129.014 16.3251C131.562 15.8662 134.179 15.9691 136.682 16.6266C136.682 16.6266 135.237 30.216 135.636 33.2121L135.636 33.2122Z" fill="#1A1A1A"/>
<path d="M132.677 30.7136C132.932 32.6683 133.065 33.3932 129.487 33.3468C125.908 33.3004 122.434 32.9871 121.692 33.341C120.943 33.6889 120.462 33.5092 121.112 29.774C121.761 26.0331 120.827 20.094 120.827 20.094C120.543 17.8321 121.935 18.6498 121.935 18.6498C121.935 18.6498 125.943 20.21 128.344 19.6648C130.011 19.3645 131.723 19.4318 133.361 19.862C133.361 19.862 132.415 28.7533 132.677 30.7136ZM96.1047 14.3431C98.2566 14.113 100.423 14.0492 102.585 14.1524C104.748 14.2159 106.903 14.4481 109.03 14.847C106.878 15.0791 104.712 15.1429 102.55 15.0377C100.387 14.9723 98.2322 14.7401 96.1047 14.3431ZM99.529 39.6353C101.681 39.4052 103.847 39.3415 106.009 39.4447C108.172 39.5081 110.327 39.7403 112.454 40.1392C110.303 40.3713 108.136 40.4351 105.974 40.3299C103.811 40.2645 101.656 40.0323 99.529 39.6353ZM97.2976 31.5416C99.4495 31.3114 101.616 31.2477 103.778 31.3509C105.941 31.4143 108.096 31.6465 110.223 32.0454C108.071 32.2776 105.905 32.3413 103.743 32.2361C101.58 32.1707 99.4251 31.9385 97.2976 31.5416ZM101.081 48.2026C105.547 47.9381 110.007 47.9419 114.467 48.0116C118.926 48.1081 123.383 48.2719 127.836 48.7065C123.37 48.9731 118.909 48.9689 114.45 48.8974C109.991 48.7991 105.534 48.635 101.081 48.2026ZM100.595 83.4748C104.991 82.7017 109.413 82.196 113.841 81.7557C118.271 81.342 122.708 80.9955 127.171 80.9185C122.775 81.6936 118.354 82.1991 113.926 82.6376C109.495 83.0493 105.058 83.3957 100.595 83.4748ZM97.5662 19.3034C99.3301 18.9248 101.125 18.7103 102.929 18.6629C104.731 18.5758 106.537 18.6577 108.324 18.9077C106.561 19.2882 104.765 19.5027 102.961 19.5482C101.159 19.6333 99.3532 19.5514 97.5662 19.3034ZM98.048 24.0934C99.812 23.7148 101.607 23.5004 103.411 23.4529C105.213 23.3658 107.019 23.4477 108.806 23.6977C107.042 24.0782 105.247 24.2927 103.443 24.3382C101.641 24.4233 99.8351 24.3414 98.048 24.0934ZM99.9868 36.1234C101.751 35.7448 103.546 35.5303 105.35 35.4829C107.152 35.3958 108.958 35.4777 110.745 35.7277C108.981 36.1082 107.186 36.3227 105.382 36.3682C103.58 36.4534 101.774 36.3714 99.9868 36.1234ZM100.229 28.0459C101.993 27.6673 103.788 27.4528 105.592 27.4053C107.394 27.3182 109.2 27.4002 110.987 27.6501C109.224 28.0307 107.428 28.2451 105.624 28.2907C103.822 28.3758 102.016 28.2938 100.229 28.0459ZM99.4277 65.4049C103.893 65.1404 108.354 65.1443 112.813 65.214C117.272 65.3104 121.73 65.4742 126.182 65.9088C121.716 66.1755 117.256 66.1713 112.797 66.0998C108.338 66.0015 103.88 65.8374 99.4277 65.4049ZM99.9835 53.1668C103.689 52.7524 107.399 52.6062 111.11 52.526C114.821 52.4725 118.534 52.4864 122.252 52.7711C118.546 53.1876 114.837 53.3334 111.125 53.4118C107.414 53.4634 103.701 53.4493 99.9835 53.1668ZM100.981 57.9568C104.686 57.5424 108.396 57.3964 112.107 57.316C115.819 57.2625 119.531 57.2764 123.249 57.5611C119.544 57.9776 115.834 58.1234 112.123 58.2018C108.411 58.2535 104.698 58.2393 100.981 57.9568ZM104.391 74.0505C108.096 73.6361 111.806 73.4901 115.517 73.4098C119.229 73.3563 122.941 73.3701 126.659 73.6548C122.954 74.0714 119.244 74.2172 115.533 74.2955C111.821 74.3472 108.109 74.3331 104.391 74.0505ZM105.388 78.8406C109.094 78.4261 112.804 78.2801 116.515 78.1999C120.226 78.1463 123.939 78.1602 127.656 78.4448C123.951 78.8614 120.241 79.0072 116.53 79.0856C112.819 79.1372 109.106 79.1231 105.388 78.8406ZM104.994 69.9868C108.699 69.5724 112.409 69.4263 116.12 69.3461C119.832 69.2925 123.544 69.3064 127.262 69.5911C123.557 70.0077 119.847 70.1534 116.136 70.2318C112.424 70.2834 108.711 70.2693 104.994 69.9868ZM105.496 61.9092C109.201 61.4948 112.911 61.3487 116.622 61.2685C120.333 61.2149 124.046 61.2288 127.764 61.5135C124.058 61.9301 120.349 62.0758 116.637 62.1543C112.926 62.2059 109.213 62.1918 105.496 61.9092ZM139.129 86.6576C139.048 86.6575 138.97 86.6284 138.909 86.5755C138.848 86.5225 138.807 86.4494 138.796 86.3693C138.784 86.2893 138.801 86.2076 138.845 86.1393C138.888 86.071 138.954 86.0205 139.032 85.9971C139.074 85.9805 139.12 85.9726 139.165 85.9739C139.21 85.9752 139.255 85.9857 139.297 86.0048C139.338 86.0238 139.375 86.051 139.405 86.0848C139.436 86.1185 139.459 86.1581 139.474 86.2011C139.489 86.2441 139.495 86.2897 139.492 86.3351C139.489 86.3805 139.476 86.4248 139.456 86.4653C139.435 86.5058 139.406 86.5417 139.371 86.5708C139.336 86.5999 139.296 86.6216 139.252 86.6347C139.213 86.6488 139.171 86.6566 139.129 86.6576Z" fill="#1A1A1A"/>
<path d="M119.525 216.524C119.712 218.535 119.931 220.542 120.258 222.526C120.545 224.499 120.992 226.446 121.594 228.347C121.749 228.804 121.933 229.251 122.145 229.686C122.248 229.904 122.363 230.095 122.483 230.306C122.613 230.537 122.756 230.763 122.871 231.001C123.356 231.938 123.737 232.925 124.006 233.945C124.569 235.976 124.774 238.089 124.613 240.19C124.535 241.262 124.322 242.319 123.978 243.337C123.635 244.418 123.039 245.401 122.238 246.204C121.814 246.622 121.317 246.959 120.772 247.199C120.5 247.321 120.217 247.418 119.926 247.487L119.154 247.639C118.219 247.871 117.31 248.196 116.439 248.609C114.485 249.33 112.439 249.774 110.362 249.929C108.323 250.131 106.288 250.19 104.259 250.198C100.2 250.204 96.157 250.066 92.1125 249.946C90.0906 249.882 88.0695 249.799 86.0492 249.697C84.0269 249.631 82.0065 249.531 79.9851 249.439C71.8982 249.084 63.8287 248.443 55.7749 247.681L55.7425 247.678C55.5577 247.66 55.3847 247.579 55.2524 247.449C55.1201 247.319 55.0366 247.147 55.016 246.963C54.9896 246.75 54.9916 246.534 55.0217 246.321C55.0424 246.149 55.075 245.978 55.1192 245.81C55.2013 245.497 55.3148 245.193 55.4581 244.902C55.586 244.621 55.7387 244.352 55.9145 244.098C56.0737 243.844 56.2518 243.602 56.4472 243.375C57.1846 242.489 58.0372 241.706 58.9824 241.047C60.805 239.781 62.7578 238.713 64.8075 237.862C65.8223 237.451 66.8415 237.052 67.8701 236.691C68.9003 236.354 69.9425 235.984 70.9624 235.674C73.0095 235.03 75.0617 234.407 77.0935 233.732C81.1634 232.461 85.1216 230.857 88.928 228.936C90.7996 227.967 92.5022 226.702 93.9699 225.19C95.4322 223.649 96.2941 221.635 96.3996 219.513C96.4 219.502 96.4027 219.491 96.4074 219.481C96.4121 219.471 96.4188 219.461 96.427 219.454C96.4353 219.446 96.445 219.44 96.4556 219.436C96.4662 219.432 96.4774 219.43 96.4887 219.431C96.5101 219.432 96.5303 219.441 96.5455 219.457C96.5607 219.472 96.5698 219.492 96.5711 219.513C96.648 221.737 95.9035 223.911 94.4798 225.621C93.0568 227.304 91.3543 228.728 89.4473 229.832C85.6815 231.997 81.7148 233.792 77.6026 235.192C75.5729 235.93 73.5395 236.65 71.4933 237.324C70.4606 237.654 69.4818 238.022 68.4739 238.368C67.4801 238.735 66.5014 239.136 65.5306 239.546C63.6064 240.346 61.7706 241.345 60.0528 242.525C59.228 243.089 58.4769 243.755 57.8169 244.506C57.657 244.682 57.5116 244.871 57.382 245.07C57.2465 245.255 57.129 245.452 57.0311 245.659C56.9311 245.848 56.8509 246.046 56.7919 246.252C56.7654 246.343 56.7452 246.437 56.7313 246.531C56.714 246.602 56.7186 246.741 56.7092 246.692L55.9505 245.975C63.9797 246.866 72.0129 247.716 80.0503 248.525C82.0616 248.706 84.073 248.894 86.0868 249.048C88.1012 249.191 90.1176 249.3 92.1342 249.399C96.1644 249.612 100.203 249.61 104.233 249.395C106.243 249.28 108.249 249.107 110.221 248.807C112.171 248.554 114.079 248.043 115.893 247.285C116.837 246.807 117.828 246.427 118.849 246.15L119.258 246.073L119.564 246.006C119.765 245.958 119.96 245.89 120.148 245.803C120.53 245.634 120.876 245.395 121.17 245.098C122.376 243.687 123.07 241.911 123.141 240.057C123.316 238.121 123.173 236.169 122.718 234.278C122.491 233.337 122.178 232.419 121.782 231.535C121.689 231.313 121.57 231.106 121.464 230.89C121.345 230.656 121.214 230.406 121.113 230.16C120.907 229.675 120.731 229.176 120.586 228.668C120.049 226.688 119.704 224.66 119.557 222.613C119.385 220.589 119.317 218.559 119.353 216.529C119.354 216.506 119.363 216.484 119.38 216.469C119.396 216.453 119.418 216.444 119.441 216.445C119.462 216.446 119.483 216.454 119.498 216.469C119.513 216.484 119.523 216.503 119.525 216.524Z" fill="#1A1A1A"/>
<path d="M113.512 227.68C113.848 228.336 114.022 229.063 114.02 229.8C114.032 230.559 113.865 231.31 113.533 231.992C113.199 232.681 112.688 233.269 112.052 233.694C111.444 234.113 110.745 234.381 110.012 234.474C110.584 234.085 111.124 233.651 111.627 233.177C112.098 232.729 112.483 232.199 112.764 231.613C113.314 230.378 113.57 229.031 113.512 227.68ZM121.848 245.341C121.848 245.341 126.724 247.034 124.03 255.887C124.03 255.887 124.425 259.181 112.689 258.564L53.5975 258.641C53.5975 258.641 49.2235 248.973 58.3079 247.077L73.1423 248.45C73.1423 248.45 69.4513 239.622 70.4807 236.739C72.0617 234.16 74.4532 232.179 77.2808 231.104C80.1084 230.03 83.2124 229.924 86.1069 230.802C86.1069 230.802 85.497 244.968 96.4163 249.81C96.4163 249.81 112.478 249.001 121.848 245.341ZM77.8446 187.003C77.144 188.901 76.4585 190.804 75.8732 192.733C75.2554 194.636 74.7702 196.58 74.4211 198.55C74.3441 199.03 74.2935 199.515 74.2695 200.001C74.2475 200.461 74.2616 200.971 74.2604 201.497C74.2579 202.54 74.1749 203.58 74.0121 204.61C73.7295 206.736 72.9451 208.765 71.7237 210.528C70.4204 212.305 68.5698 213.605 66.4561 214.228C65.9407 214.381 65.4173 214.506 64.8883 214.601L63.3915 214.823C62.3596 215.064 61.3047 215.194 60.2451 215.21C58.1436 215.004 56.096 214.423 54.199 213.495C52.3247 212.663 50.5164 211.727 48.7341 210.752C41.6308 206.817 34.6738 202.685 27.6553 198.628C20.6385 194.572 13.7439 190.315 6.89509 185.989L6.86781 185.972C6.71095 185.873 6.59299 185.723 6.53375 185.547C6.47451 185.371 6.47758 185.18 6.54246 185.006C6.61729 184.799 6.71946 184.603 6.84625 184.423C6.94644 184.276 7.05595 184.136 7.17412 184.002C7.39701 183.756 7.64375 183.533 7.91072 183.336C8.41017 182.96 8.95521 182.65 9.5328 182.411C10.6242 181.955 11.7715 181.646 12.9445 181.493C15.2058 181.203 17.4911 181.151 19.7633 181.337C21.9974 181.532 24.2455 181.87 26.4071 182.227C28.5774 182.581 30.7519 182.904 32.9336 183.154C35.1147 183.405 37.3022 183.595 39.4905 183.673C41.6744 183.775 43.8625 183.743 46.0425 183.576C48.2116 183.419 50.349 182.966 52.3954 182.23C54.465 181.522 56.2105 180.093 57.3121 178.203C57.3226 178.184 57.3401 178.169 57.3611 178.162C57.382 178.155 57.4049 178.157 57.4248 178.166C57.4447 178.176 57.4602 178.193 57.4681 178.213C57.4759 178.234 57.4755 178.257 57.467 178.277C56.4809 180.339 54.7675 181.963 52.6562 182.837C50.5884 183.74 48.3986 184.332 46.1577 184.595C41.7154 185.111 37.23 185.14 32.7814 184.68C30.5625 184.489 28.3492 184.248 26.1477 183.933C23.941 183.6 21.8083 183.318 19.6326 183.16C17.4938 182.993 15.3437 183.039 13.2141 183.298C12.1914 183.424 11.1882 183.676 10.227 184.047C9.7775 184.221 9.35188 184.45 8.9604 184.731C8.77928 184.858 8.61122 185.002 8.4587 185.162C8.39211 185.234 8.32978 185.31 8.27204 185.39C8.2231 185.448 8.16108 185.577 8.17507 185.53L7.82256 184.547L28.1387 197.843L33.2523 201.114C34.9692 202.185 36.7042 203.225 38.4395 204.264C41.91 206.341 45.4562 208.298 49.0932 210.052C50.9126 210.924 52.7534 211.75 54.6204 212.465C56.4112 213.228 58.3203 213.676 60.2635 213.789C61.2282 213.741 62.1851 213.59 63.118 213.34C63.3745 213.284 63.6454 213.246 63.9116 213.207L64.6214 213.098C65.088 213.011 65.5494 212.899 66.0037 212.761C67.8063 212.23 69.3929 211.139 70.534 209.646C71.6438 208.078 72.3835 206.278 72.6975 204.383C72.872 203.415 72.988 202.439 73.0448 201.458C73.0718 200.972 73.0819 200.47 73.1343 199.92C73.1871 199.397 73.2684 198.877 73.3779 198.363C73.8207 196.36 74.4318 194.399 75.2048 192.499C75.9593 190.608 76.7655 188.744 77.688 186.933C77.6983 186.913 77.7163 186.898 77.738 186.891C77.7597 186.884 77.7832 186.885 77.8036 186.896C77.8223 186.906 77.8368 186.922 77.8443 186.942C77.8519 186.962 77.852 186.984 77.8446 187.003Z" fill="#1A1A1A"/>
<path d="M67.4395 194.24C67.4422 194.977 67.2691 195.704 66.9345 196.361C66.6016 197.042 66.1133 197.637 65.5089 198.095C64.9002 198.559 64.1786 198.853 63.4187 198.944C62.687 199.044 61.9422 198.966 61.2465 198.719C61.9324 198.63 62.6101 198.487 63.2733 198.291C63.8957 198.104 64.4787 197.806 64.9939 197.41C66.043 196.556 66.8801 195.471 67.4395 194.24ZM66.8946 213.761C66.8946 213.761 70.479 217.475 64.075 224.155C64.075 224.155 62.9381 227.272 52.7481 221.418L0 194.783C0 194.783 0.467116 184.182 9.42788 186.596L22.0407 194.524C22.0407 194.524 22.7375 184.981 24.9585 182.875C27.5342 181.289 30.5631 180.602 33.571 180.921C36.5789 181.24 39.396 182.548 41.5811 184.64C41.5811 184.64 34.6355 197.001 42.188 206.255C42.188 206.255 56.8811 212.792 66.8946 213.761Z" fill="#1A1A1A"/>
<path d="M246.906 50.0252L247.83 56.1024C248.15 58.121 248.487 60.1335 248.881 62.1317C249.249 64.1359 249.727 66.1135 250.28 68.065C250.78 70.0402 251.583 71.926 252.66 73.6548C251.282 72.0965 250.247 70.2657 249.623 68.2813C248.932 66.3329 248.393 64.3337 248.011 62.3017C247.223 58.2582 246.853 54.1444 246.906 50.0252ZM248.182 20.384C248.182 20.384 260.628 8.94304 275.946 34.5593C291.264 60.1756 291.071 70.8194 297.135 69.7889C297.135 69.7889 281.96 81.5792 263.131 61.9092C244.303 42.2391 248.182 20.384 248.182 20.384Z" fill="#1A1A1A"/>
<path d="M248.094 61.9161C247.995 60.9954 248.035 60.065 248.211 59.156C248.422 58.2429 248.783 57.3712 249.28 56.5768C250.309 55.0066 251.681 53.6905 253.293 52.7275C254.882 51.7688 256.573 50.99 258.334 50.4056C260.09 49.8053 261.892 49.3515 263.723 49.0489L263.597 49.0776C265.105 48.6131 266.68 48.4058 268.257 48.4641C269.842 48.4962 271.407 48.8243 272.871 49.4314C273.229 49.6049 273.598 49.7605 273.946 49.9524C274.286 50.16 274.632 50.3588 274.965 50.5769L275.915 51.3002C276.204 51.5307 276.468 51.7564 276.763 51.9752C277.915 52.8575 279.155 53.6722 280.397 54.479L287.931 59.3C290.483 60.9085 292.923 62.6876 295.235 64.6253C295.825 65.1394 296.368 65.7043 296.859 66.3135C297.128 66.6455 297.346 67.0158 297.505 67.4122C297.55 67.5248 297.582 67.6417 297.602 67.761L297.64 67.9422C297.647 68.0335 297.646 68.1253 297.636 68.2163C297.574 68.5285 297.395 68.8053 297.136 68.9901C296.432 69.417 295.647 69.6935 294.831 69.8022C294.076 69.9437 293.325 70.0371 292.575 70.1107C289.574 70.3847 286.585 70.4494 283.596 70.4914C280.607 70.5235 277.62 70.5187 274.633 70.5038L270.153 70.4415L267.914 70.3991C267.17 70.3962 266.406 70.3548 265.709 70.4045C264.293 70.5125 262.932 71.0054 261.775 71.8301C260.618 72.6548 259.708 73.7799 259.143 75.084C257.887 77.7878 256.687 80.5177 255.46 83.234C253.037 88.6814 250.682 94.1559 248.393 99.6576C243.908 110.694 239.646 121.826 236.175 133.199L236.164 133.235C236.155 133.263 236.144 133.29 236.131 133.317C235.444 134.66 234.612 135.924 233.651 137.086C232.698 138.269 231.574 139.303 230.317 140.154C229.027 141.038 227.53 141.572 225.972 141.703C224.474 141.763 223.065 141.681 221.608 141.677L212.937 141.532L204.274 141.314C204.25 141.313 204.228 141.303 204.212 141.286C204.196 141.269 204.187 141.247 204.187 141.223C204.188 141.2 204.198 141.179 204.214 141.163C204.23 141.147 204.251 141.137 204.274 141.137L212.924 140.821L221.567 140.578C222.993 140.523 224.478 140.538 225.856 140.425C227.181 140.259 228.443 139.763 229.528 138.982C231.728 137.314 233.486 135.133 234.647 132.628L234.604 132.746C237.894 121.228 241.968 109.949 246.796 98.9867C249.146 93.4869 251.615 88.0426 254.205 82.6537C255.487 79.9535 256.831 77.2837 258.182 74.6179C258.873 73.1907 259.931 71.9729 261.248 71.0891C262.56 70.2138 264.088 69.7155 265.664 69.6487C268.714 69.7326 271.644 69.8679 274.641 69.9157C277.623 69.9855 280.606 70.0013 283.585 69.9223C286.558 69.8763 289.527 69.6692 292.478 69.302C293.21 69.1998 293.937 69.0778 294.643 68.9146C295.306 68.7987 295.941 68.5586 296.515 68.2069C296.61 68.1271 296.632 68.0598 296.623 68.0723C296.617 68.0693 296.618 68.0788 296.619 68.0675L296.59 67.9768C296.578 67.9125 296.558 67.8499 296.53 67.7906C296.394 67.501 296.217 67.2325 296.004 66.9936C295.535 66.4598 295.02 65.9677 294.466 65.5228C292.116 63.7312 289.664 62.0768 287.123 60.568C284.591 59.0046 282.045 57.4481 279.526 55.8132C278.274 54.9806 277.025 54.1438 275.816 53.1987C275.513 52.9695 275.212 52.7085 274.92 52.4709L274.096 51.8294C273.807 51.6369 273.506 51.462 273.212 51.2756C272.91 51.1048 272.589 50.9682 272.278 50.8107C269.656 49.7217 266.744 49.5418 264.008 50.2996L263.944 50.3163C263.924 50.3215 263.903 50.3256 263.882 50.3283C262.115 50.5531 260.369 50.9226 258.663 51.4331C256.951 51.9286 255.299 52.6132 253.738 53.4741C252.172 54.3026 250.807 55.4666 249.743 56.8828C249.23 57.603 248.84 58.4036 248.59 59.2517C248.354 60.1148 248.247 61.0079 248.271 61.9023C248.271 61.914 248.27 61.9256 248.266 61.9366C248.262 61.9476 248.256 61.9578 248.248 61.9665C248.241 61.9752 248.231 61.9823 248.221 61.9873C248.21 61.9924 248.199 61.9954 248.187 61.996C248.165 61.9965 248.143 61.9886 248.125 61.9739C248.108 61.9592 248.097 61.9386 248.094 61.9161Z" fill="#1A1A1A"/>
<path d="M187.246 110.919L196.223 100.316C196.965 99.4295 197.702 98.5393 198.422 97.6412L199.487 96.2917C199.823 95.8747 200.128 95.4342 200.401 94.9736C201.325 92.8164 202.43 90.741 203.703 88.7698C206.26 84.7239 209.767 81.3645 213.918 78.9839C216.007 77.804 218.251 76.9239 220.585 76.3695C222.937 75.7855 225.367 75.5813 227.783 75.7646L227.095 75.9946L232.446 70.9356L232.461 70.9212C232.569 70.8184 232.707 70.7522 232.855 70.7315C237.274 70.016 241.783 70.0752 246.182 70.9066C248.376 71.3558 250.489 72.139 252.446 73.2289C254.417 74.274 256.091 75.8034 257.308 77.6733C255.939 75.9682 254.187 74.6099 252.195 73.7086C250.228 72.8058 248.144 72.1859 246.003 71.8672C241.708 71.2917 237.348 71.4144 233.092 72.2306L233.501 72.0267L228.265 77.2045C228.182 77.2864 228.083 77.3497 227.974 77.3901C227.865 77.4305 227.748 77.4471 227.632 77.4389L227.576 77.4347C225.363 77.3072 223.143 77.5197 220.995 78.0648C216.626 79.156 212.618 81.3712 209.37 84.4904C207.729 86.0421 206.259 87.7657 204.986 89.6316C203.703 91.524 202.564 93.5104 201.579 95.5738C201.25 96.1031 200.88 96.6049 200.471 97.0744C200.095 97.5278 199.717 97.9717 199.328 98.4061C198.554 99.2766 197.769 100.132 196.98 100.983C195.407 102.689 193.784 104.346 192.163 106.003C190.543 107.66 188.913 109.308 187.246 110.919Z" fill="#1A1A1A"/>
<path d="M254.262 84.1751L242.92 110.919C242.92 110.919 246.906 79.1104 229.222 77.7215L227.68 76.5996L232.393 72.0422C232.393 72.0422 255.662 73.0708 254.262 84.1751Z" fill="#1A1A1A"/>
<path d="M91.4968 4.3067C91.9232 11.5828 92.243 18.8603 92.4562 26.1394C92.6926 33.4181 92.8312 40.6982 92.9508 47.9785C93.0391 55.2593 93.1063 62.5404 93.0762 69.8229C93.0698 77.1051 92.955 84.3887 92.7319 91.674C92.3035 84.398 91.9829 77.1205 91.77 69.8414C91.534 62.5627 91.3954 55.2826 91.2779 48.0022C91.1917 40.7214 91.1244 33.4403 91.155 26.1577C91.1622 18.8756 91.2762 11.5919 91.4968 4.3067Z" fill="#1A1A1A"/>
</svg>
