<svg width="18" height="11" viewBox="0 0 18 11" fill="none" xmlns="http://www.w3.org/2000/svg">
<path d="M2.86318e-05 1.80758C-0.00133894 1.57106 0.043993 1.3366 0.133429 1.11764C0.222864 0.898677 0.354643 0.699523 0.521206 0.531596C0.688274 0.363152 0.887041 0.229454 1.10604 0.138214C1.32504 0.0469752 1.55994 1.96046e-07 1.79719 1.93217e-07C2.03443 1.90387e-07 2.26933 0.0469752 2.48833 0.138214C2.70733 0.229454 2.9061 0.363152 3.07317 0.531596L8.98582 6.48019L14.9344 0.765227C15.2711 0.430505 15.7266 0.242627 16.2014 0.242627C16.6762 0.242627 17.1317 0.430505 17.4684 0.765227C17.6368 0.932296 17.7705 1.13106 17.8618 1.35006C17.953 1.56906 18 1.80396 18 2.04121C18 2.27846 17.953 2.51335 17.8618 2.73235C17.7705 2.95135 17.6368 3.15012 17.4684 3.31719L10.2798 10.2542C9.94383 10.5835 9.49217 10.768 9.02176 10.768C8.55135 10.768 8.09969 10.5835 7.76375 10.2542L0.575119 3.06559C0.400917 2.90428 0.260403 2.71005 0.161694 2.49413C0.0629864 2.2782 0.0080395 2.04486 2.86318e-05 1.80758Z" fill="#1A1A1A"/>
</svg>
