<svg width="15" height="24" viewBox="0 0 15 24" fill="none" xmlns="http://www.w3.org/2000/svg">
<path d="M2.4101 24C2.09475 24.0018 1.78213 23.9413 1.49018 23.8221C1.19824 23.7028 0.932697 23.5271 0.708795 23.3051C0.484202 23.0823 0.305938 22.8173 0.184286 22.5253C0.0626333 22.2333 0 21.9201 0 21.6038C0 21.2874 0.0626333 20.9742 0.184286 20.6822C0.305938 20.3902 0.484202 20.1252 0.708795 19.9024L8.64025 12.0189L1.0203 4.08745C0.574006 3.63849 0.323503 3.03117 0.323503 2.39812C0.323503 1.76508 0.574006 1.15775 1.0203 0.708795C1.24306 0.484202 1.50808 0.305937 1.80009 0.184285C2.09209 0.0626322 2.40528 0 2.72161 0C3.03794 0 3.35114 0.0626322 3.64314 0.184285C3.93514 0.305937 4.20016 0.484202 4.42292 0.708795L13.6723 10.2936C14.1113 10.7416 14.3573 11.3438 14.3573 11.971C14.3573 12.5982 14.1113 13.2004 13.6723 13.6483L4.08745 23.2332C3.87237 23.4654 3.6134 23.6528 3.3255 23.7844C3.0376 23.916 2.72648 23.9893 2.4101 24Z" fill="#F6F6F6"/>
</svg>
