<svg width="20" height="23" viewBox="0 0 20 23" fill="none" xmlns="http://www.w3.org/2000/svg">
<path d="M19 0H3.75C2.75544 0 1.70326 0.781111 1 1.5C0.296739 2.21889 0 2.81667 0 3.83333V19.1667C0 20.1833 0.395088 21.1584 1.09835 21.8772C1.80161 22.5961 2.75544 23 3.75 23H18.75C19.0815 23 19.3995 22.8654 19.6339 22.6257C19.8683 22.3861 20 22.0611 20 21.7222V1.27778C20 0.93889 19.8683 0.613882 19.6339 0.374252C19.3995 0.134623 19.3315 0 19 0ZM3.75 20.4444C3.41848 20.4444 3.10054 20.3098 2.86612 20.0702C2.6317 19.8306 2.5 19.5056 2.5 19.1667C2.5 18.8278 2.6317 18.5028 2.86612 18.2631C3.10054 18.0235 3.41848 17.8889 3.75 17.8889H17.5V20.4444H3.75Z" fill="#F6F6F6"/>
</svg>
